<?xml version="1.0" encoding="utf-8"?>
<!-- Generator: Adobe Illustrator 24.3.0, SVG Export Plug-In . SVG Version: 6.00 Build 0)  -->
<svg version="1.1" id="Layer_1" xmlns="http://www.w3.org/2000/svg" xmlns:xlink="http://www.w3.org/1999/xlink" x="0px" y="0px"
	 viewBox="0 0 151 85.7" style="enable-background:new 0 0 151 85.7;" xml:space="preserve">
<style type="text/css">
	.st0{fill:#3366CC;}
	.st1{fill:#FFFFFF;}
	.st2{fill:url(#SVGID_1_);}
</style>
<g>
	<path class="st0" d="M101.7,34c2.3-4.4,4.3-5.6,4.9-5.7c0.1,0,0.3,0.1,0.3,0.3C106.8,30,103,34,101.7,34z"/>
</g>
<g>
	<path class="st0" d="M127.7,33c2.3-4.4,4.3-5.6,4.9-5.7c0.2,0,0.3,0.1,0.3,0.3C132.8,29,129,33,127.7,33z"/>
</g>
<g>
	<path class="st0" d="M0,0v85.8h151V0H0z M114.9,44.6c-1.7,0.1-4.5-1.7-4.6-5.6c0-0.7,0-1.5,0.2-2.3c-2.2,2.8-5.3,6-7.5,6.1
		c-3,0.1-6-1.6-6.1-5.5V37c-2,2.8-4.8,6.2-6.9,6.3c-2,0.1-3.9-1.2-3.9-2.8c-0.1-3.2,4.1-7.4,4-8.7c0-0.1-0.1-0.3-0.3-0.3
		c-0.8,0-4,4.5-6.4,8.2c-0.7,1-1,1.6-1.9,1.6c-0.8,0-2.6-1-2.7-2.9c-0.1-3,4.2-7.7,4.2-9.4c0-0.3-0.3-0.4-0.5-0.4
		c-0.8,0-4.2,4.7-6.8,9.4c-2.7,4.9-1.9,6.1-3.1,6.1c-1,0-2.9-1.3-3-3.4c0-0.1,0-0.2,0-0.3c-0.9,1.1-1.8,1.9-2.5,1.9
		c-2.2,0.1-3.5-2.4-3.6-3.5c-0.7,0-3.6,6.2-6.5,6.3c-1.5,0.1-3.8-0.4-3.9-4c0-0.2,0-0.4,0-0.6c-1.3,1.5-2.8,2.7-3.9,2.8
		c-2,0.1-3.6-1.5-3.7-3.4c-0.2-3.9,3.9-8,3.8-9.1c0-0.1-0.1-0.2-0.2-0.2c-0.6,0-6.9,6.2-9.7,11.3c-0.6,1.1-1.1,2.4-1.7,3.6h21.7V50
		H53c-2,0-3,1-3,3v32.6h-4.7V53c0-2-1-3-3-3h-6.6c-0.5,0-0.2-4.9-0.2-6.6c0-1.1,0.2-2.4,0.5-3.8c-3.8,4.7-11.1,12-17.9,12.3
		c-5.4,0.2-11.4-4.1-11.6-11.1C5.7,24.7,21.4,8.1,32.3,7.7c4.8-0.2,6.9,2.7,7,6.3c0.2,5.4-6.6,10.4-8,10.4c-0.4,0-0.8-0.5-0.9-0.7
		c0-0.6,5.6-6.7,5.4-11.7c-0.1-1.6-0.9-2.2-2-2.2c-10.3,0.4-23.1,19.6-22.6,33.3c0.2,4.6,2.6,6.2,5.5,6.1c9-0.4,18.7-11.7,20.6-14.1
		c3-7.8,8.3-17.6,8-24.3c0-0.4,0.2-0.7,0.5-0.7c0.8,0,3.4,1.6,3.6,4.3c0.3,7.2-7.1,16.4-8.5,22c3.6-4.6,7-8,9.6-8.1
		c1.7-0.1,2.9,1.3,2.9,2.8c0.1,3.2-5,6.7-4.9,9.5c0,0.5,0.3,0.7,0.6,0.7c1.1,0,3.8-3.3,5.5-5.7c2.3-3.9,6.7-7.3,11.2-7.5
		c1.4-0.1,2.7,1.3,2.7,2c0,0.7-1.2,0.3-3.2,1.3c-4.8,2.2-8.6,9.6-8.5,11.4c0,0.3,0.2,0.4,0.4,0.4c1.2-0.1,6.1-7,7.4-9
		c0.6-0.9,1.1-1.7,1.7-1.7c1,0,2,1,2,2c0.1,2.1-2.3,4.2-2.2,5.1c0,0.3,0.2,0.5,0.4,0.5c1.1-0.1,3.6-3.5,5.2-5.7c0,0,0,0,0-0.1
		c0.9-1.8,1.8-3.7,2.1-5.4c0.2-0.9,0.3-1.1,0.7-1.2c0.9,0,1.9,1.2,2,2.4c0.1,1.3-1.5,4.6-1.9,5.5c0.9-1.4,6.3-9.7,8.9-9.8
		c1.4-0.1,3.1,1.5,3.2,3.2c0.1,1.8-1.7,3.3-2.3,5.9c0.2-0.3,4-5.6,6.1-5.6c1.5-0.1,2.7,1.3,2.8,2.9c0.1,2.2-3.9,5.8-3.8,8.9
		c0,0.3,0.3,0.6,0.5,0.6c1.8-0.1,5.9-6.3,7.6-8.7c0,0,0,0,0,0c1.7-4,5.5-6.7,8.1-6.8c1.2-0.1,2.9,1.6,3,3.1c0.1,3.2-3.4,6.9-5.9,7
		c-0.6,0-1.6-0.5-1.6-0.5s-0.6,1.3-0.5,3.4c0.1,1.5,0.6,1.9,1.2,1.9c3.2-0.1,7.3-5.1,9.5-8.6c2.9-8.5,9.7-19,9.6-23.7
		c0-0.7,0.2-1.1,0.5-1.1c0.4,0,1.9,1.4,2,3.9c0.2,5.6-9.6,23-9.3,30.3c0,0.6,0.4,1,0.8,0.9c1.2-0.1,5.7-6.4,8.5-10.7c0,0,0,0,0,0
		c1.7-4,5.6-6.9,8.2-7c1.2,0,2.9,1.6,3,3.1c0.1,3.2-3.3,6.9-5.9,7c-0.6,0-1.6-0.5-1.6-0.5s-0.6,1.3-0.5,3.4c0.1,1.5,0.6,1.9,1.2,1.9
		c3-0.1,6.8-4.5,9.1-7.9v0c1.9-3.8,5.7-7.2,8.6-7.4c1.1,0,2.3,1.1,2.4,1.7c0,0.4-0.4,0.7-1.1,1.1c-2.9,1.6-7.3,6.8-7.1,11.4
		c0,0.6,0.4,0.9,0.9,0.9c1.9-0.1,6.3-6.5,6.2-10.7c0-0.4,0.1-0.5,0.3-0.5c0.7,0,1.8,0.9,1.9,2.5c0.1,3.3-5,10.2-8.9,10.4
		c-2.1,0.1-4.1-1.5-4.2-4.7c0-0.1,0-0.2,0-0.4c-2.2,2.7-4.9,5.4-7,5.5c-3,0.1-5.9-1.6-6.1-5.3C120.4,40.2,117.4,44.5,114.9,44.6z"/>
</g>
<g>
	<g>
		<path class="st1" d="M86.7,85.5h-9.8c-5,0-7.7-2.7-7.7-7.7V53c0-2-1-3-3-3h-2v-4.7H86V50H73.9v12.4h10.8v4.7H73.9v10.8
			c0,2,1,3,3,3h9.8V85.5z"/>
	</g>
	<g>
		<path class="st1" d="M111.4,83.9c-3.6,3.6-7.1,3.6-10.7,0l-6-6v-25l6-6c3.6-3.6,7.1-3.6,10.7,0l6,6l-3.3,3.3l-5.9-5.8
			c-1.4-1.4-2.8-1.4-4.3,0l-4.5,4.5v20.9l4.5,4.5c1.4,1.4,2.8,1.4,4.3,0l5.9-5.8l3.3,3.3L111.4,83.9z"/>
	</g>
	<g>
		<path class="st1" d="M128.9,45.3v17.4h13.4V53c0-5,2.7-7.7,7.7-7.7l1.1,0L151,50l-1,0c-2,0-3,1-3,3v32.6h-4.7V67.4h-13.4v18.1
			h-4.7V45.3H128.9z"/>
	</g>
</g>
<g>
	<path class="st1" d="M147.1,28.5c-0.3,0-0.3,0.2-0.3,0.5c0.1,4.2-4.4,10.6-6.2,10.7c-0.5,0-0.8-0.3-0.9-0.9
		c-0.2-4.6,4.3-9.8,7.1-11.4c0.8-0.4,1.1-0.6,1.1-1.1c0-0.6-1.2-1.7-2.4-1.7c-2.9,0.1-6.7,3.6-8.6,7.4v0c-2.3,3.4-6.1,7.8-9.1,7.9
		c-0.6,0-1.2-0.5-1.2-1.9c-0.1-2.1,0.5-3.4,0.5-3.4s1,0.5,1.6,0.5c2.6-0.1,6-3.8,5.9-7c-0.1-1.5-1.8-3.1-3-3.1
		c-2.6,0.1-6.5,2.9-8.2,7c0,0,0,0,0,0c-2.7,4.2-7.2,10.6-8.5,10.7c-0.4,0-0.7-0.3-0.8-0.9c-0.3-7.3,9.5-24.7,9.3-30.3
		c-0.1-2.5-1.6-3.9-2-3.9c-0.4,0-0.6,0.4-0.5,1.1c0.1,4.7-6.7,15.2-9.6,23.7c-2.3,3.4-6.3,8.4-9.5,8.6c-0.6,0-1.2-0.5-1.2-1.9
		c-0.1-2.1,0.5-3.4,0.5-3.4s1,0.5,1.6,0.5c2.6-0.1,6-3.8,5.9-7c-0.1-1.5-1.8-3.1-3-3.1c-2.6,0.1-6.4,2.9-8.1,6.8c0,0,0,0,0,0
		c-1.6,2.4-5.8,8.6-7.6,8.7c-0.3,0-0.5-0.2-0.5-0.6c-0.1-3.1,3.9-6.8,3.8-8.9c-0.1-1.6-1.3-2.9-2.8-2.9c-2.1,0.1-5.8,5.3-6.1,5.6
		c0.7-2.6,2.4-4.1,2.3-5.9c-0.1-1.7-1.7-3.2-3.2-3.2c-2.6,0.1-8,8.4-8.9,9.8c0.4-0.9,2-4.2,1.9-5.5c-0.1-1.2-1.1-2.4-2-2.4
		c-0.4,0-0.5,0.3-0.7,1.2c-0.3,1.7-1.2,3.6-2.1,5.4c0,0,0,0,0,0.1c-1.6,2.3-4.1,5.7-5.2,5.7c-0.2,0-0.4-0.1-0.4-0.5
		c0-0.9,2.3-3,2.2-5.1c0-1-1-2.1-2-2c-0.5,0-1,0.7-1.6,1.7c-1.3,2-6.2,8.9-7.4,9c-0.2,0-0.4-0.1-0.4-0.4c-0.1-1.8,3.8-9.1,8.5-11.4
		c2-1,3.2-0.6,3.2-1.3c0-0.7-1.3-2-2.7-2c-4.5,0.2-8.9,3.6-11.2,7.5c-1.8,2.4-4.5,5.6-5.5,5.7c-0.3,0-0.5-0.2-0.6-0.7
		c-0.1-2.8,5-6.3,4.9-9.5c-0.1-1.5-1.3-2.8-2.9-2.8c-2.6,0.1-6,3.5-9.6,8.1c1.3-5.6,8.8-14.8,8.5-22c-0.1-2.7-2.7-4.3-3.6-4.3
		c-0.3,0-0.5,0.3-0.5,0.7c0.3,6.8-5,16.5-8,24.3c-1.9,2.4-11.5,13.7-20.6,14.1c-2.9,0.1-5.3-1.5-5.5-6.1
		C10.8,29.4,23.5,10.2,33.9,9.8c1.1,0,1.9,0.6,2,2.2c0.2,5-5.4,11.1-5.4,11.7c0,0.2,0.5,0.7,0.9,0.7c1.3-0.1,8.2-5.1,7.9-10.4
		c-0.1-3.6-2.3-6.5-7-6.3C21.4,8.1,5.7,24.7,6.4,40.8c0.3,7,6.3,11.3,11.6,11.1c6.8-0.3,14.1-7.6,17.9-12.3
		c-0.4,1.4-0.5,2.7-0.5,3.8c0.1,1.7-0.3,6.6,0.2,6.6h6.5c2,0,3,1,3,3v32.6H50V53c0-2,1-3,3-3h6.5v-4.7H37.8c0.5-1.2,1.1-2.5,1.7-3.6
		c2.7-5.1,9-11.2,9.7-11.3c0.1,0,0.2,0.1,0.2,0.2c0.1,1.1-4,5.2-3.8,9.1c0.1,2,1.8,3.5,3.7,3.4c1.1,0,2.6-1.3,3.9-2.8
		c0,0.2,0,0.4,0,0.6c0.1,3.6,2.4,4.1,3.9,4c2.9-0.1,5.7-6.3,6.4-6.3c0,1.1,1.4,3.6,3.6,3.5c0.7,0,1.6-0.8,2.5-1.9c0,0.1,0,0.2,0,0.3
		c0.1,2.1,2,3.4,3,3.4c1.2-0.1,0.4-1.2,3.1-6.1c2.6-4.7,6-9.4,6.8-9.4c0.2,0,0.4,0.1,0.5,0.4c0,1.7-4.3,6.5-4.2,9.4
		c0.1,2,1.9,3,2.7,2.9c0.8,0,1.1-0.5,1.9-1.6c2.4-3.7,5.5-8.1,6.4-8.2c0.2,0,0.3,0.1,0.3,0.3c0.1,1.3-4.1,5.5-4,8.7
		c0.1,1.7,1.9,2.9,3.9,2.8c2.1-0.1,4.9-3.5,6.9-6.3v0.3c0.2,3.9,3.1,5.6,6.1,5.5c2.3-0.1,5.3-3.3,7.5-6.1c-0.1,0.8-0.2,1.6-0.2,2.3
		c0.2,4,2.9,5.7,4.6,5.6c2.5-0.1,5.6-4.4,7.8-8.2c0.2,3.8,3.1,5.5,6.1,5.3c2.1-0.1,4.9-2.8,7-5.5c0,0.1,0,0.2,0,0.4
		c0.1,3.2,2.1,4.8,4.2,4.7c4-0.2,9.1-7.1,8.9-10.4C148.9,29.3,147.8,28.4,147.1,28.5z M132.6,27.4c0.2,0,0.3,0.1,0.3,0.3
		c0,1.3-3.9,5.3-5.1,5.3C130,28.6,132,27.4,132.6,27.4z M106.6,28.4c0.1,0,0.3,0.1,0.3,0.3c-0.1,1.3-3.9,5.3-5.1,5.3
		C104,29.6,106.1,28.4,106.6,28.4z"/>
</g>
<linearGradient id="SVGID_1_" gradientUnits="userSpaceOnUse" x1="0" y1="73.2334" x2="25.1522" y2="73.2334">
	<stop  offset="0" style="stop-color:#F27405"/>
	<stop  offset="0.5066" style="stop-color:#F27405"/>
	<stop  offset="0.9191" style="stop-color:#F24405"/>
</linearGradient>
<rect y="60.7" class="st2" width="25.2" height="25.2"/>
<g>
	
		<image style="overflow:visible;opacity:0.5;" width="194" height="129" xlink:href="94742EC1.png"  transform="matrix(1 0 0 1 -19.9032 -20.3226)">
	</image>
</g>
</svg>
