<?xml version="1.0" encoding="utf-8"?>
<!-- Generator: Adobe Illustrator 24.3.0, SVG Export Plug-In . SVG Version: 6.00 Build 0)  -->
<svg version="1.1" xmlns="http://www.w3.org/2000/svg" xmlns:xlink="http://www.w3.org/1999/xlink" x="0px" y="0px"
	 viewBox="0 0 95.9 54" style="enable-background:new 0 0 95.9 54;" xml:space="preserve">
<style type="text/css">
	.st0{fill:none;}
	.st1{fill:#3366CC;}
	.st2{fill:url(#SVGID_1_);}
	.st3{fill:url(#SVGID_2_);}
	.st4{fill:#FFFFFF;}
	.st5{fill:url(#SVGID_3_);}
</style>
<g id="Layer_1">
	<g>
		<path class="st0" d="M16.5,35.3c-2.4,0.1-4.4-1-4.6-4.3C11.5,21.3,22.1,7.7,30.8,7.4c0.9,0,1.6,0.4,1.7,1.5
			c0.2,3.6-4.5,7.9-4.5,8.3c0,0.2,0.4,0.5,0.7,0.5c1.1,0,6.8-3.6,6.6-7.4c-0.1-2.6-1.9-4.6-5.9-4.4C20.4,6.2,7.3,18,7.8,29.3
			c0.2,5,5.2,8,9.7,7.9c5.7-0.2,11.8-5.4,15-8.7c-0.1,0.3,0.1-0.3,0.1,0l0.1-0.3l0.6-2.4C31,28.2,23.5,35.1,16.5,35.3z"/>
		<polygon class="st0" points="54,54 53,54 54,54 54,53.8 		"/>
		<path class="st1" d="M54,53.8V0H0v44h13.8v9.8V54H0v0h53h1V53.8z M23.5,42.9h-1.9c-0.6,0-0.9,0.3-0.9,0.9v9.5h-1.4v-9.5
			c0-0.6-0.3-0.9-0.9-0.9h-1.9v-1.4h7V42.9z M31.5,53.3h-2.9c-1.5,0-2.3-0.8-2.3-2.3v-7.3c0-0.6-0.3-0.9-0.9-0.9h-0.6v-1.4h6.4v1.4
			h-3.5v3.6h3.1v1.4h-3.1V51c0,0.6,0.3,0.9,0.9,0.9h2.9V53.3z M32.7,28.2l-0.1,0.3c0.1-0.3-0.2,0.3-0.1,0c-3.2,3.3-9.2,8.5-15,8.7
			C13,37.4,8,34.3,7.8,29.3C7.3,18,20.4,6.2,29.4,5.9c4-0.1,5.8,1.9,5.9,4.4c0.2,3.8-5.5,7.4-6.6,7.4c-0.3,0-0.7-0.3-0.7-0.5
			c0-0.4,4.6-4.7,4.5-8.3c0-1.1-0.7-1.6-1.7-1.5C22.1,7.7,11.5,21.3,11.9,31c0.1,3.3,2.2,4.4,4.6,4.3c7-0.2,14.5-7.1,16.7-9.5
			L32.7,28.2z M36.5,51.7c0.4,0.4,0.8,0.4,1.2,0l1.7-1.7l1,1l-1.7,1.7c-1,1-2.1,1-3.1,0L33.8,51v-7.3l1.7-1.7c1-1,2.1-1,3.1,0
			l1.7,1.7l-1,1L37.8,43c-0.4-0.4-0.8-0.4-1.2,0l-1.3,1.3v6.1L36.5,51.7z M50.2,42.9H50c-0.6,0-0.9,0.3-0.9,0.9v9.5h-1.4V48h-3.9
			v5.3h-1.4V41.5h1.4v5.1h3.9v-2.8c0-1.5,0.8-2.3,2.3-2.3h0.2V42.9z"/>
		<rect y="53.8" class="st1" width="13.8" height="0.2"/>
		<linearGradient id="SVGID_1_" gradientUnits="userSpaceOnUse" x1="-0.1245" y1="53.8749" x2="13.8065" y2="53.8749">
			<stop  offset="0" style="stop-color:#F27405"/>
			<stop  offset="0.5066" style="stop-color:#F27405"/>
			<stop  offset="0.9191" style="stop-color:#F24405"/>
		</linearGradient>
		<rect y="53.8" class="st2" width="13.8" height="0.2"/>
		<rect y="44" class="st1" width="13.8" height="9.8"/>
		<linearGradient id="SVGID_2_" gradientUnits="userSpaceOnUse" x1="-0.1245" y1="48.8933" x2="13.8065" y2="48.8933">
			<stop  offset="0" style="stop-color:#F27405"/>
			<stop  offset="0.5066" style="stop-color:#F27405"/>
			<stop  offset="0.9191" style="stop-color:#F24405"/>
		</linearGradient>
		<rect y="44" class="st3" width="13.8" height="9.8"/>
		<g>
			<path class="st4" d="M16.6,42.9h1.9c0.6,0,0.9,0.3,0.9,0.9v9.5h1.4v-9.5c0-0.6,0.3-0.9,0.9-0.9h1.9v-1.4h-7V42.9z"/>
		</g>
		<g>
			<path class="st4" d="M27.7,51v-3.1h3.1v-1.4h-3.1v-3.6h3.5v-1.4h-6.4v1.4h0.6c0.6,0,0.9,0.3,0.9,0.9V51c0,1.5,0.8,2.3,2.3,2.3
				h2.9v-1.4h-2.9C28,51.9,27.7,51.6,27.7,51z"/>
		</g>
		<g>
			<path class="st4" d="M36.5,43c0.4-0.4,0.8-0.4,1.2,0l1.7,1.7l1-1L38.7,42c-1-1-2.1-1-3.1,0l-1.7,1.7V51l1.7,1.7c1,1,2.1,1,3.1,0
				l1.7-1.7l-1-1l-1.7,1.7c-0.4,0.4-0.8,0.4-1.2,0l-1.3-1.3v-6.1L36.5,43z"/>
		</g>
		<g>
			<path class="st4" d="M47.7,43.7v2.8h-3.9v-5.1h-1.4v11.8h1.4V48h3.9v5.3h1.4v-9.5c0-0.6,0.3-0.9,0.9-0.9h0.2v-1.4H50
				C48.5,41.5,47.7,42.3,47.7,43.7z"/>
		</g>
	</g>
</g>
<g id="Layer_2">
	<g>
		<path class="st1" d="M64.7,21.4c1.4-2.8,2.7-3.6,3.1-3.6c0.1,0,0.2,0.1,0.2,0.2C67.9,18.9,65.5,21.4,64.7,21.4z"/>
	</g>
	<g>
		<path class="st1" d="M81.1,20.8c1.4-2.8,2.7-3.6,3.1-3.6c0.1,0,0.2,0.1,0.2,0.2C84.3,18.2,81.9,20.7,81.1,20.8z"/>
	</g>
	<g>
		<path class="st1" d="M0.3-0.1v54.3h95.5V-0.1H0.3z M73,28.1c-1.1,0-2.8-1.1-2.9-3.6c0-0.5,0-0.9,0.1-1.5c-1.4,1.8-3.3,3.8-4.8,3.9
			c-1.9,0.1-3.8-1-3.9-3.5v-0.2c-1.2,1.8-3,3.9-4.4,4c-1.3,0-2.4-0.7-2.5-1.8c-0.1-2,2.6-4.7,2.5-5.5c0-0.1-0.1-0.2-0.2-0.2
			c-0.5,0-2.5,2.9-4,5.2c-0.4,0.7-0.6,1-1.2,1c-0.5,0-1.6-0.6-1.7-1.9c-0.1-1.9,2.7-4.9,2.7-6c0-0.2-0.2-0.2-0.3-0.2
			c-0.5,0-2.7,3-4.3,5.9c-1.7,3.1-1.2,3.8-2,3.9c-0.6,0-1.9-0.8-1.9-2.2c0-0.1,0-0.1,0-0.2c-0.6,0.7-1.1,1.2-1.6,1.2
			c-1.4,0.1-2.2-1.5-2.3-2.2c-0.5,0-2.3,3.9-4.1,4c-1,0-2.4-0.3-2.5-2.5c0-0.1,0-0.3,0-0.4c-0.8,0.9-1.8,1.7-2.5,1.7
			c-1.2,0.1-2.3-0.9-2.3-2.2c-0.1-2.5,2.5-5,2.4-5.8c0-0.1-0.1-0.1-0.1-0.1c-0.4,0-4.4,3.9-6.1,7.1c-0.4,0.7-0.7,1.5-1.1,2.3H38v3
			h-4.1c-1.3,0-1.9,0.6-1.9,1.9V54h-3V33.4c0-1.3-0.7-1.9-1.9-1.9h-4.1c-0.3,0-0.1-3.1-0.2-4.1c0-0.7,0.1-1.5,0.3-2.4
			c-2.4,3-7,7.6-11.3,7.8c-3.4,0.1-7.2-2.6-7.4-7C3.9,15.5,13.9,5,20.7,4.7c3-0.1,4.4,1.7,4.5,4c0.1,3.4-4.2,6.6-5,6.6
			c-0.2,0-0.5-0.3-0.5-0.4c0-0.4,3.5-4.2,3.4-7.4c0-1-0.6-1.4-1.3-1.4C15.2,6.3,7.1,18.5,7.5,27.1C7.6,30.1,9.1,31,11,31
			c5.7-0.2,11.8-7.4,13-8.9C25.8,17.1,29.2,11,29,6.7c0-0.3,0.1-0.5,0.3-0.5c0.5,0,2.2,1,2.2,2.7c0.2,4.5-4.5,10.4-5.4,13.9
			c2.3-2.9,4.4-5.1,6.1-5.1c1.1,0,1.8,0.8,1.9,1.7c0.1,2-3.1,4.2-3.1,6c0,0.3,0.2,0.4,0.4,0.4c0.7,0,2.4-2.1,3.5-3.6
			c1.4-2.5,4.2-4.6,7.1-4.8c0.9,0,1.7,0.8,1.7,1.3c0,0.4-0.7,0.2-2,0.8c-3,1.4-5.4,6.1-5.4,7.2c0,0.2,0.1,0.3,0.2,0.3
			c0.7,0,3.9-4.4,4.7-5.7c0.4-0.6,0.7-1,1-1.1c0.6,0,1.3,0.7,1.3,1.3c0.1,1.3-1.4,2.7-1.4,3.2c0,0.2,0.1,0.3,0.2,0.3
			c0.7,0,2.3-2.2,3.3-3.6c0,0,0,0,0,0c0.6-1.1,1.1-2.3,1.3-3.4c0.1-0.6,0.2-0.7,0.4-0.7c0.6,0,1.2,0.7,1.3,1.5
			c0,0.8-0.9,2.9-1.2,3.5c0.6-0.9,4-6.1,5.6-6.2c0.9,0,2,0.9,2,2c0,1.1-1.1,2.1-1.5,3.7c0.1-0.2,2.5-3.5,3.8-3.6
			c0.9,0,1.7,0.8,1.8,1.8c0.1,1.4-2.5,3.7-2.4,5.6c0,0.2,0.2,0.4,0.3,0.4c1.1,0,3.7-4,4.8-5.5c0,0,0,0,0,0c1.1-2.5,3.5-4.3,5.1-4.3
			c0.8,0,1.9,1,1.9,1.9c0,2-2.1,4.4-3.8,4.4c-0.4,0-1-0.3-1-0.3S64,23.3,64,24.5c0,0.9,0.4,1.2,0.8,1.2c2-0.1,4.6-3.2,6-5.4
			c1.8-5.4,6.1-12,6.1-15c0-0.4,0.1-0.7,0.3-0.7c0.3,0,1.2,0.9,1.2,2.5c0.1,3.5-6.1,14.5-5.9,19.1c0,0.4,0.2,0.6,0.5,0.6
			c0.8,0,3.6-4.1,5.3-6.7c0,0,0,0,0,0c1.1-2.5,3.5-4.3,5.2-4.4c0.8,0,1.9,1,1.9,1.9c0,2-2.1,4.4-3.8,4.4c-0.4,0-1-0.3-1-0.3
			s-0.4,0.8-0.3,2.1c0,0.9,0.4,1.2,0.8,1.2c1.9-0.1,4.3-2.9,5.8-5v0c1.2-2.4,3.6-4.6,5.4-4.7c0.7,0,1.5,0.7,1.5,1
			c0,0.3-0.2,0.4-0.7,0.7c-1.8,1-4.6,4.3-4.5,7.2c0,0.4,0.2,0.6,0.5,0.6c1.2,0,4-4.1,3.9-6.8c0-0.2,0.1-0.3,0.2-0.3
			c0.4,0,1.1,0.5,1.2,1.6c0.1,2.1-3.2,6.5-5.7,6.6c-1.3,0.1-2.6-0.9-2.7-3c0-0.1,0-0.1,0-0.2c-1.4,1.7-3.1,3.4-4.4,3.5
			c-1.9,0.1-3.7-1-3.9-3.4C76.5,25.3,74.5,28,73,28.1z"/>
	</g>
	<g>
		<g>
			<path class="st4" d="M55.1,54h-6.2c-3.2,0-4.9-1.7-4.9-4.9V33.4c0-1.3-0.6-1.9-1.9-1.9h-1.3v-3h13.8v3H47v7.8h6.8v3H47v6.8
				c0,1.3,0.6,1.9,1.9,1.9h6.2V54z"/>
		</g>
		<g>
			<path class="st4" d="M70.8,52.9c-2.3,2.3-4.5,2.3-6.8,0l-3.8-3.8V33.3l3.8-3.8c2.3-2.3,4.5-2.3,6.8,0l3.8,3.8l-2.1,2.1l-3.7-3.7
				c-0.9-0.9-1.8-0.9-2.7,0l-2.8,2.8v13.2l2.8,2.8c0.9,0.9,1.8,0.9,2.7,0l3.7-3.7l2.1,2.1L70.8,52.9z"/>
		</g>
		<g>
			<path class="st4" d="M81.9,28.5v11h8.5v-6.1c0-3.2,1.7-4.9,4.9-4.9l0.7,0l-0.1,3l-0.6,0c-1.3,0-1.9,0.7-1.9,1.9V54h-3V42.5h-8.5
				V54h-3V28.5H81.9z"/>
		</g>
	</g>
	<g>
		<path class="st4" d="M93.3,17.9c-0.2,0-0.2,0.1-0.2,0.3c0,2.7-2.8,6.7-3.9,6.8c-0.3,0-0.5-0.2-0.5-0.6c-0.1-2.9,2.7-6.2,4.5-7.2
			c0.5-0.3,0.7-0.4,0.7-0.7c0-0.4-0.8-1.1-1.5-1c-1.9,0.1-4.2,2.3-5.4,4.7v0c-1.5,2.1-3.8,4.9-5.8,5c-0.4,0-0.8-0.3-0.8-1.2
			c-0.1-1.3,0.3-2.1,0.3-2.1s0.6,0.3,1,0.3c1.6-0.1,3.8-2.4,3.8-4.4c0-0.9-1.1-2-1.9-1.9c-1.7,0.1-4.1,1.9-5.2,4.4c0,0,0,0,0,0
			c-1.7,2.7-4.6,6.7-5.3,6.7c-0.3,0-0.5-0.2-0.5-0.6c-0.2-4.6,6-15.6,5.9-19.1c-0.1-1.6-1-2.5-1.2-2.5c-0.2,0-0.4,0.3-0.3,0.7
			c0.1,3-4.2,9.6-6.1,15c-1.4,2.2-4,5.3-6,5.4c-0.4,0-0.8-0.3-0.8-1.2c-0.1-1.3,0.3-2.1,0.3-2.1s0.6,0.3,1,0.3
			c1.6-0.1,3.8-2.4,3.8-4.4c0-0.9-1.1-2-1.9-1.9c-1.6,0.1-4.1,1.8-5.1,4.3c0,0,0,0,0,0c-1,1.5-3.7,5.4-4.8,5.5
			c-0.2,0-0.3-0.1-0.3-0.4c-0.1-2,2.5-4.3,2.4-5.6c0-1-0.9-1.9-1.8-1.8c-1.3,0.1-3.7,3.4-3.8,3.6c0.4-1.6,1.5-2.6,1.5-3.7
			c0-1.1-1.1-2-2-2c-1.6,0.1-5.1,5.3-5.6,6.2c0.3-0.6,1.2-2.7,1.2-3.5c0-0.8-0.7-1.5-1.3-1.5c-0.3,0-0.3,0.2-0.4,0.7
			c-0.2,1.1-0.8,2.2-1.3,3.4c0,0,0,0,0,0c-1,1.4-2.6,3.6-3.3,3.6c-0.1,0-0.2-0.1-0.2-0.3c0-0.6,1.5-1.9,1.4-3.2
			c0-0.6-0.6-1.3-1.3-1.3c-0.3,0-0.7,0.5-1,1.1c-0.8,1.2-4,5.6-4.7,5.7c-0.1,0-0.2-0.1-0.2-0.3c0-1.1,2.4-5.8,5.4-7.2
			c1.3-0.6,2-0.4,2-0.8c0-0.4-0.8-1.3-1.7-1.3c-2.8,0.1-5.6,2.3-7.1,4.8c-1.1,1.5-2.8,3.5-3.5,3.6c-0.2,0-0.3-0.1-0.4-0.4
			c-0.1-1.8,3.1-4,3.1-6c0-0.9-0.8-1.8-1.9-1.7c-1.7,0.1-3.8,2.2-6.1,5.1c0.9-3.6,5.5-9.4,5.4-13.9c-0.1-1.7-1.7-2.7-2.2-2.7
			c-0.2,0-0.3,0.2-0.3,0.5c0.2,4.3-3.2,10.4-5.1,15.4c-1.2,1.5-7.3,8.7-13,8.9c-1.9,0.1-3.4-0.9-3.5-3.8C7.1,18.5,15.2,6.3,21.7,6.1
			C22.5,6,23,6.4,23,7.4c0.1,3.2-3.4,7-3.4,7.4c0,0.1,0.3,0.5,0.5,0.4c0.8,0,5.2-3.2,5-6.6c-0.1-2.3-1.4-4.1-4.5-4
			C13.9,5,3.9,15.5,4.3,25.6c0.2,4.4,4,7.2,7.4,7c4.3-0.2,8.9-4.8,11.3-7.8c-0.2,0.9-0.3,1.7-0.3,2.4c0,1-0.2,4.2,0.2,4.1H27
			c1.3,0,1.9,0.6,1.9,1.9V54h3V33.4c0-1.3,0.6-1.9,1.9-1.9h4.1v-3H24.2c0.3-0.8,0.7-1.6,1-2.3c1.7-3.2,5.7-7.1,6.1-7.1
			c0.1,0,0.1,0.1,0.1,0.1c0,0.7-2.5,3.3-2.4,5.8c0,1.2,1.1,2.2,2.3,2.2c0.7,0,1.6-0.8,2.5-1.7c0,0.1,0,0.3,0,0.4
			c0.1,2.3,1.5,2.6,2.5,2.5c1.8-0.1,3.6-4,4.1-4c0,0.7,0.9,2.3,2.3,2.2c0.4,0,1-0.5,1.6-1.2c0,0.1,0,0.1,0,0.2
			c0.1,1.3,1.3,2.2,1.9,2.2c0.7,0,0.2-0.8,2-3.9c1.6-3,3.8-5.9,4.3-5.9c0.1,0,0.3,0.1,0.3,0.2c0,1.1-2.7,4.1-2.7,6
			c0.1,1.2,1.2,1.9,1.7,1.9c0.5,0,0.7-0.3,1.2-1c1.5-2.3,3.5-5.1,4-5.2c0.1,0,0.2,0.1,0.2,0.2c0,0.8-2.6,3.5-2.5,5.5
			c0,1,1.2,1.8,2.5,1.8c1.3-0.1,3.1-2.2,4.4-4v0.2c0.1,2.4,2,3.5,3.9,3.5c1.4-0.1,3.4-2.1,4.8-3.9c-0.1,0.5-0.1,1-0.1,1.5
			c0.1,2.5,1.8,3.6,2.9,3.6c1.6-0.1,3.5-2.8,5-5.2c0.1,2.4,2,3.4,3.9,3.4c1.3-0.1,3.1-1.8,4.4-3.5c0,0.1,0,0.1,0,0.2
			c0.1,2,1.4,3,2.7,3c2.5-0.1,5.7-4.5,5.6-6.6C94.5,18.4,93.8,17.8,93.3,17.9z M84.2,17.2c0.1,0,0.2,0.1,0.2,0.2
			c0,0.8-2.4,3.3-3.2,3.4C82.5,18,83.8,17.2,84.2,17.2z M67.7,17.8c0.1,0,0.2,0.1,0.2,0.2c0,0.8-2.4,3.3-3.2,3.4
			C66.1,18.6,67.4,17.8,67.7,17.8z"/>
	</g>
	<linearGradient id="SVGID_3_" gradientUnits="userSpaceOnUse" x1="0.3226" y1="46.1775" x2="16.2267" y2="46.1775">
		<stop  offset="0" style="stop-color:#F27405"/>
		<stop  offset="0.5066" style="stop-color:#F27405"/>
		<stop  offset="0.9191" style="stop-color:#F24405"/>
	</linearGradient>
	<rect x="0.3" y="38.2" class="st5" width="15.9" height="15.9"/>
	<g>
		
			<image style="overflow:visible;opacity:0.5;" width="124" height="82" xlink:href="2244D7D1.png"  transform="matrix(1 0 0 1 -12.2786 -13.2786)">
		</image>
	</g>
</g>
</svg>
