<?xml version="1.0" encoding="utf-8"?>
<!-- Generator: Adobe Illustrator 24.3.0, SVG Export Plug-In . SVG Version: 6.00 Build 0)  -->
<svg version="1.1" id="Layer_1" xmlns="http://www.w3.org/2000/svg" xmlns:xlink="http://www.w3.org/1999/xlink" x="0px" y="0px"
	 viewBox="0 0 32 32" style="enable-background:new 0 0 32 32;" xml:space="preserve">
<style type="text/css">
	.st0{fill:#FFFFFF;}
	.st1{fill:#2168A6;}
	.st2{fill:none;stroke:#F20505;stroke-width:0.4844;stroke-miterlimit:10;}
</style>
<g>
	<path class="st0" d="M26.9,24.1c-1.4,0.9,1.9,1.2,5.1,1.7v-2.4c-0.2,0.1-0.4,0.1-0.6,0.2C29.1,24.1,28.4,23.1,26.9,24.1z"/>
	<path class="st0" d="M24.1,3.7c-3.8,0.9-4.9,1.6-6.2,3.1c-1.4,1.6-4.7,5-6.6,5.7c0,0,3.5-1.2,5.7-3.1c2.3-1.9,1-3.1,4.2-3.5
		C24.3,5.6,26,5.4,28.6,5c1-0.1,2.2-0.4,3.4-0.8V1.9c-0.1,0-0.2,0-0.3,0.1C28.8,2.6,27.9,2.8,24.1,3.7z"/>
	<path class="st0" d="M26.2,16.7c4-0.7,3.8-3.6,3.8-6.2c0-2.6-2.6-2.9-3.5-2.9c-3.1,0-6.8,3.8-6.8,5.9S22.2,17.4,26.2,16.7z
		 M25.7,9.4c0,0,1.8,0,1,1.3c-0.8,1.3-2.8,0.5-2.8,0.5S22.1,8.6,25.7,9.4z"/>
	<path class="st0" d="M32,19.9v-2.5c-1.1,0.7-2.2,1.4-2.9,1.5C27.5,19.2,29.9,20,32,19.9z"/>
	<path class="st0" d="M21.5,24.5c-3.3-2.3-5.2-1.2-10.2-2.4c-5-1.2-6.2-1.6-6.2-1.6c0.2,0.7,4.5,2.9,6.9,3.5
		c2.4,0.5,4.7,1.6,7.6,2.4c2.9,0.9,4,2.4,6.8,4.5c0.6,0.4,1,0.8,1.4,1.1H32v-2.4c-0.7-0.2-1.6-0.3-2.2-0.3
		C28.4,29.3,24.8,26.7,21.5,24.5z"/>
	<path class="st0" d="M6.9,26.4c0,0-6.1-6.6-5.6-8.5c0.5-1.9,5-4.5,8.7-6.1c3.7-1.6,4.8-5.3,6.6-7.7c1.8-2.4,6.8-1.3,10.5-4.2H0v32
		h18.5C14.5,30.1,10.3,28.1,6.9,26.4z"/>
	<path class="st1" d="M16.7,4.2c-1.9,2.4-2.9,6.1-6.6,7.7c-3.7,1.6-8.2,4.2-8.7,6.1c-0.5,1.9,5.6,8.5,5.6,8.5
		c3.4,1.7,7.6,3.7,11.7,5.6h9.2c-0.4-0.3-0.8-0.7-1.4-1.1c-2.8-2.1-3.8-3.6-6.8-4.5c-2.9-0.9-5.2-1.9-7.6-2.4
		c-2.4-0.5-6.8-2.8-6.9-3.5c0,0,1.2,0.3,6.2,1.6c5,1.2,6.9,0.2,10.2,2.4c3.3,2.3,6.9,4.9,8.3,4.9c0.6,0,1.5,0.1,2.2,0.3v-3.8
		c-3.3-0.5-6.5-0.8-5.1-1.7c1.6-1,2.3,0,4.5-0.5c0.2-0.1,0.4-0.1,0.6-0.2v-3.5c-2.1,0.1-4.5-0.7-2.9-1c0.7-0.1,1.8-0.8,2.9-1.5V4.3
		c-1.2,0.4-2.4,0.6-3.4,0.8c-2.6,0.3-4.3,0.5-7.5,0.9C18,6.3,19.2,7.5,17,9.4c-2.3,1.9-5.7,3.1-5.7,3.1c1.9-0.7,5.2-4.2,6.6-5.7
		c1.4-1.6,2.4-2.3,6.2-3.1c3.8-0.9,4.7-1,7.6-1.7c0.1,0,0.2,0,0.3-0.1V0h-4.8C23.5,2.8,18.5,1.8,16.7,4.2z M26.5,7.5
		c0.9,0,3.5,0.3,3.5,2.9c0,2.6,0.2,5.6-3.8,6.2c-4,0.7-6.4-1.2-6.4-3.3S23.4,7.5,26.5,7.5z"/>
	<path d="M26.7,10.7c0.8-1.3-1-1.3-1-1.3c-3.6-0.8-1.8,1.8-1.8,1.8S25.9,11.9,26.7,10.7z"/>
</g>
<rect x="0.5" y="0.5" class="st2" width="31" height="31"/>
</svg>
