<svg id="Layer_1" data-name="Layer 1" xmlns="http://www.w3.org/2000/svg" viewBox="0 0 475.07 192.23"><defs><style>.cls-1{fill:#2168a6;}.cls-2{fill:#f20505;}</style></defs><path class="cls-1" d="M30.85,190c6.9-1,12.14-5.23,21.8-4s20.57,5.26,22.8,2.64.68-5.67-8.92-4.07c-4,.67-7.19.24-5-1.42s8.67-7.84,15.86-9.51,30.47-11.16,33.2-15a21.41,21.41,0,0,0,1.37-2.25l2.81,1.05c5,3,10.37,5.51,13.34,7.56,0,0-1.57,4.95-2.87,9.38s1.56,6,.52,10.16a23.12,23.12,0,0,1-.7,2.47c-2.27,1.09-5.52,2.53-8.72,1.24-4.75-1.92-15.27-8-17.9-6.27s-2.62,4.75,2,5.66c.82.16,1.54.33,2.19.5A22.14,22.14,0,0,0,100,188c-4.94,0-9.09.22-9.63,3.65-.79,5,4.42,6.25,9.63,5s18-4.69,24-4.69,14,.43,19.28,2.08c8.14,2.53,12.75.93,13-2.2s-6.76-4.57-10.93-3.53-9.9,2.35-10.68.78-.52-6.51,3.39-9.63c3.24-2.6,6.29-10.91,5.16-15.17a250.42,250.42,0,0,0,35.56-.32,15.09,15.09,0,0,0-.09,3.24c.06.78,14.59,9.38,19.8,13.29a12.83,12.83,0,0,1,3.31,3.21c-1.11.71-3,1.35-6.33.87-6.19-.92-17.67-5.29-20.22-3.1a3.21,3.21,0,0,0-.08,4.9c-3.76.87-7.53,2.36-5.57,5.48,2.6,4.17,7.79,2.18,12,.36s19.27-4.69,25.79-4.69,20.79,3.06,23.7,3.13c5.24.11,6.33-8.82-2.23-7.36-5.42.92-13.14,1.89-17.31.58S198,172.06,195.09,168.16s3.65-7,10.42-6,37.25-2.86,42.72-6c1.83-1,3.71-3.57,4.82-6.57,4.62-1,8.12-1.79,11.11-2.74,1.1-.35,2.33-.68,3.64-1,0,1.72,1.39,3.74,6.74,5.11,10.16,2.61,28.4,20.84,28.92,25.27s2.42,5-3.59,5.15c-5.06.15-15.85-.18-15.12,5.1.5,3.65,3.5,3.93,10,2.37s10.33-4.37,15.85-4.56,32.86,2.66,36.08,4.44c5.46,3,8.2-7.9,1.3-8.85a33.8,33.8,0,0,0-6.07.07c1.88-1.19,2.94-2.63,2.4-4.4-1.2-4-4.12-3.32-8-1.46-7.46,3.57-20.13,5.11-27.06,4.12a5.82,5.82,0,0,1-2.15-4.06c-.62-4.56-8.64-25.07-18.32-33.3a35.69,35.69,0,0,0,8.81-3.94c8.36-5.57,31.25-11.55,46.82-22.36C371.31,95.88,392.85,67.37,400,59s33.11-32,37.34-34.64a27.26,27.26,0,0,1,27.8-1.28c13.53,6.76,12.33,24.67,5.57,30.64,0,0-4.77,5.69-11.91,5.67-4.8,0-12.28.22-16.66-8.94a14.32,14.32,0,0,1,5.09-17.82c4.71-3.28,12.69-2.21,16.08,3.08,2.59,4.05.14,14.84-7.29,12.4-6.59-2.17,1.65-8.07,1.13-9.19-.85-1.85-5.37-1.5-7.14,1.27-4.22,6.62-1.71,13.3,6,14.34,8.45,1.14,13.1-6.38,13.1-6.38,8.35-16.32-4.31-24.48-16-24.24-12,.25-20.5,9.22-23.05,20.26-3.41,14.78,7.84,28.21,25,31S489,68.46,492.21,50.55s-8-33-17.87-40.2-25.79-6.67-34.95-2.69S405.11,26.8,392,36.56c-22.67,16.89-60.49,46.06-71.13,52.68-8.62,5.36-22.5,12.25-22.5,12.25a42.18,42.18,0,0,1-13.6,2.17l.18-.11a57.57,57.57,0,0,0-4.69-3.9c-1.56-1.05,1.31-2.35,1.31-2.35a31.13,31.13,0,0,0-6.52.26c-2.6.52-3.12-.78-3.12-2.08s2.6-3.13,2.08-3.39-7-.52-8.6,0-3.38.78-3.12-.52a29.3,29.3,0,0,1,2.08-4.69c-2.34-1.56-12.5.52-15.63.26s4.17-6,.78-6.25-12.24.26-13.28,0,2.34-5.21,2.34-5.21c-1.3-1-10.15,2.61-13.54,2.61s4.43-3.91,1.3-5S213.59,76.46,211,77s2.87-6.77,2.87-6.77a11.5,11.5,0,0,0-5.73,0c-3.39.78-11.46,6.77-14.33,7s3.65-6.77,3.65-6.77-.26-1-4.95.52-12.77,10.68-13.81,9.12,3.13-9.9,3.13-9.9c-3.13,1.3-14.59,10.42-16.41,12.24s-3.65,1.83-4.17-.52,1.82-8.07,1.82-8.07c-4.43,1-15.11,13.54-15.11,13.54-1.56-1.82,1.05-7.55,1.05-7.55-3.39.78-8.6,8.6-11.73,12.76a12.06,12.06,0,0,1-7.55,4.69,10.41,10.41,0,0,0-4.33,3.46,4.64,4.64,0,0,1-1.32-.07c-3.58-.79.8-5.17,2.39-10s.8-9.15-5.57-6.76a96.08,96.08,0,0,1-17.51,4.78C97,90,94.21,90,88.64,94.33s-13.13,2.78-15.92,6.36-4.38,9.16-9.95,11.55-12.34,6.36-13.13,9.15S58,134.13,58,134.13c11.55,5.57,28.66,13.93,37,16.31.71.21,1.5.45,2.33.72-1.66,3.47-6.67,3.79-11,6.56s-22.3,16.86-26.76,19.95a30.32,30.32,0,0,1-5,2.66c0-.11-.14-.18-.5-.18,0,0-7.54,1.5-13.45.79-11.47-1.38-14.22-7.31-19.18-3.76-4,2.86,0,4.15,3.16,5.34,1.15.44,1.92.76,2.5,1-4.55-.09-8.55.14-9.07,1.38C17,187.27,17.43,192,30.85,190ZM435.34,42.18c-1,.51-2.67.51-3.18,0s.53-3,1.15-2.8S436.36,41.68,435.34,42.18Zm17.2.39c.51.25.63,1.27-.13,1.91S452.54,42.57,452.54,42.57ZM451,51c-.89-.38-.77-2.29-.13-2.16C451.28,48.89,451.9,51.35,451,51Zm.89-10.44c-.89-.26.52-1.85,1-1.27C453.68,40.15,452.79,40.78,451.9,40.53Zm4,10.32c-.89-.51.12-1.79.63-1.28C456.48,49.57,456.74,51.35,455.85,50.85Zm11.33-16.94c-1.14-.64-1.27-.77-.76-1.53s.89-1.78,1.78-.89c.45.45,2.16,1.78,1,1.91S468.33,34.54,467.18,33.91Zm-1,6.62c-.51-.38-1.4-2.93,0-2.17l.38.51C466.8,39.26,466.67,40.91,466.16,40.53ZM466,49.06c.25.38-.9,1.4-2,1.66s-.89-1.91-.38-2.42S465.74,48.61,466,49.06Zm-6.75-19.87c.25-.76,1.78,1.28,1.78,1.28C460.69,30.6,459,30,459.29,29.19Zm-10.45-3.31c.13-.51,4-.76,4-.76.89.38.13,3.31-.64,2.93s-.89-.76-1.27.13S448.72,26.39,448.84,25.88Zm-8.28,7.26c1,.38,3.19-1.14,3.19-.12,0,0-1.15,3.43-1.91,2.8S439.55,32.76,440.56,33.14ZM443,55.81c-.51.89-3.56,0-3.69-1s.77-.76-.38-2.16.76-1.28,2.16-.38S443.3,55.26,443,55.81ZM455.21,73c-.31.23-5.35-.38-5.48-1.65s1.4-5.48,2-4.33.51,2.93,1.4,1.91S456.1,72.37,455.21,73Zm11.33-10.06c-1.14-.51-.12,1.4-.76,2s-3.95-4.46-2.93-4.58,4.23-2.21,4.71-1.91C468.84,59.25,467.69,63.45,466.54,62.94Zm16.81-33.62c-1,.13-3.43-.12-2.67-1.4s-1.91.26-1-1.78,2.68-4.46,3.82-3.57a7.41,7.41,0,0,1,2,3.44A2.8,2.8,0,0,1,483.35,29.32Zm-5.22,33.75c.13-1.4.54-1.87,2.68-2.29a2.23,2.23,0,0,1,2,2.8c-.51,1.91-1.15,1.66-3.57,2.16S478,64.47,478.13,63.07Zm.51-20.89c.64-1,3.95,1,3.95,1s-1.91,3.06-3.95,1.79S478,43.2,478.64,42.18ZM463.49,20c1-.9,1.78-4.72,2.67-4.21s-.89,3.19.13,2.55,1.4-.89,1.53.13c0,0,.89,3.69-.26,3.56S462.47,20.92,463.49,20ZM454.06,7.67c1.15-.76,5.23.64,5.23.64.76.38-1.41,3.82-2.55,2.67s-.64.39-1.15,1.53-1.27-.25-1.91-1.65S452.92,8.44,454.06,7.67ZM434.71,17.1c.51-1.53,2.29-2.3,3.18-.51s1.53,1.78,1.15.38,0-5,.76-3.19,1.27,4.08,1.78,2.81.77-1.28,1.28-.51,3.05,1.4,2.8,2.16-6.11,3.44-7.51,3.44S434.2,18.62,434.71,17.1Zm-9,4.33c.13,1,1.15,2.29,0,2s-2.92-2.54-4.2-3.31,2.29-2,3.57-2.29a20.76,20.76,0,0,0,4.33-2.29c.76-.26.63,2.16,1.14,3.31s-.89.76-2.29.13-.38.76,1,2.29-.64,2.29-1.78.76S425.54,20.41,425.66,21.43ZM413.25,39.22c1-.4-.6-.8-.2-3.2s.4-3.6,2.2-2,3,1,2-1.2-1.8-7.21.8-4.81,2.61,5,4,2.41,3.6-1.41,4.6-.2c0,0-13.61,13-14.61,12S412.25,39.62,413.25,39.22Zm-17.81,3.4c-.8,1.8-3.8-.4-3.8-1.6s15.71-11.58,15.71-11.58c.8-.6-.1,4.38.3,8.78s-1.4,1.6-3.4-.6-2.8-.2-1.8,3.8-2,1-4-.2S396.24,40.82,395.44,42.62Zm-9,16.41c3,.6-.8-4.2-2-6.6s3.4-.4,5.4.8-1-2.8-.4-5.2,7.2,6.2,7.2,6.2c-1.4,3.8-10,10.81-11,12s-.8-.79-2.6-4.8S383.44,58.43,386.44,59ZM367,72c-3.13-1.82-1.57-1-2.35,1.83s-3.65-1.56-5.21-3.13-1.82.52-2.34-1.82,16.41-14.33,16.41-14.33c-2.35,1.3-.26,6,2.34,10.16s0,4.17-2.34,1.82-4.43-.52-2.87,2.87S370.14,73.86,367,72ZM352.69,93.92c0-2.61-5.21-9.12-2.35-7.56s6.78,8.08,6,4.43S353.47,86.1,353,83.5s-2.35-6.52,1.56-2.61,5.73,6.25,6.51,4.69,5.73,1.82,5.21,3.39c0,0-12.24,12.5-13.54,11.2S352.69,96.52,352.69,93.92Zm-231.84-.79c1.83-2.6-3.38-2.34-5.47-2.6s-5.21,5-10.42,7S94.54,101.47,90.64,102s-6.52.78-11.2,1.3-2.87,2.35-6.26,5.21a31.78,31.78,0,0,1-8.59,4.69c2.86-1,7.81-6.25,9.9-8.59s3.64-3.39,9.37-4.69,7-1.57,11.47-2.61,8.59-1.82,14.06-6.25,8.34-2.34,12.24-1.82S120.85,93.13,120.85,93.13ZM87.51,105.64c1.33,0,5.21.52,5.21,4.43S93,118.4,87,119.44s-9.64-1.82-9.64-5S82.82,105.64,87.51,105.64Zm23.06,4c-1.25,0-1.25.41-3.32-1.67s-2.91-7.06-.84-6.23a21.4,21.4,0,0,1,4.16,3.74C112.23,107.53,111.81,109.61,110.57,109.61Zm4.57-12.47,2.07,5.4s-.41,3.33-1.66,2.5-1.66-4.16-3.32-4.16S112.65,95.9,115.14,97.14Zm-8.31,15.79c-.42,1.66-2.49,1.66-5.4,0s-.83-3.32.41-4.15S106.83,112.93,106.83,112.93Zm15.59-6.77c-2.61,1.56-7,3.65-8.6,9.64s2.08,16.41.78,16.93-1.82,1.82-3.12-2.61-.27-10.94-1.57-9.37-1.3,7.55-1.56,4.16-.78-7,1.82-9.89,12-11.73,11.2-10.68C121.37,104.34,125,104.6,122.42,106.16Zm6.84,4.69c-2.49,0-2.91-2.07-1.24-2.91a53.64,53.64,0,0,1,5.81-2.07C135.49,106.28,131.75,110.85,129.26,110.85Zm4.16,7.9c-2.08,0-7.9-.42-4.57-2.08,0,0,1.24-2.91,3.32-1.66S135.49,118.75,133.42,118.75Zm137.3-17.66s-9.45-3.78-18.35-7.29l-5.81-2.28c-3.9-1.53-7.16-2.79-8.7-3.34-5.48-2-12.91-.78-27.38-2.73s-16.43-.39-24.64.39-12.52,1.56-24.25,5.08c-2.28.68-4.43,1.29-6.43,1.83-2.9.78-5.46,1.41-7.58,1.9-4,.92-6.33,1.36-6.33,1.36,7.43-1.57,25.81-8.61,25.81-8.61,1.4-.57,2.8-1.08,4.2-1.56,11.57-3.93,23-4.65,33.4-4.15,11.28.54,21.28,2.5,28.82,3.31l.47.06c10.22,1,23.23,7.88,30.72,12.28C268.36,99.51,270.72,101.09,270.72,101.09ZM165,98.81c-2.08-.83-1.25-1.67,1.24-2.91s5.87,0,7.48.41-1.25,3.33-4.15,2.91S167.06,99.64,165,98.81Zm6.23,6.23s2.49,5.4.41,5.4S166.65,103.38,171.22,105ZM205,114.49c2.09,3.91.52,12.51,2.35,9.12s2.86-13.54,3.38-10.68.26,7.3,1,3.91,7.56-10.94,7.82-9.38c.19,1.15.26.52-2.35,5.47s-4.95,10.16-4.95,13-1,6.77,1.05,3.64,6-6.25,4.42-3.12-4.16,8.85-3.64,10.42,2.6.78-2.61,2.08-14.84,6.51-16.15,4.43-2.6-9.12.52-6.77,6.52,8.85,5.21.52S202.91,110.59,205,114.49ZM201.54,110c-3.32,0-2.07-5,0-3.74C202.83,107.05,204.87,110,201.54,110Zm15.37-14.54c1.25-.83,5.37.42,8.31.42,1.66,0-2.49,4.15-7.06,3.32S215.67,96.31,216.91,95.48Zm22.73,23.7c.78,7,3.9,14.33,1.3,11.73s-5.73-6-6-4.17.26,3.38-3.13.78-1.07,1.73-3.41,1.73-4.06.16-.67-11.56,3.17-24.93,5.78-24.67c2.09.21,2.21-1.19,7.68.64s7.55-.26,8.6,3.38.33,4.45-3.83,7.31S238.85,112.15,239.64,119.18Zm9.26-11.65c-.83-3.32,3.74.41,3.74.41C253.47,108.78,249.73,110.85,248.9,107.53Zm2.49,10s.83,4.15-1.24,3.74S249.31,115.84,251.39,117.5Zm19.53-5.4c-1.67-1.66,2.9-6.23,4.57-2.91C276.25,110.72,272.58,113.76,270.92,112.1ZM330,102.77c-3.13,1.57-4.43-2.86-6.78-4.43s-3.12-.52-3.9-2.6,14-10.68,14.06-9.9c.58,5.84,2.87,6.51,6.25,10.94s-1,2.87-3.64,0-2.61-.52-1.57,2.35,5.47,5.47,3.91,6.51S333.15,101.21,330,102.77Zm-16.42,8.86c1.83.52-.78-2.35.53-4.43s5.21,3.65,8.59,7.56,7.64,2.36,7,2.86c-4.69,3.91-15.11,8.86-17.2,8.6s.52-5.73.52-9.38-1.82-2.87-2.86-6.51S311.79,111.11,313.61,111.63Zm-25.26,11.46c-1.3-3.91-3.39-8.33-3.39-5.21s2.87,11.46-1,7-7-13.8-4.69-15.89,3.39-3.38,6.25-3.38S298.2,105,298.2,105s3.17-2,2.91.1-2.6,4.16-2.34,8.59,2.6,8.34,3.38,10.42,1.57,3.39.78,3.91-1.56,3.65-4.42.52-7-8.33-7-6.25S289.65,127,288.35,123.09Zm-34.13,3.13c3.39-.52,3.91-1.31,3.13-6.25a106.6,106.6,0,0,1-1-15.37c0-4.43,2.86,2.86,5.21,5.47s.26-3.13.78-6.26,1.63,1.42,2.86,1.83c.79.26,3.13,16.67,5.21,21.62s7,5.47,14.59,7.55c5.75,1.59,4,2.81.92,4-.95.37-2,.74-3,1.11-4.17,1.56-7.81.88-11.71,2.45-.88.35-1.72.66-2.52.92-2.75.88-5,1.13-6.6.12-2.09-1.3-6-8.6-9.9-12.24S250.84,126.74,254.22,126.22ZM236,135.92c-5.11-.22-11.55.89-9.33-.45a12.79,12.79,0,0,1,5.6-1.65,16.93,16.93,0,0,1,4.28.22l.57.1c6.44,1.33,14,4.89,14.22,11.34a6.26,6.26,0,0,1-.75,4.64,9.19,9.19,0,0,1-.8,1.14,5.86,5.86,0,0,0,.29-1c.3-1.61.36-4.95-3-8.75C243.14,137,241.08,136.14,236,135.92Zm7.46,15.66a12.85,12.85,0,0,0-.12-2.33c-.56-3.89-6.67-8.24-10.36-9.71-1.13-.34-1.87-.51-1.87-.51a7.07,7.07,0,0,1,1.87.51c2.53.78,7,2.43,9.47,5.05a12.54,12.54,0,0,1,3.13,6.55c.32,2.2-.12,4-1.35,4.34C242.19,156,243.31,154.64,243.42,151.58Zm-18.9-9c-2.1-1.05-4-1.25-5.24-2.3s1.66-1.42,2.31-1.26c.83.21,6.49,3.14,8.59,5.45a35.09,35.09,0,0,1,4.61,6.49c.51.82.94,1.53,1.29,2.15,1.12,1.94,1.49,3,1,3.3-.31.21-1.69-1.12-3.2-2.83a45.49,45.49,0,0,1-3.92-5.13C228.29,145.73,226.62,143.63,224.52,142.58Zm-11.1,3.36c-2.94-1.89-3.57-1.26-4.2-2.52s3.16-1.17,3.78-1c1,.21,8.59,6.5,10.89,8.59a6.73,6.73,0,0,1,2.06,4.35,5.88,5.88,0,0,1,0,.89s-.36-.26-.91-.69A35.44,35.44,0,0,1,221,151.8,37.85,37.85,0,0,0,213.42,145.94Zm-11.95,4c-2.72-1.68-5-1.68-4.82-2.31s3.77-.63,3.77-.63c1.68-.21,8.18,4.61,10.06,7.34a9.1,9.1,0,0,1,1.65,4.19,4.47,4.47,0,0,1,0,.84l-.75-.67c-1.14-1-3.29-3-4.49-4.15A24.73,24.73,0,0,0,201.47,149.92Zm-11.73,5.44c-4-1-3.14-.62-3.35-1.46s2.09-1.68,2.09-1.68c1.05-.21,7.33,2.52,9.85,4.19s2.09,3.77.84,2.94A39.06,39.06,0,0,0,189.74,155.36Zm-9.64,5.24c.63-1,2.51,0,5.45,0a10.54,10.54,0,0,1,5.13,2,17.39,17.39,0,0,1,1.57,1.14c1.47.83-.84.62-2.93.21a8.71,8.71,0,0,1-2.33-.89,7.62,7.62,0,0,0-2.7-1c-1.89-.21-1.89.21-3.56.63S179.47,161.65,180.1,160.6ZM175,142.37l-1.3-7c-1.3-7,0-13,.78-18.23s9.9-20.58,12.51-23.7,5.21-3.13,11.72-2.61a41.93,41.93,0,0,0,14.07-1,3.83,3.83,0,0,1,4.42,1.56s-7.81,3.39-9.37,6.25-4.17,2.35-7,2.61-13.54,11.46-15.63,15.11-.78,6.25-.52,10.68-3.38.52-3.38.52c-1.31,1-.26,6,2.6,11.72s2.09,4.17,1.82,7.81-2.86-.52-4.16-4.95-1.57-.26-1.57,3.13,2.09,4.69,1.05,7S175,142.37,175,142.37Zm-17.1-31.1c1.66-7.48,5-8.31,3.73-2.91s-1.24,12-.41,13.71,1.24-2.91,1.66-6.65,3.74-4.57,2.08,1.66-2.08,6.65-1.25,12,2.91,11.22,2.91,7.89-1.66-15.37,0-11.21a34.77,34.77,0,0,1,2.91,12.88c.41,6.23.41,10,3.32,12.46s6.65,5,2.08,6.64a25.89,25.89,0,0,1-2.84,1.52c-1.9.87-4.32,1.65-5.89,1-2.89-1.24-6.6-11.92-8.27-18.17l0-.11C156.26,135.78,156.26,118.75,157.93,111.27ZM149,149.92c-2.35-6-1.31-10.16-3.91-10.42s-2.09,1-1.82,3.13-.27,4.69-1.57,1-2.34-7.55-2.86-5.73,3.12,10.42.26,6.77-3.13-3.12-3.39-9.38,3.13-18.23,3.65-23.44,0-8.86-1.83-9.38c0,0-3.9-1.56.53-2.6S155,93.4,155.76,94.7c0,0,2.34-1,2.34.52s-.26,3.12-2.34,6.51a21.26,21.26,0,0,0-3.13,10.68c-.26,4.17,1,8.6.26,11.46s-1,6.25-2.86,6.25-3.13-1.3-2.61,2.09,3.13,15.37,5.47,17.71,5.47,6.51,2.35,4.69S151.33,155.91,149,149.92Zm-13.71,5c-5.53-8.21-10.16-16.41-9.63-13.91s.9,3-.89,1.25-4.28-5.18-3.39-5.18c0,0,2.68,0,.54-2.67s-3-6.78-3-10.53.71-3,2.14-1.6-1.43-2,.17-4.82,2-3.92,2.5.72.89,15.51,3,18.55,1.79,1.6,1.25-1.25.71-9.28,1.25-4.82,2.14,12.49,3.92,15.16,10,12.67,13,14.27,4.82,3.21,3,3-2.68.72-4.29-.53S140.81,163.15,135.28,155Zm2.62,11c-1.32-.1-1,.1-3.44,0s-2.43-.3-4.75.3-.61-.81-.2-1.21,2.73-.41,5.05-.3,5.66.6,6.17.6l.3-.2C141.84,165.13,139.21,166,137.9,165.94Zm-8.5,9.1c1.82.3,5.77,1.21,5.77,1.21.6.2-2.23,1-4.25.51s-2.12-.51-3.84.1-.91-.71-1-1.21S127.59,174.74,129.4,175Zm2.94-5.16c1.72.41,5.75,1.45,6.57,1.72s-1.92,1-4,.51a14.66,14.66,0,0,0-3.64-.51,9.86,9.86,0,0,0-3.43,0c-1.92.2-.41-1.21,0-1.72S130.62,169.48,132.34,169.88ZM126.17,161c0-.81,2.33-.91,5.36-1.32a26.31,26.31,0,0,0,3.64-.61c.71-.1.2.91-1.52,1.32a21.73,21.73,0,0,0-3.74.91A16.48,16.48,0,0,0,128,162a5.68,5.68,0,0,0-.7.47c-.74.58-1-.26-1.09-1C126.18,161.3,126.17,161.13,126.17,161Zm-4.55-3.75c.71-.7,2.12-1,4.35-1.11s4.85-.2,5.15-.2h.41a31.13,31.13,0,0,1-6.27,1.92c-2.33.4-.71.2-1.92.71s-.34,1.12,0,2a1.42,1.42,0,0,1,.11.35c.2,1-.91-.1-1.72-.5a1,1,0,0,1-.46-.57A2.78,2.78,0,0,1,121.62,157.24Zm-2.7-3.55c3.1-2.31,7.77-.1,6.7,0-4.4.42-4,.63-6.28,1.88s-.21,1.47-1.47,1.47S117.1,155,118.92,153.69Zm-4.76-3.09a12.92,12.92,0,0,1,2.24-.68,14.54,14.54,0,0,1,5.66,0c.84-.21-1,1-3.56,1.25s-1.47.21-3.56,1.47-.84,1.26-1.26,2.31c-.2.49-.58.37-1,0a4.07,4.07,0,0,1-.93-1.88C111.64,152.16,112.56,151.27,114.16,150.6ZM108.65,148c.62-1,2.07-1.87,5.36-2.09h.09a15.34,15.34,0,0,1,5.65.62,20.7,20.7,0,0,1-5.23.84h-.15c-2.36,0-2.41.87-4.46,2.93a5.31,5.31,0,0,0-1.12,1.33c.09.07-.06.15,0,0s-.13-.08-.35-.08C107.39,151.59,108,149.08,108.65,148Zm-1.5-5.81.45-.27c3.15-1.67,5.66-1.67,9-.83s4.42,1.48,5,2.09-3.77,0-6.08.21-2.72-.42-5.44-.42h-.49c-2.16.11-1.65,1-2.24,2.93s-1.67,2.3-1.67,2.3C103.93,147.25,104.41,144,107.15,142.22Zm-4-18.87a25.22,25.22,0,0,0-6,.78c-3.39.78-8.6-.78-5.73-1.3s9.38-6.77,10.94-4.17l.52,1C103.14,120.75,106.27,123.09,103.14,123.35Zm-5.21,10.16c-5.47-1-12.24-1.3-9.9-2.86s3.39,0,6.77-.79,3.91-2.08,4.69-1.3c0,0,1.83,1.82,1.83,3.13S103.4,134.55,97.93,133.51Zm-2.6,12.24c-4.17-1.3-3.91-1.82-8.08-4.95s-5.73-5.47-10.16-6.77-7.81-2.86-11.46-3.65-10.16-4.16-10.42-5.2c0,0,1.82.52,9.38,2.34S75,127.78,80,131.17s10.42,7.29,12.5,7.29,5.73.52,5.73,2.6C98.19,141.06,99.49,147.06,95.33,145.75Z" transform="translate(-17.69 -4.79)"/><path d="M86.23,108.53s2.66,0,1.52,1.9-4.19.77-4.19.77S80.89,107.39,86.23,108.53Z" transform="translate(-17.69 -4.79)"/><path d="M236.27,122.79l.07.22A1.8,1.8,0,0,1,236.27,122.79Z" transform="translate(-17.69 -4.79)"/><path d="M146.38,133.51a6.3,6.3,0,0,1-1.27-3.9c.08.18.15.36.23.53C146.25,132.27,147,134.09,146.38,133.51Z" transform="translate(-17.69 -4.79)"/><path class="cls-2" d="M260,129.1c2.29,0,1.91,1.15,1.52-3s-1.52-9.53-.76-11.43.76,8.76,3,9.52-.76-5.71-.38-7.62,1.14,3.81,1.91,7.62,2.28,6.86,3.42,6.48c0,0,1.15,4.19,5,5.33a39.07,39.07,0,0,1,4.24,1.55c1.9.85,3,1.65,1.85,1.88-1.9.38-7.24,0-9.9,2.29l-.62.5c-2.05,1.56-2.08.35-2.43-2.79-.38-3.43-3.05-1.52-6.48-6.86S257.68,129.1,260,129.1Z" transform="translate(-17.69 -4.79)"/><path class="cls-2" d="M236.27,122.79c-.31-.94-1.55-4.75-2.22-7.4-.76-3-1.14,6.47-1.9,8.38s-2.67-6.1-.76-11,4.19-14.1,5.71-17.91,1.53,1.91,5.34,1.53,4.19,1.52,4.19,1.52c1.52.38-5.34,6.1-8.39,14.48C235.71,119.32,236.07,122.07,236.27,122.79Z" transform="translate(-17.69 -4.79)"/><path class="cls-2" d="M183,106.24c1.32-2.07,2.91-4.88,4.6-7.38s3.57-4.8,5.31-5.57h0c3.44-1.51,11,.39,11,.39-.68,2.4-11.22,9.72-12.78,8.68-.18-.12-.25-.33-.17-.68.61-2.75-2.69,2.09-5.79,7.45-.56,1-1.12,1.95-1.64,2.92-.19.36-.39.71-.57,1.06a36.82,36.82,0,0,0-4.15,11.08c-.22.87-.48,1.85-.8,3-.11.39-.21.77-.29,1.14a18,18,0,0,0-.2,7.44,6.92,6.92,0,0,1,.11,3.23c-.54,1.49-1.08-.67-1.35-5.15-.11-1.86-.18-4.1-.18-6.66,0-.75,0-1.5.1-2.23C176.86,117.09,180.56,110.08,183,106.24Z" transform="translate(-17.69 -4.79)"/><path class="cls-2" d="M146.42,124.91a7.09,7.09,0,0,0-1.31,4.16c0,.18,0,.36,0,.54a36.34,36.34,0,0,1-1.35-3.55c-.57-2-1.34,1.69-1.39,5.74a26.61,26.61,0,0,0,.24,4.16c.57,3.68-.75.43-1.32-3.36a17.85,17.85,0,0,1-.2-3.88c.38-4.57-.38-7.62,1.52-10.67s1.53-7.62,1.15-12.19c-.27-3.17-1.26-4.32-1-5,.14-.29.52-.49,1.34-.72l8-2.29c.31-.06.46.08.52.37.31,1.48-2.29,7.16-3.57,12.59-.8,3.41-.75,5.34-.31,7.08.4,1.55,1.11,2.95,1.83,5.11,1,2.93-.08,1.63-1.56,1.13a2.12,2.12,0,0,0-2.1.24A2.65,2.65,0,0,0,146.42,124.91Z" transform="translate(-17.69 -4.79)"/><path class="cls-2" d="M284.35,113.86c-.77,1.91-1.91,2.67-2.67-1.9s1.9-3.81,6.09-4.19l8.39-.77c1.52-.38,1.52,14.1,3,17.53s-5.33-6.48-5.71-10.29-2.67,0-1.91,2.67-3.81-1.14-3-4.19S285.11,112,284.35,113.86Z" transform="translate(-17.69 -4.79)"/><path class="cls-2" d="M316,116.53c1.9,2.29,1.14-2.29,1.52-3s5.72,4.19,5.34,5.72c0,0-5.34,4.19-6.86,2.66S314.06,114.24,316,116.53Z" transform="translate(-17.69 -4.79)"/><path class="cls-2" d="M206.62,131.77c-.76-3.81,3.81-10.67,2.67-8s.38,11.43.38,8.76,3.05,2.29,1.52,3.81c-.8.81-6.47,4.95-7.62,3.43s-.38-21.33,0-17.53S207.38,135.58,206.62,131.77Z" transform="translate(-17.69 -4.79)"/><path class="cls-2" d="M325.32,92.35c2-2,6.45-3.78,6.45-3.78,1.33.45.44,5.56.67,7.34s-1.56-1.56-2.45-.23,1.78,2.89,2,4.67-5.11-3.55-7.11-4.22S323.32,94.35,325.32,92.35Z" transform="translate(-17.69 -4.79)"/><path class="cls-2" d="M354,91.68c1.33,1.11,6.22,2.45,4.44,0s-2.89-7.78-1.11-6.22,7.12,1.56,6.23,3.78c0,0-5.12,6.67-6.67,6.22S352.66,90.57,354,91.68Z" transform="translate(-17.69 -4.79)"/><path class="cls-2" d="M362.67,67c-1.34,1.11-.89,2.44-2.23.44s8.14-7.58,9.12-7.78c2.22-.44.44,4.23-.89,4s-2,.22-.67,3.11.45,3.78-1.55,2.44S364,65.9,362.67,67Z" transform="translate(-17.69 -4.79)"/><path class="cls-2" d="M387.12,60.34c1.33-.22,4.22-1.78,2.22-3.78s-.67-3.33,1.11-1.78,1.78-.44,1.34-2.89,3.11,1.56,2.44,3.34c0,0-6.22,6.89-7.33,6.44S385.78,60.56,387.12,60.34Z" transform="translate(-17.69 -4.79)"/><path class="cls-2" d="M402.9,35.22c-1.11,0-1.78,2-2.44,2s-.89.89-.45,2.23-3.11-.23-3.56-1.56l8.23-6.22C405.57,32.33,404,35.22,402.9,35.22Z" transform="translate(-17.69 -4.79)"/><path class="cls-2" d="M415.57,36.11c2.22.89,3.34-.67,2.89-2.67s3.33-2.66,3.56-.44c0,0-5.12,6-6,5.33S413.35,35.22,415.57,36.11Z" transform="translate(-17.69 -4.79)"/><path class="cls-2" d="M160.83,133.28c1.25,3.33,2.41,3.34,3.33,8.31.34,1.87.42,2.51.48,2.56s.13-1,.75-1.51a1.17,1.17,0,0,1,.43-.22c1.66-.41,2.49,1.25,2.49,5.82a4.38,4.38,0,0,0,.63,2.21,6.49,6.49,0,0,0,.78,1.05c2,2.25,5.24,3.44,3.16,4.63a7.49,7.49,0,0,1-1.94,1.15,2.35,2.35,0,0,1-2.63-.32c-1.66-1.66-5.4-7.06-5.82-11.21,0-.15,0-.3-.05-.46C161.91,140.81,159.63,130.08,160.83,133.28Z" transform="translate(-17.69 -4.79)"/></svg>