<?xml version="1.0" encoding="utf-8"?>
<!-- Generator: Adobe Illustrator 24.3.0, SVG Export Plug-In . SVG Version: 6.00 Build 0)  -->
<svg version="1.1" id="Layer_1" xmlns="http://www.w3.org/2000/svg" xmlns:xlink="http://www.w3.org/1999/xlink" x="0px" y="0px"
	 viewBox="0 0 1600 1200" style="enable-background:new 0 0 1600 1200;" xml:space="preserve">
<style type="text/css">
	.st0{fill:#E8E8E8;}
	.st1{fill:#FFFFFF;stroke:#161616;stroke-width:3.5;}
	.st2{fill:#161616;}
	.st3{fill:#F28705;}
	.st4{fill:#EC615B;}
	.st5{opacity:0.21;fill:#6D6C6C;enable-background:new    ;}
	.st6{opacity:0.25;fill:#6D6C6C;enable-background:new    ;}
	.st7{opacity:0.14;fill:#6D6C6C;enable-background:new    ;}
	.st8{opacity:0.18;fill:#6D6C6C;enable-background:new    ;}
	.st9{fill:#D6D6D6;}
	.st10{opacity:0.2;fill:#6D6C6C;enable-background:new    ;}
	.st11{opacity:0.19;fill:#6D6C6C;enable-background:new    ;}
	.st12{opacity:0.15;fill:#6D6C6C;enable-background:new    ;}
	.st13{opacity:0.22;fill:#6D6C6C;enable-background:new    ;}
	.st14{fill:#FFFFFF;stroke:#161616;stroke-width:2;}
	.st15{fill:#FFFFFF;}
	.st16{opacity:0.11;fill:#6D6C6C;enable-background:new    ;}
	.st17{opacity:0.17;fill:#6D6C6C;enable-background:new    ;}
	.st18{fill:#012C7F;}
	.st19{fill:#4D8BFF;}
	.st20{opacity:0.24;fill:#6D6C6C;enable-background:new    ;}
	.st21{opacity:0.45;fill:#371B9B;enable-background:new    ;}
	.st22{opacity:0.43;fill:#371B9B;enable-background:new    ;}
	.st23{fill:#2168A6;}
	.st24{fill:#F20505;}
	.st25{fill:none;}
</style>
<path id="Shape" class="st0" d="M155.4,996.2c49.2,2.2,98.4,3.3,147.6,3.2c1.9,0,1.9-3,0-3c-49.2,0.1-98.4-1-147.6-3.2
	C153.5,993.1,153.5,996.1,155.4,996.2z M306,921.8c7.7,28.9,14.9,58,21.5,87.2c0.4,1.9,3.3,1.1,2.9-0.8
	c-6.7-29.2-13.8-58.3-21.5-87.2C308.4,919.2,305.5,920,306,921.8z M440,924c-2.8,27.5-5.6,55.1-8.3,82.6c-0.2,1.9,2.8,1.9,3,0
	c2.8-27.5,5.6-55.1,8.3-82.6C443.1,922.1,440.1,922.1,440,924L440,924z"/>
<path id="Shape_1_" class="st0" d="M328.3,1011.7c17.5,3.1,35.2,4.5,53,4c17-0.5,35.6-1.8,51.8-7.2c1.8-0.6,1-3.5-0.8-2.9
	c-16.1,5.3-34.2,6.6-51,7.1c-17.5,0.5-35-0.9-52.2-3.9C327.2,1008.4,326.4,1011.3,328.3,1011.7L328.3,1011.7z M307.2,922.8
	c20.7,5.8,43.2,5.9,64.6,6c23,0.2,46-1.1,68.8-3.7c1.9-0.2,1.9-3.2,0-3c-22.2,2.6-44.5,3.8-66.8,3.7c-21.7-0.1-44.7-0.1-65.8-5.9
	C306.1,919.4,305.3,922.3,307.2,922.8L307.2,922.8z"/>
<path id="Path" class="st0" d="M298.6,912.5c0.2,1.9,0.4,3.9,0.6,5.8c0.1,1.2,0.1,2.7,0.6,3.8c1.2,2.6,5.2,1.7,7.5,1.7
	c1.9,0,1.9-3,0-3h-3.4c-1.5,0-1.5-0.3-1.6-1.8c-0.2-2.2-0.4-4.3-0.6-6.5C301.4,910.6,298.4,910.5,298.6,912.5z"/>
<path id="Shape_2_" class="st0" d="M300.6,914.1c25,2.9,50.1,4.3,75.3,4.5c12.4,0.1,24.8-0.1,37.3-0.5c6.2-0.2,12.4-0.5,18.6-0.8
	c2.9-0.1,6.9-1.1,9.8-0.5c3.5,0.6,3.3,3.6,3.7,6.7c0.3-0.6,0.7-1.2,1-1.8h-3.9c-1.9-0.4-2.7,2.5-0.8,2.9c2,0.4,3.5,0.4,5.4,0
	c0.9-0.2,1.2-1.1,1-1.8c-0.5-3.5-0.1-7.9-4.3-8.8c-2.5-0.6-5.6,0.1-8.2,0.2c-3.3,0.2-6.5,0.3-9.8,0.5c-14,0.6-28.1,1-42.2,1
	c-27.8,0-55.5-1.3-83.1-4.6C298.7,910.9,298.7,913.9,300.6,914.1L300.6,914.1z M322.3,986.8c8,10.5,17.4,19.6,28,27.4
	c1.6,1.1,3.1-1.5,1.5-2.6c-10.2-7.5-19.3-16.3-27-26.4C323.7,983.7,321.1,985.2,322.3,986.8L322.3,986.8z M315.6,956.3
	c15.6,22.5,34.8,42.2,57,58.3c1.6,1.1,3.1-1.5,1.5-2.6c-21.7-15.8-40.6-35.2-55.9-57.2C317.1,953.2,314.5,954.7,315.6,956.3z
	 M309.5,929.5c27,32,57,61.9,92.8,84.1c1.6,1,3.2-1.6,1.5-2.6c-35.6-22-65.4-51.7-92.2-83.6C310.4,925.9,308.3,928.1,309.5,929.5z
	 M338.2,927.8c25.7,29.9,54.2,58.3,86,81.7c1.6,1.1,3.1-1.5,1.5-2.6c-31.6-23.2-59.9-51.6-85.4-81.2
	C339,924.2,336.9,926.3,338.2,927.8L338.2,927.8z M371,929.9c17.4,21.3,37.4,40.3,59.6,56.6c1.6,1.1,3.1-1.5,1.5-2.6
	c-22-16.1-41.8-35-59-56.1C371.9,926.3,369.8,928.4,371,929.9z M397.8,928.8c11.2,12.6,24,23.4,38.2,32.5c1.6,1,3.1-1.6,1.5-2.6
	c-14-8.9-26.6-19.7-37.6-32C398.6,925.2,396.5,927.3,397.8,928.8L397.8,928.8z"/>
<path id="Path_1_" class="st0" d="M259.4,764c6.5,13.7,10.9,28.1,13.4,43.1c0.1,0.7,0.8,1.1,1.4,1.1c0.6,0,3.8-0.1,4,0.9
	c0.1,0.4-1.9,2.7-2.1,3.2c-0.6,1.6-0.6,3.5,0,5.1c0.8,1.9,2.3,3.2,4.1,3.9c0.6,0.3,1.3,0.4,2,0.5c0.6,0.1,1.2,0.1,1.8,0
	c0.8-0.1,0.7,0-0.2,0.4c-1,1.5-2.4,1.7-2.8,3.9c-0.3,2.1,0.7,4.1,1.5,5.9c3.3,7,5.2,14.4,7.9,21.7c9.3,24.8,27.1,45.3,47.2,62.2
	c1.5,1.2,3.6-0.9,2.1-2.1c-20.7-17.4-39.1-38.7-47.8-64.8c-1.1-3.4-2.1-6.8-3.3-10.1c-1-2.9-2.9-5.9-3.8-8.8c-1-1.6-0.9-3.4,0.4-5.2
	l1.2-0.9c0.3-0.5,0.9-0.8,1.2-1.4c0.4-1.1,0.1-2.1-0.7-2.9c-1.3-1.3-3.3-0.6-5-1.1c-6.5-1.9-1.2-6.3-0.7-9.5
	c0.7-4.2-4.5-3.7-7.3-3.9c0.5,0.4,1,0.7,1.4,1.1c-2.5-15.2-7.1-29.9-13.7-43.8C261.2,760.7,258.6,762.2,259.4,764L259.4,764z"/>
<path id="Path_2_" class="st0" d="M260.5,763.3c32.5,8.7,61,30.8,81.7,57c22,27.8,35.7,61.2,43.1,95.7c0.4,1.9,3.3,1.1,2.9-0.8
	c-7.5-35-21.5-68.8-43.8-97c-21-26.5-50-48.9-83-57.7C259.4,759.9,258.6,762.8,260.5,763.3z"/>
<path id="Path_3_" class="st0" d="M272.3,775.7c39.8,38.7,70.5,86.2,89.4,138.5c0.7,1.8,3.6,1,2.9-0.8
	c-19.1-52.7-50-100.7-90.2-139.8C273.1,772.2,270.9,774.3,272.3,775.7L272.3,775.7z"/>
<path id="Shape_3_" class="st0" d="M290,838.6c8.4,0.9,16.6,2.8,24.4,5.9c7.6,3,15.9,6.8,20.7,13.7c1.1,1.6,3.7,0.1,2.6-1.5
	c-4.8-6.9-12.3-10.8-19.9-14c-8.9-3.8-18.2-6.1-27.9-7.1C288.1,835.4,288.1,838.4,290,838.6L290,838.6z M304.9,783.8
	c-0.1,11.5,1.8,22.8,5.5,33.7c0.6,1.8,3.5,1,2.9-0.8c-3.6-10.6-5.4-21.6-5.4-32.9C307.9,781.9,304.9,781.9,304.9,783.8L304.9,783.8z
	 M359.8,838.2c4.9-18.3,21.2-29.2,35.1-40.4c14.8-11.9,29.1-24.6,42.7-37.8c-0.8-0.5-1.7-1-2.5-1.5c-4.5,12.1-5.4,24.8-5.2,37.6
	c0.2,12.8,3.1,27.5-1,39.9c0.5-0.4,1-0.7,1.4-1.1c-3.2,0.2-6.4,0.5-9.6,0.7c-1,0.1-2,1.3-1.3,2.3c2.3,3.1,5,4.1,4.9,8.7
	c0,3.2-0.8,6.9-1.9,9.9c-1.1,3.1-4,5.2-5,8.1c-0.8,2.6,1.2,4.8,1.2,7.4c0.1,4.3-3,7.9-5.2,11.3c-2.1,3.2-4,6.5-5.7,9.9
	c-3.4,6.7-6.1,13.6-8.1,20.8c-0.5,1.9,2.4,2.7,2.9,0.8c2.5-8.9,6.1-17.5,10.8-25.5c3.2-5.4,9.2-11.7,8.5-18.5
	c-0.3-2.7-1.7-3.5-0.5-6.6c0.1-0.1,1.9-2.5,2-2.7c1.9-3.1,2.8-6.6,3.4-10.1c0.4-2.6,1.2-5.8,0.8-8.4c-0.6-3.7-3.4-4-5.5-6.8
	c-0.4,0.8-0.9,1.5-1.3,2.3c3.2-0.2,6.4-0.5,9.6-0.7c0.7-0.1,1.2-0.4,1.4-1.1c3.8-11.6,1.5-25.1,1.1-37.1c-0.4-13.7,0.1-27.5,5-40.5
	c0.6-1.5-1.5-2.4-2.5-1.5c-14.5,14.1-29.7,27.6-45.6,40.2c-13.6,10.8-28.3,21.8-33,39.4C356.4,839.3,359.3,840.1,359.8,838.2
	L359.8,838.2z"/>
<path id="Path_4_" class="st0" d="M426.5,773c-9.8,17.1-19.8,34-29.2,51.3c-8.8,16-16.6,32.6-20.3,50.5c-0.4,1.9,2.5,2.7,2.9,0.8
	c3.8-18.3,11.9-35.1,20.9-51.4c9.2-16.7,18.9-33.1,28.3-49.7C430,772.9,427.4,771.3,426.5,773L426.5,773z"/>
<path id="Shape_4_" class="st0" d="M397,800.8c1.3,5.7,1.9,11.4,1.7,17.2c-0.1,1.9,2.9,1.9,3,0c0.2-6.1-0.4-12-1.8-18
	C399.4,798.1,396.6,798.9,397,800.8z M413.3,781.7c1.1,4.3,1.3,8.5,0.8,12.8c-0.2,1.9,2.8,1.9,3,0c0.6-4.6,0.3-9.1-0.9-13.6
	C415.7,779.1,412.8,779.9,413.3,781.7L413.3,781.7z M414,801.6c5.9-3.5,12-6.6,18.3-9.2c1.8-0.7,1-3.6-0.8-2.9
	c-6.6,2.7-12.9,5.9-19.1,9.5C410.8,800,412.3,802.6,414,801.6z M388.2,851.8c3.8-3.2,7.6-6.3,11.5-9.3c4.1-3.2,8.6-7.5,13.6-9.5
	c1.8-0.7,1-3.6-0.8-2.9c-4.5,1.7-8.2,5-12,8c-4.9,3.8-9.7,7.6-14.4,11.6C384.6,850.9,386.7,853,388.2,851.8L388.2,851.8z
	 M272.4,795.7c7,0.7,14,1.4,21,2c1.9,0.2,1.9-2.8,0-3c-7-0.7-14-1.4-21-2C270.5,792.5,270.5,795.5,272.4,795.7z M455.9,995.2h481.7
	c1.9,0,1.9-3,0-3H455.9C453.9,992.2,453.9,995.2,455.9,995.2z M879.7,750.2V794c0,1.9,3,1.9,3,0v-43.8
	C882.7,748.3,879.7,748.3,879.7,750.2z M810.7,800.7h145.5c1.9,0,1.9-3,0-3H810.7C808.8,797.7,808.7,800.7,810.7,800.7z"/>
<path id="Shape_5_" class="st0" d="M843.3,801.5v37.9c0,1.9,3,1.9,3,0v-37.9C846.3,799.5,843.3,799.5,843.3,801.5z M918.3,800.7
	v33.4c0,1.9,3,1.9,3,0v-33.4C921.3,798.8,918.3,798.8,918.3,800.7z M870.8,842.3h111.3c1.9,0,1.9-3,0-3H870.8
	C868.9,839.3,868.9,842.3,870.8,842.3z M786.9,1024.2h245.7c1.9,0,1.9-3,0-3H786.9C785,1021.2,785,1024.2,786.9,1024.2z
	 M1125.6,998.3h309.1c1.9,0,1.9-3,0-3h-309.1C1123.7,995.3,1123.7,998.3,1125.6,998.3z M128.7,1049.5H376c1.9,0,1.9-3,0-3H128.7
	C126.8,1046.5,126.8,1049.5,128.7,1049.5z M294.9,1079.5h201.9c1.9,0,1.9-3,0-3H294.9C292.9,1076.5,292.9,1079.5,294.9,1079.5z
	 M1318,224.5v-83.6c0-1.9-3-1.9-3,0v83.6C1315,226.4,1318,226.4,1318,224.5z"/>
<path id="Path_5_" class="st0" d="M1317.5,140.3h108.3c1.9,0,1.9-3,0-3h-108.3C1315.6,137.3,1315.6,140.3,1317.5,140.3z"/>
<path id="Path_6_" class="st0" d="M1424.3,139c-0.2,28.3-0.4,56.6-0.7,84.9c0,1.9,3,1.9,3,0c0.2-28.3,0.4-56.6,0.7-84.9
	C1427.3,137.1,1424.3,137.1,1424.3,139z"/>
<path id="Shape_6_" class="st0" d="M1318,226h106.8c1.9,0,1.9-3,0-3H1318C1316.1,223,1316.1,226,1318,226z M1320.9,146.7v70.4
	c0,1.9,3,1.9,3,0v-70.4C1323.9,144.8,1320.9,144.8,1320.9,146.7z"/>
<path id="Path_7_" class="st0" d="M1323.1,148.2h94.7c1.9,0,1.9-3,0-3h-94.7C1321.1,145.2,1321.1,148.2,1323.1,148.2z"/>
<path id="Path_8_" class="st0" d="M1416.2,147.4l-0.3,69.1c0,1.9,3,1.9,3,0l0.3-69.1C1419.2,145.5,1416.2,145.5,1416.2,147.4z"/>
<path id="Shape_7_" class="st0" d="M1323.7,219h93.3c1.9,0,1.9-3,0-3h-93.3C1321.8,216,1321.8,219,1323.7,219z M1323.1,198.3
	c11.5-4,23.6-0.4,34.8,2.9c11.4,3.3,22.6,7.3,33.5,11.9c1.8,0.7,2.6-2.2,0.8-2.9c-12.1-5.1-24.5-9.4-37.1-12.9
	c-10.7-2.9-22-5.7-32.8-1.9C1320.5,196,1321.3,198.9,1323.1,198.3z"/>
<path id="Shape_8_" class="st0" d="M1361.1,201.7c18.9-1.1,36.6-8.7,55.3-10.8c1.9-0.2,1.9-3.2,0-3c-18.7,2.1-36.4,9.6-55.3,10.8
	C1359.1,198.9,1359.1,201.9,1361.1,201.7z M1396.9,165.1c-4.2-2.4-0.4-10.3,4.1-8.4c2.4,1,2.9,3.9,1.6,6c-1.4,2.3-4.3,2.7-6.7,2
	c-1.9-0.5-2.7,2.4-0.8,2.9c4,1.1,8.5-0.1,10.5-4c1.8-3.5,0.4-8.1-3.4-9.7c-7.8-3.3-14.2,9.7-6.8,13.8
	C1397,168.6,1398.6,166,1396.9,165.1L1396.9,165.1z M1366.3,138.3c0.1-1.7,0.2-3.4,0.7-5c0.4-1.3,1.4-4.4,2.9-5
	c2.7-1,3.7,8.5,3.9,10.3c0.2,1.9,3.2,1.9,3,0c-0.3-3.5-1.1-14.5-6.7-13.7c-2.4,0.3-4.1,3-5,5c-1.2,2.6-1.6,5.5-1.7,8.3
	C1363.3,140.2,1366.3,140.2,1366.3,138.3L1366.3,138.3z M1383.1,604.8v36.1c0,1.9,3,1.9,3,0v-36.1
	C1386.1,602.9,1383.1,602.9,1383.1,604.8z"/>
<path id="Path_9_" class="st0" d="M1346.8,645.3h81.7c1.9,0,1.9-3,0-3h-81.7C1344.9,642.3,1344.9,645.3,1346.8,645.3z"/>
<path id="Shape_9_" class="st0" d="M1358.3,646.2v17c0,1.9,3,1.9,3,0v-17C1361.3,644.3,1358.3,644.3,1358.3,646.2z M1402,647.1v20.2
	c0,1.9,3,1.9,3,0v-20.2C1405,645.1,1402,645.1,1402,647.1z"/>
<path id="Path_10_" class="st0" d="M1380.8,671.2h56.7c1.9,0,1.9-3,0-3h-56.7C1378.9,668.2,1378.9,671.2,1380.8,671.2z"/>
<path id="Path_12_" class="st1" d="M968.3,654.7c-250.7,18.1-501.4,36.1-752,54.2c-6.8-181.8-13.6-363.6-20.3-545.4l755.4-10.2
	C957,320.4,962.6,487.5,968.3,654.7z"/>
<path id="Shape_14_" class="st2" d="M409,252h145.9c1.9,0,1.9-3,0-3H409C407.1,249,407.1,252,409,252z M463.6,264.3h150.3
	c1.9,0,1.9-3,0-3H463.6C461.6,261.3,461.6,264.3,463.6,264.3z M226.4,557.7c1.8,41.8,3.6,83.7,5.4,125.5c0.1,1.9,3.1,1.9,3,0
	c-1.8-41.8-3.6-83.7-5.4-125.5C229.3,555.8,226.3,555.8,226.4,557.7z M446.7,533.3h13c1.9,0,1.9-3,0-3h-13
	C444.8,530.3,444.8,533.3,446.7,533.3z M471,533.3h33.2c1.9,0,1.9-3,0-3H471C469.1,530.3,469.1,533.3,471,533.3z M529.3,531.7H569
	c1.9,0,1.9-3,0-3h-39.7C527.4,528.7,527.4,531.7,529.3,531.7z M464.6,554.3h48.6c1.9,0,1.9-3,0-3h-48.6
	C462.6,551.3,462.6,554.3,464.6,554.3z M488,543h56.7c1.9,0,1.9-3,0-3H488C486.1,540,486.1,543,488,543z M588.4,649.9h95.5
	c1.9,0,1.9-3,0-3h-95.5C586.5,646.9,586.5,649.9,588.4,649.9z M666.9,658h50.2c1.9,0,1.9-3,0-3h-50.2C665,655,665,658,666.9,658z
	 M710.6,645.8H760c1.9,0,1.9-3,0-3h-49.4C708.7,642.8,708.7,645.8,710.6,645.8z M794.8,374.7h91.5c1.9,0,1.9-3,0-3h-91.5
	C792.9,371.7,792.9,374.7,794.8,374.7z M766.5,379.5h29.1c1.9,0,1.9-3,0-3h-29.1C764.5,376.5,764.5,379.5,766.5,379.5z M772.1,387.6
	H870c1.9,0,1.9-3,0-3h-97.9C770.2,384.6,770.2,387.6,772.1,387.6z M892.8,380.3h18.6c1.9,0,1.9-3,0-3h-18.6
	C890.8,377.3,890.8,380.3,892.8,380.3z M868.5,502.5H896c1.9,0,1.9-3,0-3h-27.5C866.5,499.5,866.5,502.5,868.5,502.5z M850.7,510.6
	h29.9c1.9,0,1.9-3,0-3h-29.9C848.7,507.6,848.7,510.6,850.7,510.6z M865.2,518.7h59.1c1.9,0,1.9-3,0-3h-59.1
	C863.3,515.7,863.3,518.7,865.2,518.7z M902.5,509h17.8c1.9,0,1.9-3,0-3h-17.8C900.5,506,900.5,509,902.5,509z M490.6,384.3h41.9
	c1.9,0,1.9-3,0-3h-41.9C488.7,381.3,488.7,384.3,490.6,384.3z M521.1,392.9H583c1.9,0,1.9-3,0-3h-61.9
	C519.2,389.9,519.1,392.9,521.1,392.9z M575.4,381.4h35.2c1.9,0,1.9-3,0-3h-35.2C573.5,378.4,573.5,381.4,575.4,381.4z M217.5,221.8
	l6.6,227.8c0.6,21.6,1.2,43.1,1.9,64.7c0.1,1.9,3.1,1.9,3,0l-6.6-227.8c-0.6-21.6-1.2-43.1-1.9-64.7
	C220.5,219.9,217.5,219.9,217.5,221.8z M944.4,469.9l4.5,150.5c0.1,1.9,3.1,1.9,3,0l-4.5-150.5C947.4,468,944.4,468,944.4,469.9
	L944.4,469.9z"/>
<path id="Shape_15_" class="st3" d="M737.3,446.9c0.6,6.1,1.2,12.3,1.7,18.4c5.8-1.5,11.5-3.1,17.3-4.6c-0.8-6.1-1.5-12.3-2.3-18.4
	C748.4,443.8,742.9,445.4,737.3,446.9z M733.8,493.6c6-0.8,11.9-1.5,17.9-2.3c0.8,7.3,1.5,14.6,2.3,21.9c-5.4,0.2-10.8,0.4-16.1,0.6
	C736.5,507,735.2,500.3,733.8,493.6L733.8,493.6z M755.7,537.9c1.9,6.3,3.8,12.7,5.8,19c5.4-2.5,10.8-5,16.1-7.5
	c-1.7-5.6-3.5-11.1-5.2-16.7C766.9,534.5,761.3,536.2,755.7,537.9L755.7,537.9z"/>
<path id="Path_13_" class="st3" d="M360.4,597.5c1.3,19.4,2.6,38.8,3.9,58.1c34-2.2,68-4.3,102-6.5c0.6-17.4,1.3-34.9,1.9-52.3
	C432.3,597.1,396.3,597.3,360.4,597.5L360.4,597.5z"/>
<ellipse id="Oval" class="st3" cx="783.1" cy="196.9" rx="7.1" ry="5.9"/>
<ellipse id="Oval_1_" class="st4" cx="300.6" cy="243.1" rx="5.9" ry="3.9"/>
<ellipse id="Oval_2_" class="st4" cx="394.5" cy="354.7" rx="4.6" ry="5.4"/>
<path id="Path_14_" class="st5" d="M352.3,225.4c1.8-0.3,5.3,16.4,13.9,46.7c11.3,39.9,22.5,72.1,30.6,94.1
	c-12.3,7.6-39.8,22.1-77.3,22.6c-26.5,0.3-47.4-6.5-59.8-11.7c24.3,2.7,43.9,2,57.6,0.7c21.7-2,17.9-4.3,34.3-5.1
	c6.8-0.3,15.7-0.3,24.8-5.8c3.3-2,5.7-4.2,7.3-5.8c-6.4-13.2-14.6-32.6-21.2-56.9C352,264.7,349.7,225.9,352.3,225.4L352.3,225.4z"
	/>
<path id="Path_15_" class="st6" d="M446,333.9c1.6,12.7,4.5,26.9,9.3,42.1c13.7,43.2,36.8,74,54.2,93c-10.4,7.7-23.3,15.7-38.8,22.4
	c-47,20.3-90.9,17.3-114.4,13.7l-2.7-15.9c10,0.3,20.6,0.1,31.7-0.5c39.6-2.5,73.6-11.4,100.7-21.3c-8.6-14.6-14.8-27.2-19.1-36.7
	c-10.4-22.7-18.1-39.8-20.8-62.9C444.4,353.7,445.1,341.8,446,333.9L446,333.9z"/>
<path id="Path_16_" class="st7" d="M763.9,400.1c1,22.8,3.4,41.7,5.5,55.3c4.9,31.2,8.5,52.8,21.3,77.1c8,15.1,17,26.2,23.5,33.4
	c-11.3,9.7-26.5,20.7-46,29.5c-49,22.3-95,17.8-116.5,14.2c-1.1-4.9-2.2-9.8-3.3-14.8c2.7,0.2,6.9,0.4,12,0.5c17,0.4,52.4,1,93-12.6
	c11.4-3.8,27.4-10.2,45.4-20.8c-7.1-9.5-14.1-20.8-20.2-33.9C754.5,476.3,759.3,426.1,763.9,400.1L763.9,400.1z"/>
<path id="Path_17_" class="st8" d="M840.5,175.8c2,9.3,4.9,23.5,7.8,41.2c5.4,34.2,5,46.6,11.3,66.8c3.3,10.5,9.2,25.4,20.3,42.4
	c-9.3,7.6-20.9,15.5-35.2,22.1c-46.8,21.7-91.6,15.6-112.2,11.3c0.2-4,0.4-8,0.6-11.9c2.6,0.7,6.5,1.6,11.3,2.4
	c6.3,1,29.6,4.4,73.4-6.6c12.1-3,28.4-7.8,47.1-15.5c-3.6-6.4-8.9-16.4-13.7-29.2c-14-37.1-13.9-69.3-13.7-85.9
	C837.6,203.8,838.2,191.1,840.5,175.8L840.5,175.8z"/>
<path id="Path_18_" class="st2" d="M242.7,219.7c-9.9,52.4,0.1,105.4,10.1,157c0.4,1.9,3.3,1.1,2.9-0.8
	c-9.9-51-19.8-103.5-10.1-155.4C245.9,218.7,243,217.8,242.7,219.7z"/>
<path id="Shape_16_" class="st2" d="M245.5,219.3c14.3,9.6,31.6,11.3,48.5,10.1c19.3-1.4,38.4-5.5,57.5-8.7c1.9-0.3,1.1-3.2-0.8-2.9
	c-18.3,3-36.6,6.9-55.1,8.4c-16.9,1.4-34.2,0.1-48.6-9.6C245.4,215.6,243.9,218.2,245.5,219.3L245.5,219.3z M349.5,222.8
	c2.8,47.8,10,96.6,34.2,138.6c1,1.7,3.6,0.2,2.6-1.5c-23.9-41.6-31-89.9-33.8-137.1C352.4,220.9,349.4,220.9,349.5,222.8z"/>
<path id="Shape_17_" class="st2" d="M255.3,377.5c22.7,6.6,47.1,2.6,70.2,0.7c20.5-1.7,42.5-2.5,60.1-14.5c1.6-1.1,0.1-3.7-1.5-2.6
	c-17.7,12.1-39.9,12.5-60.5,14.2c-22.2,1.8-45.6,5.5-67.5-0.8C254.2,374.1,253.4,377,255.3,377.5L255.3,377.5z M293.7,243.7
	c-2-0.9,0.2-2.8,1.4-3.1c1.5-0.4,4.4-0.6,5.1,1.1c0.5,1.3-0.3,3-1.5,3.5c-1.9,0.9-4-0.2-5.3-1.5c-1.4-1.4-3.5,0.7-2.1,2.1
	c2.5,2.5,6.6,3.8,9.7,1.5c2.5-1.8,3.4-5.8,1.3-8.2c-2.4-2.7-7.5-2.4-10.2-0.4c-2.4,1.8-2.9,6.1,0.2,7.5
	C294,247.1,295.5,244.5,293.7,243.7L293.7,243.7z"/>
<path id="Shape_18_" class="st2" d="M333.8,377.9c-7.2,36.5,0.5,73.4,8.3,109.2c0.4,1.9,3.3,1.1,2.9-0.8
	c-7.7-35.2-15.3-71.6-8.3-107.6C337.1,376.8,334.2,376,333.8,377.9L333.8,377.9z M375.1,339.6c23.1-4.4,46.5-6,69.9-5.1l-1.5-1.5
	c-4.7,48.2,15.9,94.1,40.9,134c1,1.6,3.6,0.1,2.6-1.5c-24.7-39.5-45.2-84.8-40.5-132.5c0.1-0.8-0.8-1.5-1.5-1.5
	c-23.7-0.9-47.4,0.8-70.7,5.2C372.4,337.1,373.2,340,375.1,339.6L375.1,339.6z"/>
<path id="Shape_19_" class="st2" d="M343.7,489.2c48.6,5.7,97.9-1.6,142.9-20.8c1.8-0.8,0.2-3.3-1.5-2.6
	c-44.4,19-93.4,26-141.4,20.4C341.8,486,341.8,489,343.7,489.2L343.7,489.2z M393.9,351.9c0-0.1,0.3-0.6,0.3-0.8
	c0.1-0.4,0.4-0.8,0.7-1.1c0.6-0.5,1.3-0.9,2.1-1c1.5-0.2,2.9,0.6,3.3,2.1c0.3,1.2-0.2,2.8-1.6,3c-1.3,0.2-2.5-0.7-2.7-2
	c-0.3-1.9-3.2-1.1-2.9,0.8c0.5,3.5,5,5.2,7.9,3.5c3.2-1.9,3-6.8,0.3-9.1c-3-2.5-8-1.2-9.7,2.2c-0.8,1.7-0.8,4,1.1,5
	c1.5,0.8,3.7,0.1,4.1-1.8C397.1,350.8,394.2,350,393.9,351.9L393.9,351.9z M252.6,274.1c26.6,3.7,53-1.8,78.5-9.1
	c1.9-0.5,1.1-3.4-0.8-2.9c-25,7.1-50.9,12.7-76.9,9.1C251.5,270.9,250.7,273.8,252.6,274.1L252.6,274.1z M257.6,293.7
	c13.8,1.5,27.6,0.1,40.9-4.1c1.8-0.6,1.1-3.5-0.8-2.9c-13,4.1-26.5,5.4-40.1,4C255.7,290.5,255.7,293.5,257.6,293.7L257.6,293.7z
	 M257.6,317.9c26.4,3.1,53,1.2,78.6-5.5c1.9-0.5,1.1-3.4-0.8-2.9c-25.4,6.7-51.7,8.5-77.8,5.4C255.7,314.6,255.7,317.6,257.6,317.9z
	 M356.4,471.4c26.5,1.2,53-2,78.4-9.6c1.8-0.5,1.1-3.4-0.8-2.9c-25.2,7.5-51.3,10.7-77.6,9.5C354.4,468.3,354.4,471.3,356.4,471.4z
	 M361.5,448.5c11.8-0.4,23.6-1.3,35.4-2.6c1.9-0.2,1.9-3.2,0-3c-11.8,1.3-23.5,2.2-35.4,2.6C359.6,445.6,359.6,448.6,361.5,448.5z
	 M371.1,407.3c7.8,1,15.9-1,23.6-2.1c8.5-1.3,16.9-2.5,25.4-3.8c1.9-0.3,1.1-3.2-0.8-2.9c-7.8,1.2-15.7,2.4-23.5,3.5
	c-8.1,1.2-16.5,3.4-24.7,2.3C369.2,404,369.2,407,371.1,407.3z M724.5,183.1c-10.9,53.5-12,108.5-3.3,162.4c0.3,1.9,3.2,1.1,2.9-0.8
	c-8.6-53.3-7.4-107.9,3.3-160.8C727.8,182,724.9,181.2,724.5,183.1z"/>
<path id="Path_19_" class="st2" d="M727.9,183.8c36.3-8.3,73.8-10,110.8-5c1.9,0.3,2.7-2.6,0.8-2.9c-37.5-5.1-75.5-3.4-112.4,5
	C725.3,181.4,726.1,184.3,727.9,183.8L727.9,183.8z"/>
<path id="Path_20_" class="st2" d="M837.8,176.1c-1.1,51.5-0.4,105.9,25.7,152c1,1.7,3.5,0.2,2.6-1.5
	c-25.8-45.6-26.4-99.5-25.3-150.5C840.9,174.2,837.9,174.2,837.8,176.1L837.8,176.1z"/>
<path id="Shape_20_" class="st2" d="M723.5,347.1c11.2,3.4,23.2,3.6,34.8,3.7c12.5,0.1,25-0.7,37.5-2.4c23.9-3.2,47.2-9.7,69.5-19.1
	c1.8-0.7,0.2-3.3-1.5-2.6c-22.3,9.4-45.8,15.8-69.8,18.9c-11.2,1.4-22.5,2.2-33.8,2.1c-11.9,0-24.4-0.1-35.8-3.6
	C722.4,343.7,721.7,346.6,723.5,347.1L723.5,347.1z M784.7,187c-3.4,1.2-4.9,5.1-3.7,8.4c1.4,3.7,5.7,4.6,8.9,2.4
	c3.1-2.2,4.1-6.6,1.1-9.4c-2.6-2.4-7.1-2.5-9.5,0.1c-1.3,1.4,0.8,3.5,2.1,2.1c3-3.2,8.9,1.3,4.8,4.5c-1.6,1.2-3.9,1.2-4.6-0.9
	c-0.5-1.6,0-3.8,1.7-4.4C787.3,189.2,786.5,186.3,784.7,187L784.7,187z M726,229.6c27.3,0.7,54.5,0.2,81.7-1.6c1.9-0.1,1.9-3.1,0-3
	c-27.2,1.8-54.5,2.4-81.7,1.6C724,226.6,724,229.6,726,229.6z M728.7,244.8c10.2,0.4,20.4,0.8,30.5,1.2c1.9,0.1,1.9-2.9,0-3
	c-10.2-0.4-20.4-0.8-30.5-1.2C726.7,241.7,726.7,244.7,728.7,244.8z M725.9,266c25.7,1.4,51.7,2.6,77-3c1.9-0.4,1.1-3.3-0.8-2.9
	c-25.1,5.5-50.8,4.3-76.2,2.9C724,262.9,724,265.9,725.9,266z M353.1,591.1c-2.3,20-3.1,40.1-2.4,60.2c0.1,1.9,3.1,1.9,3,0
	c-0.7-20.1,0.1-40.2,2.4-60.2C356.3,589.2,353.3,589.2,353.1,591.1z"/>
<path id="Path_21_" class="st2" d="M354.1,592.3c35.6,0,71.3-0.5,106.9-1.6c1.9-0.1,1.9-3.1,0-3c-35.6,1.1-71.3,1.6-106.9,1.6
	C352.2,589.3,352.2,592.3,354.1,592.3z"/>
<path id="Path_22_" class="st2" d="M460.7,589.3l0.9,52.1c0,1.9,3,1.9,3,0l-0.9-52.1C463.7,587.4,460.6,587.4,460.7,589.3z"/>
<path id="Shape_21_" class="st2" d="M350.4,649.1c0.2,6.5,11.5,3.6,15.2,3.4c10.6-0.7,21.2-1.4,31.7-2.2c21.5-1.5,43-2.9,64.5-4.4
	c1.9-0.1,1.9-3.1,0-3c-18.3,1.2-36.5,2.5-54.8,3.7l-26.1,1.8c-2.6,0.2-27.5,2.6-27.6,0.7C353.4,647.2,350.4,647.2,350.4,649.1
	L350.4,649.1z M362.2,605.8c24-1.1,48-0.2,71.8,2.8c1.9,0.2,1.9-2.8,0-3c-23.8-3-47.8-3.9-71.8-2.8
	C360.2,602.9,360.2,605.9,362.2,605.8z M363.1,621c13.4-1,26.9-2.1,40.3-3.1c1.9-0.1,1.9-3.1,0-3c-13.4,1-26.9,2.1-40.3,3.1
	C361.2,618.1,361.2,621.1,363.1,621z M367.6,636.3c19.3-2.5,40.3-7.6,59.7-4.1c1.9,0.3,2.7-2.5,0.8-2.9c-19.8-3.6-40.8,1.4-60.5,4
	C365.8,633.6,365.7,636.6,367.6,636.3z M627.7,420.9c-15.9,56.6-13.9,117.2,5.6,172.7c0.6,1.8,3.5,1,2.9-0.8
	c-19.3-55-21.3-115-5.6-171.1C631.1,419.8,628.2,419,627.7,420.9L627.7,420.9z"/>
<path id="Path_23_" class="st2" d="M629.7,421.9c44.5-0.2,88.8-6,131.9-17.3c1.9-0.5,1.1-3.4-0.8-2.9c-42.8,11.2-86.8,17-131.1,17.2
	C627.7,418.9,627.7,421.9,629.7,421.9z"/>
<path id="Path_24_" class="st2" d="M760.8,402.8c-1.8,27.8-0.6,55.8,4.4,83.3c2.5,13.9,5.5,27.8,11,40.8c5.5,12.9,13.1,24.6,22,35.3
	c1.2,1.5,3.4-0.6,2.1-2.1c-9.1-10.9-16.8-23-22.2-36.2c-5.1-12.6-7.9-26.1-10.2-39.4c-4.8-26.9-5.9-54.4-4.2-81.7
	C763.9,400.9,760.9,400.9,760.8,402.8L760.8,402.8z"/>
<path id="Shape_22_" class="st2" d="M633.7,595.2c56.6,4,115.7-2.4,165.3-31.6c1.7-1,0.2-3.6-1.5-2.6
	c-49.3,29-107.8,35.1-163.8,31.2C631.8,592,631.8,595,633.7,595.2z M693.9,430.9c-1.7-2.9,1.7-6.5,4.6-4.2c3.1,2.5-0.2,6.5-3.5,5.2
	c-1.8-0.7-2.6,2.2-0.8,2.9c2.7,1.1,6-0.1,7.6-2.5c1.8-2.7,1-6.1-1.5-8c-5.4-4.3-12.2,2.4-9,8.1C692.3,434.1,694.9,432.6,693.9,430.9
	L693.9,430.9z M630.7,465.4c29.9-0.5,59.8-2.6,89.6-6.2c1.9-0.2,1.9-3.2,0-3c-29.7,3.7-59.6,5.7-89.6,6.2
	C628.8,462.5,628.8,465.5,630.7,465.4z M731,445.3c0.9,4.6,1.8,9.3,2.7,13.9c0.4,1.9,3.3,1.1,2.9-0.8c-0.9-4.6-1.8-9.3-2.7-13.9
	C733.6,442.6,730.7,443.4,731,445.3z"/>
<path id="Path_25_" class="st2" d="M733,444.9c5.5-0.8,11-1.6,16.6-2.5c1.9-0.3,1.1-3.2-0.8-2.9c-5.5,0.8-11,1.6-16.6,2.5
	C730.3,442.3,731.1,445.2,733,444.9z"/>
<path id="Path_26_" class="st2" d="M748.7,441.5c0.8,4.3,1.5,8.6,2.3,12.8c0.3,1.9,3.2,1.1,2.9-0.8c-0.8-4.3-1.5-8.6-2.3-12.8
	C751.3,438.9,748.4,439.7,748.7,441.5z"/>
<path id="Shape_23_" class="st2" d="M736.2,461.5c5.9-1.2,11.5-2.8,17.1-5c1.8-0.7,1-3.6-0.8-2.9c-5.6,2.1-11.3,3.8-17.1,5
	C733.5,459,734.3,461.9,736.2,461.5z M736.7,448.3c1.1,2.5,2.6,4.5,4.8,6.2c0.8,0.6,2.3,0.6,2.5-0.7c0.8-5.4,2.7-10.2,5.9-14.7
	c1.1-1.6-1.5-3.1-2.6-1.5c-3.3,4.6-5.4,9.8-6.2,15.4c0.8-0.2,1.7-0.4,2.5-0.7c-1.9-1.5-3.3-3.3-4.3-5.6
	C738.5,445,735.9,446.5,736.7,448.3L736.7,448.3z M737.8,491.2c-1.6,7.2-0.9,14.2,2,20.9c0.8,1.8,3.3,0.2,2.6-1.5
	c-2.6-5.9-3.1-12.3-1.7-18.6C741.1,490.1,738.2,489.3,737.8,491.2z"/>
<path id="Path_27_" class="st2" d="M739.8,492.2c6-1,12-1.9,18-2.9l-1.8-1.8c-1,6.4-0.3,12.5,2.2,18.5c0.7,1.8,3.6,1,2.9-0.8
	c-2.3-5.4-3.1-11.1-2.2-16.9c0.2-1.2-0.6-2-1.8-1.8c-6,0.9-12,1.9-18,2.9C737.1,489.6,737.9,492.5,739.8,492.2L739.8,492.2z"/>
<path id="Shape_24_" class="st2" d="M741.1,512.2c6.6-0.2,12.9-1.5,19.1-3.7c1.8-0.7,1-3.6-0.8-2.9c-5.9,2.2-12,3.4-18.3,3.6
	C739.2,509.2,739.2,512.2,741.1,512.2L741.1,512.2z M742,498.3c0.9,2.6,2.4,4.4,4.8,5.8c1.1,0.6,2.1-0.2,2.3-1.3
	c0.6-5.3,2-10.4,4.2-15.3c0.8-1.7-1.8-3.3-2.6-1.5c-2.4,5.4-3.9,11-4.6,16.8c0.8-0.4,1.5-0.9,2.3-1.3c-1.7-1-2.7-2.2-3.4-4.1
	C744.3,495.7,741.4,496.5,742,498.3L742,498.3z M744,537.6c0.7,6.7,2.5,13,5.5,19c0.8,1.7,3.4,0.2,2.6-1.5c-2.7-5.5-4.4-11.4-5-17.5
	C746.8,535.7,743.8,535.7,744,537.6z"/>
<path id="Path_28_" class="st2" d="M745.4,537.3c7.7,0.7,14.9-0.7,21.8-4.1c-0.7-0.3-1.5-0.6-2.2-0.9c1.3,6.1,4,11.4,8.2,16.1
	c1.3,1.4,3.4-0.7,2.1-2.1c-3.8-4.3-6.2-9.1-7.4-14.7c-0.2-1-1.4-1.3-2.2-0.9c-6.4,3.1-13.2,4.3-20.3,3.7
	C743.5,534.2,743.5,537.2,745.4,537.3z"/>
<path id="Shape_25_" class="st2" d="M752.2,557.7c7.8-2.9,15.5-6,23-9.4c1.8-0.8,0.2-3.4-1.5-2.6c-7.3,3.3-14.8,6.3-22.3,9.1
	C749.6,555.5,750.4,558.4,752.2,557.7z M750.6,542.6c2.4,2.1,7.9,9.3,10.7,4c1.3-2.4,1-5.7,1.8-8.4c1.2-3.8,3.2-7.3,5.8-10.3
	c1.2-1.5-0.9-3.6-2.1-2.1c-2.8,3.3-5,6.9-6.3,11.1c-0.6,1.9-1.1,3.9-1.4,5.9c-0.4,2.5-1.1,1.9-3,0.7c-1.2-0.8-2.3-2-3.4-3
	C751.3,539.2,749.2,541.3,750.6,542.6L750.6,542.6z M633.4,514.3c28-0.3,55.9-2.6,83.5-7c1.9-0.3,1.1-3.2-0.8-2.9
	c-27.4,4.3-55,6.6-82.7,6.8C631.5,511.3,631.5,514.3,633.4,514.3z M630.2,473.7c18.1,0.5,36.1-0.1,54.1-1.6c1.9-0.2,1.9-3.2,0-3
	c-18,1.5-36.1,2-54.1,1.6C628.3,470.6,628.3,473.6,630.2,473.7z M634.5,520.2c19,0.9,38,0.2,56.8-2.2c1.9-0.2,1.9-3.2,0-3
	c-18.9,2.3-37.9,3.1-56.8,2.2C632.6,517.1,632.6,520.1,634.5,520.2z M697.7,516.6c5.4,0.1,10.7-0.6,15.9-2.3c1.8-0.6,1-3.5-0.8-2.9
	c-4.9,1.6-9.9,2.3-15.1,2.2C695.8,513.6,695.8,516.6,697.7,516.6L697.7,516.6z M644.7,557.8c22.8-1.4,45.5-3.5,68.1-6.6
	c1.9-0.3,1.9-3.3,0-3c-22.6,3-45.3,5.2-68.1,6.6C642.7,554.9,642.7,557.9,644.7,557.8z M647.3,564.8h22.5c1.9,0,1.9-3,0-3h-22.5
	C645.4,561.8,645.4,564.8,647.3,564.8z M653.8,571.5c11.7-0.7,23.4-1.8,35.1-3.2c9.4-1.2,19.5-1.7,27.6-7.2c1.6-1.1,0.1-3.7-1.5-2.6
	c-8.5,5.8-19.9,6.1-29.8,7.2c-10.4,1.2-20.9,2.1-31.3,2.8C651.9,568.6,651.8,571.6,653.8,571.5L653.8,571.5z M768,490.7
	c18.2-0.9,36.3-3.3,54.2-7.1c-0.6-0.3-1.2-0.7-1.8-1c8.4,25,20.8,48.3,36.7,69.4c1.1,1.5,3.8,0,2.6-1.5
	c-15.7-20.8-28-43.9-36.4-68.6c-0.3-0.8-1-1.2-1.8-1c-17.6,3.8-35.4,6.1-53.4,7C766,487.8,766,490.8,768,490.7L768,490.7z"/>
<path id="Shape_26_" class="st2" d="M771.1,575.1c2.7,3.8,4.9,7.8,6.8,12.1c0.2,0.6,1.1,0.9,1.7,0.7c14.7-4.9,29.2-10.3,43.4-16.4
	c7.2-3.1,14.3-6.3,21.4-9.7c3.4-1.6,6.8-3.3,10.1-5c2-1,4.3-1.6,5-3.8c0.2-0.6-0.1-1.4-0.7-1.7c-0.9-0.5-1.4-0.5-2.3,0
	c-0.6,0.3-0.9,1.1-0.7,1.7c0,0.1,0.1,0.2,0.1,0.3c0.5,1.9,3.4,1.1,2.9-0.8c0-0.1-0.1-0.2-0.1-0.3c-0.2,0.6-0.5,1.1-0.7,1.7h-0.7
	c-0.2-0.6-0.5-1.1-0.7-1.7c-0.6,1.8-6.9,3.7-8.6,4.6c-2.8,1.4-5.6,2.7-8.5,4.1c-6.7,3.2-13.5,6.2-20.4,9.1
	c-13.2,5.6-26.7,10.6-40.3,15.1c0.6,0.2,1.1,0.5,1.7,0.7c-1.8-4.3-4.1-8.3-6.8-12.1C772.6,572,770,573.5,771.1,575.1L771.1,575.1z
	 M788.5,498.5c-0.2-1.3,2.2-2.5,3.1-1.6c1.2,1.2-0.8,3.4-2.2,2.9c-1.8-0.7-2.6,2.2-0.8,2.9c4.3,1.6,8.5-4.6,5.2-7.9
	c-1.5-1.5-3.8-1.4-5.6-0.5c-1.9,1-2.9,2.9-2.5,5C785.9,501.2,788.8,500.3,788.5,498.5z M345.4,418.5c11.1,0.2,22.3-0.3,33.3-1.8
	c11.5-1.6,22.9-4.9,34.6-4.4c1.9,0.1,1.9-2.9,0-3c-10.7-0.4-21.1,2.3-31.6,3.9c-12,1.9-24.2,2.6-36.4,2.3
	C343.5,415.5,343.5,418.5,345.4,418.5L345.4,418.5z M347,385.4c17,1.3,34-0.2,50.5-4.5c1.9-0.5,1.1-3.4-0.8-2.9
	c-16.3,4.2-32.9,5.7-49.7,4.4C345.1,382.3,345.1,385.3,347,385.4z M731.8,301.2c-1.7,11-3.1,22.9,3.8,32.5c1.1,1.6,3.7,0.1,2.6-1.5
	c-6.4-8.9-5-20-3.5-30.2C735,300.1,732.1,299.3,731.8,301.2z"/>
<path id="Path_29_" class="st2" d="M732.7,301.1c23.8,0.9,47.6-1.4,70.8-6.9c-0.6-0.3-1.2-0.7-1.8-1c2.1,10.3,6.1,19.9,11.7,28.7
	c1,1.6,3.6,0.1,2.6-1.5c-5.5-8.6-9.3-18-11.4-28c-0.2-0.8-1.1-1.2-1.8-1c-22.9,5.4-46.4,7.7-70,6.8C730.8,298,730.8,301,732.7,301.1
	L732.7,301.1z"/>
<path id="Shape_27_" class="st2" d="M738.1,333.6c25.8-0.8,51.3-4.6,76.1-11.4c1.9-0.5,1.1-3.4-0.8-2.9
	c-24.6,6.8-49.8,10.6-75.3,11.3C736.1,330.7,736.1,333.7,738.1,333.6L738.1,333.6z M1090.7,1032.1v33.8c-80,31.7-96.3,43-95.1,47.1
	c0.3,1,2.4,4,44.4-0.9c41.6-4.9,75.3-12,98.7-17.8c-4.1-23.1-8.3-46.2-12.4-69.3C1114.4,1027.4,1102.5,1029.8,1090.7,1032.1
	L1090.7,1032.1z"/>
<path id="Path_30_" class="st9" d="M1126.6,553.8c-2.3,4.3-3.1,7.8-3.3,8.6c-14.3,60.8-33,96.7-45.2,167.2
	c-23.3,135.8-3.2,290.1-1.3,304.6c6.4,2.8,18.7,7,34.4,6.4c13.8-0.6,24.5-4.7,30.6-7.6c-2.3-44.3,0-99,15.3-159.3
	c18.7-73.9,42.4-98.4,63.7-184.8c15.8-64,34.1-138.5,2.5-160.6C1199.1,511.1,1142.4,523.7,1126.6,553.8L1126.6,553.8z"/>
<path id="Path_31_" class="st10" d="M1181.9,585.7c-16,73-30.9,150.8-43.5,233.1c-11.9,77.4-20.8,151.5-27.4,221.9
	c10.1-2.1,20.1-4.2,30.2-6.3c-1.3-31.1,0.1-57.6,2.1-77.9c2.4-25.2,8.5-83.9,33-142.5c3.2-7.5,7.3-16.6,14-33.7
	c11.3-28.3,19.5-52.5,23.2-63.9c17.4-54.4,26.1-117.5,28.8-138.3C1222.1,580.5,1202,583.1,1181.9,585.7L1181.9,585.7z"/>
<path id="Path_32_" class="st11" d="M1214.9,712.8c-39.2,51.1-57.5,97.4-66.7,128.5c-8.4,28.3-12.1,53.3-16.9,85.7
	c-6.8,46-9.4,84.8-10.5,112.4c6.6-1.6,13.1-3.3,19.7-4.9c-1.1-38.7,1.6-71.8,4.9-97.6c4-30.6,8.6-66.1,24.6-108.8
	c5.8-15.5,8.6-19.9,21.8-53.4C1202,748.5,1209.8,727,1214.9,712.8L1214.9,712.8z"/>
<path id="Path_33_" class="st2" d="M1306.7,1020.6c5.6,13.9,11.3,27.8,16.9,41.8c-47,29.9-69.2,47.3-66.7,52.4
	c3.1,6.3,43.7-6.2,121.8-37.3c-8.3-27-16.6-53.9-24.9-80.9L1306.7,1020.6z"/>
<path id="Path_34_" class="st9" d="M1268.1,555c24.5,22.4,23.7,53.8,26.8,105.8c0,0,7.6,127.9,33.1,230.7
	c6.4,25.7,18,65.6,39.5,113.4c-3.6,4.6-13.4,15.8-30.6,21.7c-17.6,6-32.6,2.8-38.2,1.3c-30.6-52.2-52.3-96.7-66.3-127.5
	c-64.9-142.2-70.1-217.1-70.1-256.2c0-40.2,0.7-88.4,30.6-104.5C1215.4,527.6,1248.4,537,1268.1,555z"/>
<path id="Path_35_" class="st12" d="M1198.7,570.3c11.1,42.7,23.1,86.1,35.9,130.1c33.4,114.2,69.7,222.1,107.8,323.3
	c3.7-1.9,8.2-4.5,12.8-8c4.7-3.6,8.4-7.2,11.2-10.4c-5.2-12.1-12.4-29.6-20-51.1c-11.5-32.9-30.2-93.4-39.9-174
	c-9.3-77.4-14-116.1-13.6-140.5c0.3-20.1,2.1-61-23.9-83c-5.4-4.5-10.7-7.2-14.4-8.8C1235.9,555.4,1217.3,562.9,1198.7,570.3
	L1198.7,570.3z"/>
<path id="Path_36_" class="st13" d="M1294.1,665.7c-4.6,46.5-6.1,108.8,5.1,180.8c11.3,72.4,31.8,131.5,50.3,174.5
	c5.7-4.7,11.4-9.4,17.1-14.2c-6.8-16.1-15.7-38.5-24.6-65.9c-17.1-52.7-24.5-93.8-30.9-130.7
	C1304.6,772.4,1297.8,723.5,1294.1,665.7L1294.1,665.7z"/>
<path id="Path_37_" class="st14" d="M825.9,189.7c-4,2-9.5,5.5-13.8,11.5c-2.3,3.1-5.1,7.2-5.5,13c-0.1,2.3-0.4,7.3,2.8,10.6
	c0.9,1,3.3,2.9,15.1,2.5c10.5-0.4,15.8-0.6,18.5-3.4c5.2-5.4,3.3-15.6,0-21.7C837.8,192.5,827.6,190.1,825.9,189.7z"/>
<path id="Path_38_" class="st14" d="M886.3,214.8c14.1,16.1,36.7,25.7,78.2,42.8c52.3,21.6,78.5,32.4,109.5,36.2
	c33.5,4.1,51.4-0.2,57.6,10.7c8.1,14.1-10.9,40.5-30.5,62.6c-14.6-3.2-29.7-7.2-45.3-12.4c-85.5-28.3-147.3-78.1-187.9-119.5
	c-5.1,1.1-13.8,2.2-23.7-0.8c-8.5-2.5-20.5-8.9-19.8-14c0.9-6.2,22.6-7.3,23.9-7.4c-6.6-2.7-16.1-7.3-26.4-14.8
	c-3-2.2-20.2-14.9-18.1-18.9c1.8-3.5,17.4,1.3,32.1,5.8c13.4,4.1,22.7,7,32.9,14C878.6,205.7,884.3,212.5,886.3,214.8z"/>
<path id="Path_39_" class="st15" d="M817.1,190.8c2.4,2.7,2.9,6.3,5,9.1c1.8,2.5,4.4,4.3,7.1,5.8c8.1,4.5,16.7,8.2,25,12.3
	c1.4,0.7,3.2-1.2,1.8-2.4c-4.3-3.7-8.9-7-13.7-10c-1.6-1-3.2,1.6-1.5,2.6c4.6,2.9,9,6,13.1,9.5l1.8-2.4c-7.9-3.8-15.8-7.5-23.6-11.6
	c-3.7-1.9-7-4.1-8.9-7.9c-1.3-2.6-2-5.1-4-7.3C817.9,187.3,815.8,189.4,817.1,190.8L817.1,190.8z"/>
<path id="Path_40_" class="st15" d="M824.9,201.3c4.6,2,9,4.6,13,7.7c1.5,1.2,3.6-0.9,2.1-2.1c-4.2-3.3-8.7-6-13.6-8.2
	C824.6,197.9,823.1,200.5,824.9,201.3z"/>
<path id="Path_41_" class="st15" d="M813.1,189c3.8,6.1,8.8,11.1,14.7,15.1c1.6,1.1,3.1-1.5,1.5-2.6c-5.5-3.7-10.1-8.4-13.6-14.1
	C814.7,185.9,812.1,187.4,813.1,189z"/>
<path id="Path_42_" class="st2" d="M817.6,197.2c2,2.7,4.2,5.2,6.7,7.4c1.8,1.6,9.7,7.3,5.6,10.2c-0.8,0.5,0,1.8,0.8,1.3
	c2.8-1.9,1.7-5.3,0-7.6c-1.3-1.7-3.1-3-4.8-4.5c-2.6-2.3-4.9-4.8-7-7.5C818.3,195.6,817,196.4,817.6,197.2L817.6,197.2z"/>
<path id="Shape_28_" class="st2" d="M815.5,207.6c3,4.1,8.7,9.9,14.3,8.2c0.9-0.3,0.5-1.7-0.4-1.4c-4.8,1.5-10.1-4-12.6-7.5
	C816.2,206.1,814.9,206.8,815.5,207.6L815.5,207.6z M811.1,214.6c3.3,4.5,8.1,7.1,13.7,7.4c1,0.1,1-1.4,0-1.5
	c-5-0.3-9.4-2.7-12.4-6.7C811.8,213,810.5,213.8,811.1,214.6L811.1,214.6z M807.9,223.6c4.7,4.9,12.5,5,17.2,0
	c0.7-0.7-0.4-1.8-1.1-1.1c-4.1,4.4-10.9,4.3-15,0C808.3,221.8,807.2,222.9,807.9,223.6z M808.9,188.8c11.1,7.3,19.1,19.6,33,22
	c0.9,0.2,1.4-1.3,0.4-1.4c-13.7-2.3-21.7-14.6-32.6-21.8C808.8,186.9,808.1,188.2,808.9,188.8L808.9,188.8z"/>
<path id="Path_43_" class="st10" d="M807.7,221.5c-3.6-4.9-0.6-15.4,8.1-25.3c9.8,5.7,19.5,11.5,29.3,17.2c-1.8,0-17.6,0.2-18.7,5.1
	c-0.2,0.8,0,2,1.5,3.7c5,2.4,13.4,5.6,24.2,5.9c5.6,0.1,10.5-0.6,14.3-1.5c20.4,20.6,56.3,51.7,109.1,74.3
	c46.4,19.8,88,25.5,115.5,27.1c-0.9,11.8-1.8,23.5-2.7,35.3c-45.3-12-106.7-34.8-167.7-80.6c-20.8-15.6-38.6-31.7-53.8-47.2
	c-14,2.3-22.7-0.1-28.2-2.9c-4.7-2.4-7.7-5.4-13.9-5.9c-4.1-0.3-7.6,0.7-12.1-1.5C812.1,225,809.2,223.5,807.7,221.5L807.7,221.5z"
	/>
<path id="Path_44_" class="st7" d="M936.5,292.1c14,7.5,30.2,15.1,48.7,21.6c40.3,14.3,76.8,18.8,104.7,19.8
	c-0.4,10.2-0.7,20.5-1.1,30.7c-29-6.8-65.4-18.7-104-40.3C966.3,313.6,950.3,302.7,936.5,292.1L936.5,292.1z"/>
<path id="Path_45_" class="st14" d="M1094.6,320.6c-5.7,12.9-6,23.6-6.5,42.8c-0.4,14.5,0.6,30.1,8.4,71.1
	c9.5,49.6,14,57.6,15.5,83.9c1.2,20.6-0.4,37.5-1.9,48.7c12.6,6.9,33.7,16.3,61.3,18.4c48.8,3.7,84.9-17.8,97.3-26
	c1.5-31.4,3-62.9,4.6-94.3c-5.5-26.8-12-47.8-16.7-61.6c-14.8-43.5-28.6-64.1-19.8-85.9c4.9-12.1,14.6-19.5,21.3-23.6
	c-4.7-3.6-54-40.1-107.8-21.2C1144.7,274.8,1109.3,287.3,1094.6,320.6L1094.6,320.6z"/>
<path id="Path_46_" class="st11" d="M1150.1,272.8c15,24,23.4,45.2,28.2,60c0,0,23.5,71.4,6.3,167.2c-3.7,20.4-10.3,49.4-23.3,82.6
	c5,1.1,11,2,17.8,2.3c0,0,10.5,0.5,22.3-1c14.4-1.9,39.1-9.6,68.2-24.4l1.5-100.4c-7.4-28.3-14.9-51-20.5-66.9
	c-13.5-37.9-23-55.7-15.2-74.5c5.1-12.3,15.5-19.9,23.6-24.3c-10.6-7-30.2-17.9-57-22.1C1179.9,267.9,1161.7,270.3,1150.1,272.8
	L1150.1,272.8z"/>
<path id="Path_47_" class="st16" d="M1163.8,270.5c16.1,19.8,34.9,48.7,46.5,86.8c32.9,108.8-21.2,204.2-33.7,225.1
	c10.5-0.1,22.8-1,36.2-3.6c23.9-4.6,43-12.8,56.7-20.1c0.5-31.2,1-62.4,1.5-93.5c-8.5-28.9-16.5-56.3-27.4-93.5
	c-7.4-25.5-13.2-46.4-2.3-63.1c5.3-8.1,12.7-12.6,18.3-15.2C1227.7,285.7,1195.7,278.1,1163.8,270.5z"/>
<path id="Path_48_" class="st14" d="M1156.4,474.8c-0.3-21.4-0.5-42.7-0.8-64.1c51.3-2.6,102.6-5.2,154-7.8
	c1.8,19.8,3.6,39.6,5.5,59.4C1262.2,466.5,1209.3,470.6,1156.4,474.8z"/>
<path id="Path_49_" class="st14" d="M1140.8,467.8v-23.4c65.9-4.9,131.8-9.9,197.7-14.8c0.5,9.6,1,19.3,1.6,28.9
	C1273.7,461.5,1207.2,464.7,1140.8,467.8z"/>
<path id="Path_50_" class="st14" d="M1146.3,432.6c0.8,11.5,1.6,22.9,2.3,34.4c61-4.9,121.9-9.9,182.9-14.8
	c0.5-10.4,1-20.8,1.6-31.3C1270.8,424.8,1208.5,428.7,1146.3,432.6L1146.3,432.6z"/>
<path id="Path_51_" class="st14" d="M1131.4,458.4c1.8,45.6,3.6,91.2,5.5,136.8c68-7.6,136-15.1,204-22.7l6.3-134.4
	C1275.2,444.9,1203.3,451.6,1131.4,458.4L1131.4,458.4z"/>
<path id="Shape_29_" class="st2" d="M1143,476.2c30.9-4.1,61.8-7,92.9-8.8c1.4-0.1,1.4-2.3,0-2.3c-31.1,1.8-62.1,4.7-92.9,8.8
	C1141.6,474.1,1141.6,476.4,1143,476.2z M1177.5,482.3c23.7-3,47.4-6.1,71.2-9.1c1.4-0.2,1.4-2.4,0-2.3c-23.7,3-47.4,6.1-71.2,9.1
	C1176.1,480.3,1176.1,482.5,1177.5,482.3z M1291.4,546.3c-0.4,6.3-0.4,12.7,0.2,19c0.1,1.4,2.4,1.4,2.3,0c-0.6-6.3-0.7-12.7-0.2-19
	C1293.8,544.9,1291.5,544.9,1291.4,546.3z"/>
<path id="Path_52_" class="st2" d="M1292.4,546.5c12.4,0.3,24.7-0.4,37-2l-1.1-1.1c-0.2,5.8,0,11.5,0.4,17.2c0.1,1.4,2.4,1.4,2.3,0
	c-0.5-5.7-0.6-11.5-0.4-17.2c0-0.6-0.5-1.2-1.1-1.1c-12.3,1.6-24.6,2.2-37,2C1290.9,544.2,1290.9,546.4,1292.4,546.5L1292.4,546.5z"
	/>
<path id="Shape_30_" class="st2" d="M1293.3,567.1c12.3,0.2,24.4-1.1,36.4-3.8c1.4-0.3,0.8-2.5-0.6-2.2c-11.8,2.6-23.7,3.9-35.8,3.7
	C1291.9,564.8,1291.9,567,1293.3,567.1L1293.3,567.1z M1298,553.5c7.6,0.5,15.1,0.1,22.7-1.1c1.4-0.2,0.8-2.4-0.6-2.2
	c-7.3,1.2-14.7,1.5-22.1,1C1296.6,551.1,1296.6,553.4,1298,553.5L1298,553.5z M1302.8,559.8c7.9-0.2,15.5-1.7,23-4.4
	c1.3-0.5,0.8-2.7-0.6-2.2c-7.2,2.7-14.7,4.1-22.4,4.4C1301.4,557.5,1301.3,559.8,1302.8,559.8z"/>
<path id="Path_53_" class="st10" d="M1163.7,590c1.8-42.2,3.6-84.4,5.3-126.7c58.4-4.7,116.9-9.3,175.3-14c-1.3,40-2.7,80-4,120
	C1281.4,576.2,1222.6,583.1,1163.7,590z"/>
<path id="Path_54_" class="st10" d="M1322.3,422c0.3,11.6-0.3,25.4-3.3,40.7c-7.4,37.6-25.2,64.7-37.3,80
	c8.2,10.9,16.4,21.8,24.7,32.7l-75.3,8.7c4-45.8,8-91.6,12-137.3c-1.3-6-2.7-12-4-18C1266.8,426.4,1294.6,424.2,1322.3,422
	L1322.3,422z"/>
<path id="Path_55_" class="st14" d="M1252.7,291.4c20.9-2.8,45.8,45.2,55.7,79.7c11.4,39.7,6.4,74,2.3,92.1c-8,35.5-24.6,60.5-35,74
	c1.6,5.3,5.3,19.7-0.8,35.5c-9,23.1-33.4,34.2-35.3,32.1c-0.6-0.7,0.6-3.6,10.1-14.5c-2,2.1-16.4,16.4-32.6,13
	c-2.8-0.6-6.3-1.3-8.3-4.1c-4.7-6.8,3.1-22.2,19.7-39.3c-18.1,4.5-22.9,3.3-23.8,1.3c-2.3-4.8,16.2-18.4,22.9-23.4
	c9.9-7.3,18.8-12.3,24.9-15.4c17.1-35.5,16.2-63.2,14.7-76.2c-2.2-19.2-9.4-40.1-10.8-44.1c-4-11.5-5.9-14.1-13.9-34.8
	c-12.9-33.2-12.9-38.9-12.4-43.3C1231.9,310.8,1240.8,293,1252.7,291.4L1252.7,291.4z"/>
<path id="Shape_31_" class="st2" d="M1209.2,596.4c11.1-6.3,20.8-14.4,28.9-24.2c1.2-1.5-0.9-3.6-2.1-2.1
	c-7.9,9.6-17.4,17.6-28.3,23.8C1206,594.7,1207.5,597.3,1209.2,596.4L1209.2,596.4z M1219,603.1c11-5.7,20.4-13.6,28-23.4
	c1.2-1.5-1.4-3-2.6-1.5c-7.2,9.4-16.4,16.9-26.9,22.3C1215.8,601.4,1217.3,604,1219,603.1z"/>
<path id="Path_56_" class="st17" d="M1244.3,296.2c-19.9,17.3,61.3,93.2,47.4,179.4c-9.5,59.1-48.9,97.7-48.9,97.7
	c-11,11-31.7,24.5-29.2,29.2c1.8,3.4,14.3,0.3,18.8-1.1c8.5-2.6,14.4-7,17.7-9.9c-5,5.6-10.7,12.5-9.5,13.9
	c1.7,1.8,15.9-5.6,24.8-16c15.4-18,13.2-43,11.7-53.2c3.6-4.7,8.3-11.3,13.1-19.7c4.4-7.5,17.1-30.9,22.6-62.7
	c9.7-56.3-10.2-100.7-18.2-118.1c-7.2-15.5-19.4-41.2-37.9-42.3C1254.3,293.1,1248.2,292.8,1244.3,296.2L1244.3,296.2z"/>
<path id="Path_57_" class="st13" d="M1311.7,452.2c-5.4,15.7-11.8,32.2-19.4,49.5c-5.4,12.3-10.9,23.8-16.5,34.7
	c-2.8,9-8.1,22.5-18.6,36.4c-11,14.6-23.1,23.5-31.2,28.6c2.3,0.1,5.1-0.1,8.2-0.9c7.8-1.8,13-6.1,15.6-8.7c-3,3.8-6.1,7.5-9.1,11.3
	c2.4-0.4,6.2-1.1,10.4-3c22-9.9,26.6-36.8,26.9-38.6c0.8-4.9,1.3-13.3-1.7-23.7c7.2-8.5,16.3-21.2,23.6-38.3
	C1308,480.7,1310.7,463.8,1311.7,452.2z"/>
<path id="Path_58_" class="st18" d="M1071.6,225.6c-16.1,18.4-5,44.1-3.5,47.6c5.6,13,20.1,31.5,38.5,30c13.4-1.2,21.9-12.5,24-15.5
	c14.8-21.3,9.9-62-15.1-72.5C1101.7,209.4,1082.7,212.8,1071.6,225.6z"/>
<path id="Path_59_" class="st14" d="M1112.2,242c0.7,7.9,9,9.6,14.6,22.6c4,9.4,4,18.6,3.3,25.2c6.5,0.6,18.5,0.9,32.1-4.3
	c10.7-4.1,18.2-10,22.7-14.1c-2.1-4.7-5.2-11.6-8.9-19.8c-16-34.9-18.6-37.9-22.5-39.4C1137.9,206.3,1110.9,227.3,1112.2,242
	L1112.2,242z"/>
<path id="Path_60_" class="st14" d="M1054.6,138.7c-3.4,4.8-5.5,10.7-5.8,36c-0.2,21.6,1,41.3,3,58.8l13.5-7.8
	c2,4.9,5.4,11.6,11.2,18.1c11.5,12.9,25.5,17.3,31.7,18.9c6.5-1.6,22.7-6.6,35-21.9c8.1-10.2,10.7-20.3,11.3-22.6
	c3.7-15.1,0.1-27.6-1.8-32.8c2.4-1.1,6.1-3.2,8.9-7c5.9-8,7.5-22.3,0.2-27.1c-5.4-3.6-15-1.5-22.2,5.9c-1.6-3.7-4.1-8.8-8.1-14.1
	c-1-1.3-8.5-11.1-17.7-16.2C1096.1,116.7,1066.8,121.5,1054.6,138.7L1054.6,138.7z"/>
<path id="Path_61_" class="st19" d="M1047.3,170.1c-4-0.7-11.4-2.8-14.9-8.9c-6-10.3,2.8-26,5-29.9c1.8-3.3,6.6-11.2,27-25.5
	c15.5-10.9,23.3-16.3,31.7-18.9c29.8-8.9,57.1,6.5,62.2,9.4c10.7,6.1,17.5,12.7,22.9,17.9c8.3,8,17.6,17.2,28,27.8
	c26.7,34.6,36.1,66.2,39.9,85.1c4.3,21.4,8.7,43.2-4.1,56c-12.8,12.8-36.2,10.2-50.5,4.1c-19.9-8.5-28.4-26.5-35-40.4
	c-11.2-23.8-11.9-46.6-10.8-61.4c10-2.9,15.1-12.3,12.8-19.4c-1.8-5.6-8.5-11.2-15.4-9.2c-5.3,1.5-9.1,7-8.8,13.4
	c-4.8-0.1-17.6-1.2-29.8-10.4c-8.9-6.7-13.4-14.7-15.5-19.1c-5.5,0.7-16.5,2.7-27.6,10.7C1055.1,157.8,1049.9,165.5,1047.3,170.1
	L1047.3,170.1z"/>
<path id="Path_62_" class="st20" d="M1113.5,189.2c12,14.5,15.8,29.8,15.8,29.8c3.9,17.2-1.7,31.8-4.2,37.7
	c6.3-4.8,12.7-9.6,19-14.4c4.4,14.6,8.7,29.1,13.1,43.7c3.3-0.3,10.1-1.5,16.9-6.3c5.2-3.7,8.3-8,10-10.7
	c-8.1-7.5-23.6-24.1-30.7-50.2c-3.4-12.6-3.9-23.8-3.5-32.2c9.1-3.7,13.8-12.6,11.9-20c-1.4-5.4-6.9-11.9-14-10.9
	c-5.9,0.9-10.8,6.7-10.7,13.8c-4.5,0-15.1-0.5-26.2-7.2c-11.5-6.9-17-16.5-19.1-20.6c0.5,19.2,6.4,30.3,11.7,36.9
	C1107,183.1,1108.6,183.3,1113.5,189.2L1113.5,189.2z"/>
<path id="Shape_32_" class="st2" d="M1067,185c-1.1,4-1,8.1,0.5,12c0.5,1.4,2.4,1.5,2.9,0c1.2-3.6,1.2-7.4,0.1-11
	c-0.6-1.8-3.5-1.1-2.9,0.8c1,3.2,0.9,6.3-0.1,9.5h2.9c-1.3-3.4-1.5-6.9-0.5-10.4C1070.4,183.9,1067.6,183.1,1067,185z M1063.4,178.8
	c2.6-1.6,5.8-1.3,8,0.8c1.4,1.3,3.5-0.8,2.1-2.1c-3.1-3-7.9-3.6-11.6-1.3C1060.3,177.2,1061.8,179.8,1063.4,178.8z M1074.2,204.2
	c1.9,0,1.9-3,0-3C1072.2,201.2,1072.2,204.2,1074.2,204.2z M1080.8,195.5v0.3c0,0.8,0.7,1.5,1.5,1.5c0.8,0,1.5-0.7,1.5-1.5v-0.3
	c0-0.8-0.7-1.5-1.5-1.5C1081.5,194,1080.8,194.6,1080.8,195.5z M1081.1,203c1.9,0,1.9-3,0-3S1079.2,203,1081.1,203z M1039.9,189.6
	c-1.2,4-1.1,8.1,0.3,12c0.5,1.4,2.4,1.4,2.9,0c1.2-3.6,1.3-7.4,0.3-11c-0.5-1.9-3.4-1.1-2.9,0.8c0.9,3.2,0.8,6.3-0.3,9.4h2.9
	c-1.2-3.4-1.4-6.9-0.3-10.4C1043.3,188.5,1040.4,187.7,1039.9,189.6z M1038.2,182.1c2.1-1.1,5-0.6,6.4,1.4c1.1,1.5,3.7,0,2.6-1.5
	c-2.5-3.3-6.8-4.4-10.5-2.5C1035,180.4,1036.5,183,1038.2,182.1z M1071.9,236.5c7.7-1.4,14.4-5.5,19.4-11.6c0.9-1.1-0.7-2.7-1.6-1.6
	c-4.7,5.8-11,9.6-18.4,11C1069.9,234.6,1070.5,236.8,1071.9,236.5z"/>
<path id="Path_63_" class="st2" d="M1087.5,223.5c1.8,0.6,3.3,1.5,4.6,2.8c1,1,2.6-0.6,1.6-1.6c-1.6-1.6-3.5-2.7-5.6-3.4
	C1086.7,220.9,1086.1,223.1,1087.5,223.5z"/>
<path id="Path_64_" class="st21" d="M1149.8,92.7c12.7,17.6,29,42.5,44.5,74.3c16.4,33.6,28.4,58.9,19.1,68.9
	c-12.3,13.3-54.8-7.8-61.6-11.3c1.4,9.1,4.9,23.6,15.2,38.1c5.2,7.3,14.3,20.2,31.1,26.2c10.1,3.6,19.1,3.4,22.6,3.1
	c4.7-0.3,10.1-0.7,16-3.9c0,0,7.7-4.1,12.9-12.5c7.9-12.8,3.7-30.1-1.9-51.8c-6.7-26-15.7-43.3-24.5-60.4c-2.2-4.2-4.8-9.1-9-14.8
	c-4.2-5.8-7.3-8.9-20.3-21.4c-19.3-18.7-22.3-21.4-28.1-25.3C1159.4,97.5,1153.7,94.6,1149.8,92.7z"/>
<path id="Path_65_" class="st22" d="M1125.7,262.8c0.8,2.3,2.6,8.8,0,16c-3.9,10.7-14.7,14.3-16.4,14.8c-12.3,4-27.8-2.3-38.2-16
	c1.4,3.6,4.5,10,10.9,15.6c3.2,2.8,11.9,10.3,24.2,9.4c2.1-0.2,15.6-1.2,21.8-12.9C1132.5,281.4,1131.5,271,1125.7,262.8
	L1125.7,262.8z"/>
<g>
	<path class="st23" d="M444.7,1097c8.8-1.3,15.5-6.7,27.9-5.2c12.4,1.5,26.3,6.7,29.2,3.4c2.9-3.3,0.9-7.3-11.4-5.2
		c-5.1,0.8-9.2,0.3-6.3-1.8c2.9-2.1,11.1-10,20.3-12.2c9.2-2.1,39-14.3,42.5-19.2c0.6-0.8,1.2-1.8,1.8-2.9c1.2,0.4,2.4,0.9,3.6,1.3
		c6.4,3.8,13.3,7.1,17.1,9.7c0,0-2,6.3-3.7,12c-1.7,5.7,2,7.7,0.7,13c-0.3,1.3-0.6,2.3-0.9,3.2c-2.9,1.4-7.1,3.2-11.2,1.6
		c-6.1-2.5-19.5-10.2-22.9-8c-3.4,2.2-3.4,6.1,2.6,7.2c1.1,0.2,2,0.4,2.8,0.6c-1.3-0.2-2.5-0.3-3.4-0.3c-6.3,0-11.6,0.3-12.3,4.7
		c-1,6.3,5.7,8,12.3,6.3c6.7-1.7,23-6,30.7-6c7.7,0,17.9,0.6,24.7,2.7c10.4,3.2,16.3,1.2,16.7-2.8c0.3-4-8.7-5.8-14-4.5
		c-5.3,1.3-12.7,3-13.7,1s-0.7-8.3,4.3-12.3c4.1-3.3,8.1-14,6.6-19.4c12,0.8,28.2,1,45.5-0.4c-0.2,1.3-0.2,2.7-0.1,4.2
		c0.1,1,18.7,12,25.3,17c2,1.5,3.6,2.9,4.2,4.1c-1.4,0.9-3.9,1.7-8.1,1.1c-7.9-1.2-22.6-6.8-25.9-4c-2.1,1.8-1.9,4.6-0.1,6.3
		c-4.8,1.1-9.6,3-7.1,7c3.3,5.3,10,2.8,15.3,0.5c5.3-2.3,24.7-6,33-6c8.3,0,26.6,3.9,30.3,4c6.7,0.1,8.1-11.3-2.9-9.4
		c-6.9,1.2-16.8,2.4-22.1,0.7c-5.3-1.7-17.3-15-21-20c-3.7-5,4.7-9,13.3-7.7c8.7,1.3,47.7-3.7,54.7-7.7c2.3-1.3,4.7-4.6,6.2-8.4
		c5.9-1.2,10.4-2.3,14.2-3.5c1.4-0.5,3-0.9,4.7-1.3c0,2.2,1.8,4.8,8.6,6.5c13,3.3,36.3,26.7,37,32.3c0.7,5.7,3.1,6.4-4.6,6.6
		c-6.5,0.2-20.3-0.2-19.4,6.5c0.6,4.7,4.5,5,12.8,3s13.2-5.6,20.3-5.8c7.2-0.2,42,3.4,46.2,5.7c7,3.9,10.5-10.1,1.7-11.3
		c-1.7-0.2-4.5-0.1-7.8,0.1c2.4-1.5,3.8-3.4,3.1-5.6c-1.5-5-5.3-4.2-10.3-1.9c-9.6,4.6-25.8,6.5-34.6,5.3c-1.5-1.2-2.4-2.8-2.8-5.2
		c-0.8-5.8-11.1-32.1-23.4-42.6c4.3-1.4,8.2-3,11.3-5c10.7-7.1,40-14.8,59.9-28.6c34.4-23.9,62-60.4,71.1-71.1
		c9.2-10.7,42.4-40.9,47.8-44.3c10.7-6.7,23-7.9,35.6-1.6c17.3,8.7,15.8,31.6,7.1,39.2c0,0-6.1,7.3-15.2,7.2
		c-6.1,0-15.7,0.3-21.3-11.4c-2.9-6-2.7-16.4,6.5-22.8c6-4.2,16.2-2.8,20.6,3.9c3.3,5.2,0.2,19-9.3,15.9c-8.4-2.8,2.1-10.3,1.4-11.8
		c-1.1-2.4-6.9-1.9-9.1,1.6c-5.4,8.5-2.2,17,7.7,18.3c10.8,1.5,16.8-8.2,16.8-8.2c10.7-20.9-5.5-31.3-20.4-31
		c-15.4,0.3-26.2,11.8-29.5,25.9c-4.4,18.9,10,36.1,31.9,39.7c21.9,3.6,43.4-8.6,47.5-31.5c4.1-22.9-10.2-42.3-22.9-51.4
		c-12.7-9.2-33-8.5-44.7-3.4c-11.7,5.1-43.9,24.5-60.6,37c-29,21.6-77.4,58.9-91,67.4c-11,6.9-28.8,15.7-28.8,15.7
		s-8.6,3.1-17.4,2.8c0.1-0.1,0.2-0.1,0.2-0.1s-4-3.7-6-5c-2-1.3,1.7-3,1.7-3s-5-0.3-8.3,0.3c-3.3,0.7-4-1-4-2.7c0-1.7,3.3-4,2.7-4.3
		c-0.7-0.3-9-0.7-11,0c-2,0.7-4.3,1-4-0.7c0.3-1.7,2.7-6,2.7-6c-3-2-16,0.7-20,0.3c-4-0.3,5.3-7.7,1-8c-4.3-0.3-15.7,0.3-17,0
		c-1.3-0.3,3-6.7,3-6.7c-1.7-1.3-13,3.3-17.3,3.3c-4.3,0,5.7-5,1.7-6.3c-4-1.3-16.3,4-19.7,4.7c-3.3,0.7,3.7-8.7,3.7-8.7s-3-1-7.3,0
		c-4.3,1-14.7,8.7-18.3,9c-3.7,0.3,4.7-8.7,4.7-8.7s-0.3-1.3-6.3,0.7s-16.3,13.7-17.7,11.7s4-12.7,4-12.7c-4,1.7-18.7,13.3-21,15.7
		c-2.3,2.3-4.7,2.3-5.3-0.7c-0.7-3,2.3-10.3,2.3-10.3c-5.7,1.3-19.3,17.3-19.3,17.3c-2-2.3,1.3-9.7,1.3-9.7c-4.3,1-11,11-15,16.3
		c-4,5.3-9.7,6-9.7,6c-2.6,1-4.3,2.9-5.5,4.4c-0.6,0-1.2,0-1.7-0.1c-4.6-1,1-6.6,3.1-12.7c2-6.1,1-11.7-7.1-8.7
		c-8.1,3.1-14.3,4.6-22.4,6.1c-8.1,1.5-11.7,1.5-18.8,7.1c-7.1,5.6-16.8,3.6-20.4,8.1c-3.6,4.6-5.6,11.7-12.7,14.8
		c-7.1,3.1-15.8,8.1-16.8,11.7c-1,3.6,10.7,16.3,10.7,16.3c14.8,7.1,36.7,17.8,47.4,20.9c0.9,0.3,1.9,0.6,3,0.9
		c-2.1,4.4-8.5,4.9-14.1,8.4c-5.7,3.6-28.5,21.6-34.2,25.5c-1.6,1.1-3.9,2.3-6.4,3.4c0-0.1-0.2-0.2-0.6-0.2c0,0-9.7,1.9-17.2,1
		c-14.7-1.8-18.2-9.4-24.5-4.8c-5.1,3.7,0,5.3,4.1,6.8c1.5,0.6,2.5,1,3.2,1.3c-5.8-0.1-10.9,0.2-11.6,1.8
		C427,1093.5,427.5,1099.6,444.7,1097z M962.3,907.9c-1.3,0.7-3.4,0.7-4.1,0c-0.7-0.7,0.7-3.8,1.5-3.6
		C960.3,904.4,963.6,907.2,962.3,907.9z M984.3,908.3c0.7,0.3,0.8,1.6-0.2,2.4C983.2,911.6,984.3,908.3,984.3,908.3z M982.3,919.1
		c-1.1-0.5-1-2.9-0.2-2.8C982.7,916.4,983.5,919.6,982.3,919.1z M983.5,905.7c-1.1-0.3,0.7-2.4,1.3-1.6
		C985.8,905.2,984.6,906.1,983.5,905.7z M988.5,918.9c-1.1-0.7,0.2-2.3,0.8-1.6C989.4,917.3,989.7,919.6,988.5,918.9z M1003,897.3
		c-1.5-0.8-1.6-1-1-2c0.7-1,1.1-2.3,2.3-1.1c0.6,0.6,2.8,2.3,1.3,2.4C1004.2,896.8,1004.5,898.1,1003,897.3z M1001.7,905.7
		c-0.7-0.5-1.8-3.7,0-2.8l0.5,0.7C1002.6,904.1,1002.4,906.2,1001.7,905.7z M1001.6,916.7c0.3,0.5-1.1,1.8-2.6,2.1
		c-1.5,0.3-1.1-2.4-0.5-3.1C999.1,915,1001.2,916.1,1001.6,916.7z M992.9,891.2c0.3-1,2.3,1.6,2.3,1.6
		C994.7,893,992.6,892.2,992.9,891.2z M979.6,887c0.2-0.7,5.1-1,5.1-1c1.1,0.5,0.2,4.2-0.8,3.7c-1-0.5-1.1-1-1.6,0.2
		C981.7,891.1,979.4,887.6,979.6,887z M969,896.3c1.3,0.5,4.1-1.5,4.1-0.2c0,0-1.5,4.4-2.4,3.6C969.6,898.9,967.7,895.8,969,896.3z
		 M972.1,925.3c-0.7,1.1-4.6,0-4.7-1.3c-0.2-1.3,1-1-0.5-2.8c-1.5-1.8,1-1.6,2.8-0.5C971.4,921.9,972.5,924.6,972.1,925.3z
		 M987.7,947.3c-0.4,0.3-6.8-0.5-7-2.1c-0.2-1.6,1.8-7,2.6-5.5c0.8,1.5,0.7,3.7,1.8,2.4C986.3,940.8,988.9,946.5,987.7,947.3z
		 M1002.2,934.4c-1.5-0.7-0.2,1.8-1,2.6c-0.8,0.8-5.1-5.7-3.7-5.9c1.3-0.2,5.4-2.8,6-2.4C1005.2,929.7,1003.7,935.1,1002.2,934.4z
		 M1023.7,891.4c-1.3,0.2-4.4-0.2-3.4-1.8c1-1.6-2.4,0.3-1.3-2.3s3.4-5.7,4.9-4.6c0,0,2.1,2,2.6,4.4
		C1027,889.6,1025,891.2,1023.7,891.4z M1017.1,934.6c0.2-1.8,0.7-2.4,3.4-2.9c0.8-0.2,3.3,1.1,2.6,3.6c-0.7,2.4-1.5,2.1-4.6,2.8
		C1015.4,938.7,1016.9,936.4,1017.1,934.6z M1017.7,907.9c0.8-1.3,5.1,1.3,5.1,1.3s-2.4,3.9-5.1,2.3
		C1015.1,909.8,1016.9,909.2,1017.7,907.9z M998.3,879.5c1.3-1.1,2.3-6,3.4-5.4c1.1,0.7-1.1,4.1,0.2,3.3c1.3-0.8,1.8-1.1,2,0.2
		c0,0,1.1,4.7-0.3,4.6C1002.1,881.9,997,880.6,998.3,879.5z M986.3,863.7c1.5-1,6.7,0.8,6.7,0.8c1,0.5-1.8,4.9-3.3,3.4
		s-0.8,0.5-1.5,2c-0.7,1.5-1.6-0.3-2.4-2.1C985,866,984.8,864.7,986.3,863.7z M961.5,875.8c0.7-2,2.9-2.9,4.1-0.7
		c1.1,2.3,2,2.3,1.5,0.5c-0.5-1.8,0-6.4,1-4.1c1,2.3,1.6,5.2,2.3,3.6c0.7-1.6,1-1.6,1.6-0.7c0.7,1,3.9,1.8,3.6,2.8
		c-0.4,1.1-7.8,4.4-9.6,4.4C964.1,881.6,960.8,877.7,961.5,875.8z M949.9,881.3c0.2,1.3,1.5,2.9,0,2.6c-1.5-0.3-3.7-3.3-5.4-4.2
		c-1.6-1,2.9-2.6,4.6-2.9c1.6-0.3,5.5-2.9,5.5-2.9c1-0.3,0.8,2.8,1.5,4.2c0.7,1.5-1.1,1-2.9,0.2c-1.8-0.8-0.5,1,1.3,2.9
		c1.8,2-0.8,2.9-2.3,1C950.7,880.2,949.8,880,949.9,881.3z M934,904.1c1.3-0.5-0.8-1-0.3-4.1c0.5-3.1,0.5-4.6,2.8-2.6
		c2.3,2,3.8,1.3,2.6-1.5c-1.3-2.8-2.3-9.2,1-6.1c3.3,3.1,3.3,6.4,5.1,3.1c1.8-3.3,4.6-1.8,5.9-0.3c0,0-17.4,16.6-18.7,15.4
		C931.2,906.6,932.8,904.6,934,904.1z M911.2,908.4c-1,2.3-4.9-0.5-4.9-2c0-1.5,20.1-14.8,20.1-14.8c1-0.8-0.1,5.6,0.4,11.2
		c0.5,5.6-1.8,2-4.4-0.8s-3.6-0.3-2.3,4.9c1.3,5.1-2.6,1.3-5.1-0.3C912.5,905.1,912.3,906.1,911.2,908.4z M899.7,929.4
		c3.8,0.8-1-5.4-2.6-8.5c-1.5-3.1,4.4-0.5,6.9,1c2.6,1.5-1.3-3.6-0.5-6.7c0.8-3.1,9.2,7.9,9.2,7.9c-1.8,4.9-12.8,13.8-14.1,15.4
		c-1.3,1.5-1-1-3.3-6.1C893.1,927.4,895.9,928.6,899.7,929.4z M874.9,946.1c-4-2.3-2-1.3-3,2.3c-1,3.7-4.7-2-6.7-4s-2.3,0.7-3-2.3
		c-0.7-3,21-18.3,21-18.3c-3,1.7-0.3,7.7,3,13c3.3,5.3,0,5.3-3,2.3s-5.7-0.7-3.7,3.7C881.5,947.1,878.9,948.4,874.9,946.1z
		 M856.5,974.1c0-3.3-6.7-11.7-3-9.7c3.7,2,8.7,10.3,7.7,5.7c-1-4.7-3.7-6-4.3-9.3c-0.7-3.3-3-8.3,2-3.3s7.3,8,8.3,6
		s7.3,2.3,6.7,4.3c0,0-15.7,16-17.3,14.3C854.9,980.4,856.5,977.4,856.5,974.1z M559.9,973.1c2.3-3.3-4.3-3-7-3.3
		c-2.7-0.3-6.7,6.3-13.3,9c-6.7,2.7-13.3,5-18.3,5.7c-5,0.7-8.3,1-14.3,1.7c-6,0.7-3.7,3-8,6.7c-4.3,3.7-11,6-11,6
		c3.7-1.3,10-8,12.7-11c2.7-3,4.7-4.3,12-6c7.3-1.7,9-2,14.7-3.3c5.7-1.3,11-2.3,18-8c7-5.7,10.7-3,15.7-2.3
		C565.9,968.7,559.9,973.1,559.9,973.1z M517.2,989.1c1.7,0,6.7,0.7,6.7,5.7s0.3,10.7-7.3,12c-7.7,1.3-12.3-2.3-12.3-6.3
		S511.2,989.1,517.2,989.1z M546.7,994.1c-1.6,0-1.6,0.5-4.3-2.1s-3.7-9-1.1-8c0,0,3.2,2.1,5.3,4.8
		C548.8,991.5,548.3,994.1,546.7,994.1z M552.6,978.2l2.7,6.9c0,0-0.5,4.3-2.1,3.2c-1.6-1.1-2.1-5.3-4.3-5.3
		C546.7,983,549.4,976.6,552.6,978.2z M541.9,998.4c-0.5,2.1-3.2,2.1-6.9,0c-3.7-2.1-1.1-4.3,0.5-5.3
		C537.1,992,541.9,998.4,541.9,998.4z M561.9,989.7c-3.3,2-9,4.7-11,12.3c-2,7.7,2.7,21,1,21.7c-1.7,0.7-2.3,2.3-4-3.3
		c-1.7-5.7-0.3-14-2-12c-1.7,2-1.7,9.7-2,5.3c-0.3-4.3-1-9,2.3-12.7c3.3-3.7,15.3-15,14.3-13.7C560.5,987.4,565.2,987.7,561.9,989.7
		z M570.6,995.7c-3.2,0-3.7-2.7-1.6-3.7c2.1-1.1,7.4-2.7,7.4-2.7C578.6,989.9,573.8,995.7,570.6,995.7z M575.9,1005.8
		c-2.7,0-10.1-0.5-5.8-2.7c0,0,1.6-3.7,4.3-2.1C577,1002.6,578.6,1005.8,575.9,1005.8z M751.6,983.2c0,0-12.1-4.8-23.5-9.3
		c-2.6-1-5.1-2-7.4-2.9c-5-2-9.2-3.6-11.1-4.3c-7-2.5-16.5-1-35-3.5c-18.5-2.5-21-0.5-31.5,0.5c-10.5,1-16,2-31,6.5
		c-2.9,0.9-5.7,1.7-8.2,2.3c-3.7,1-7,1.8-9.7,2.4c-5.1,1.2-8.1,1.7-8.1,1.7c9.5-2,33-11,33-11c1.8-0.7,3.6-1.4,5.4-2
		c14.8-5,29.5-5.9,42.7-5.3c14.4,0.7,27.2,3.2,36.9,4.2c0.2,0,0.4,0,0.6,0.1c13.1,1.3,29.7,10.1,39.3,15.7
		C748.6,981.2,751.6,983.2,751.6,983.2z M616.3,980.3c-2.7-1.1-1.6-2.1,1.6-3.7c3.2-1.6,7.5,0,9.6,0.5c2.1,0.5-1.6,4.3-5.3,3.7
		S619,981.4,616.3,980.3z M624.3,988.3c0,0,3.2,6.9,0.5,6.9S618.5,986.2,624.3,988.3z M667.5,1000.4c2.7,5,0.7,16,3,11.7
		c2.3-4.3,3.7-17.3,4.3-13.7c0.7,3.7,0.3,9.3,1.3,5c1-4.3,9.7-14,10-12c0.2,1.5,0.3,0.7-3,7c-3.3,6.3-6.3,13-6.3,16.7
		c0,3.7-1.3,8.7,1.3,4.7c2.7-4,7.7-8,5.7-4s-5.3,11.3-4.7,13.3c0.7,2,3.3,1-3.3,2.7c-6.7,1.7-19,8.3-20.7,5.7
		c-1.7-2.7-3.3-11.7,0.7-8.7s8.3,11.3,6.7,0.7C660.9,1018.7,664.9,995.4,667.5,1000.4z M663.1,994.7c-4.3,0-2.7-6.4,0-4.8
		C664.8,990.9,667.4,994.7,663.1,994.7z M682.8,976.1c1.6-1.1,6.9,0.5,10.6,0.5c2.1,0-3.2,5.3-9,4.3
		C678.5,979.8,681.2,977.1,682.8,976.1z M711.9,1006.4c1,9,5,18.3,1.7,15c-3.3-3.3-7.3-7.7-7.7-5.3c-0.3,2.3,0.3,4.3-4,1
		c-4.3-3.3-1.4,2.2-4.4,2.2s-5.2,0.2-0.9-14.8s4.1-31.9,7.4-31.6c2.7,0.3,2.8-1.5,9.8,0.8c7,2.3,9.7-0.3,11,4.3
		c1.3,4.7,0.4,5.7-4.9,9.4C714.6,991.1,710.9,997.4,711.9,1006.4z M723.7,991.5c-1.1-4.3,4.8,0.5,4.8,0.5
		C729.6,993.1,724.8,995.7,723.7,991.5z M726.9,1004.2c0,0,1.1,5.3-1.6,4.8C722.7,1008.5,724.2,1002.1,726.9,1004.2z M751.9,997.3
		c-2.1-2.1,3.7-8,5.8-3.7C758.7,995.6,754,999.4,751.9,997.3z M827.5,985.4c-4,2-5.7-3.7-8.7-5.7s-4-0.7-5-3.3
		c-1-2.7,17.9-13.7,18-12.7c0.7,7.5,3.7,8.3,8,14c4.3,5.7-1.3,3.7-4.7,0c-3.3-3.7-3.3-0.7-2,3c1.3,3.7,7,7,5,8.3
		C836.2,990.4,831.5,983.4,827.5,985.4z M806.5,996.7c2.3,0.7-1-3,0.7-5.7c1.7-2.7,6.7,4.7,11,9.7c4.3,5,9.8,3,9,3.7
		c-6,5-19.3,11.3-22,11c-2.7-0.3,0.7-7.3,0.7-12c0-4.7-2.3-3.7-3.7-8.3C800.9,990.4,804.2,996.1,806.5,996.7z M774.2,1011.4
		c-1.7-5-4.3-10.7-4.3-6.7s3.7,14.7-1.3,9c-5-5.7-9-17.7-6-20.3c3-2.7,4.3-4.3,8-4.3c3.7,0,16.3-0.8,16.3-0.8s4.1-2.5,3.7,0.1
		c-0.3,2.7-3.3,5.3-3,11c0.3,5.7,3.3,10.7,4.3,13.3c1,2.7,2,4.3,1,5c-1,0.7-2,4.7-5.7,0.7c-3.7-4-9-10.7-9-8
		C778.2,1013.1,775.9,1016.4,774.2,1011.4z M730.5,1015.4c4.3-0.7,5-1.7,4-8c-1-6.3-1.3-14-1.3-19.7c0-5.7,3.7,3.7,6.7,7
		c3,3.3,0.3-4,1-8c0.7-4,2.1,1.8,3.7,2.3c1,0.3,4,21.3,6.7,27.7c2.7,6.3,9,7,18.7,9.7c7.4,2,5.1,3.6,1.2,5.1
		c-1.2,0.5-2.6,0.9-3.9,1.4c-5.3,2-10,1.1-15,3.1c-1.1,0.5-2.2,0.8-3.2,1.2c-3.5,1.1-6.4,1.4-8.4,0.2c-2.7-1.7-7.7-11-12.7-15.7
		C722.9,1017.1,726.2,1016.1,730.5,1015.4z M707.2,1027.8c-6.5-0.3-14.8,1.1-11.9-0.6c0,0,2.6-1.7,7.2-2.1c1.6-0.1,3.4-0.1,5.5,0.3
		c0.2,0,0.5,0.1,0.7,0.1c8.2,1.7,17.9,6.3,18.2,14.5c0,0,0.9,2.8-1,5.9c-0.3,0.5-0.6,1-1,1.5c0,0,0.2-0.5,0.4-1.3
		c0.4-2.1,0.5-6.3-3.8-11.2C716.3,1029.1,713.7,1028.1,707.2,1027.8z M716.7,1047.8c0-0.9,0-1.9-0.2-3c-0.7-5-8.5-10.5-13.3-12.4
		c-1.4-0.4-2.4-0.7-2.4-0.7c0.6,0,1.4,0.3,2.4,0.7c3.2,1,9,3.1,12.1,6.5c2.3,2.4,3.6,5.6,4,8.4c0.4,2.8-0.2,5.1-1.7,5.5
		C715.1,1053.5,716.6,1051.8,716.7,1047.8z M692.5,1036.3c-2.7-1.3-5.1-1.6-6.7-2.9c-1.6-1.3,2.1-1.8,2.9-1.6c1.1,0.3,8.3,4,11,7
		c2.7,2.9,3.2,4,5.9,8.3c0.7,1,1.2,2,1.7,2.7c1.4,2.5,1.9,3.8,1.3,4.2c-0.4,0.3-2.2-1.4-4.1-3.6c-1.9-2.2-4-4.8-5-6.6
		C697.3,1040.4,695.2,1037.7,692.5,1036.3z M678.3,1040.6c-3.8-2.4-4.6-1.6-5.4-3.2c-0.8-1.6,4-1.5,4.8-1.3c1.3,0.3,11,8.3,13.9,11
		c2,1.8,2.5,4.2,2.6,5.6c0.1,0.7,0,1.1,0,1.1s-0.5-0.3-1.2-0.9c-1.4-1.1-3.7-3-5.3-4.7C685.6,1045.4,682.1,1043,678.3,1040.6z
		 M663,1045.7c-3.5-2.1-6.4-2.1-6.2-2.9c0.3-0.8,4.8-0.8,4.8-0.8c2.1-0.3,10.5,5.9,12.9,9.4c1.5,2.2,2,4.2,2.1,5.4
		c0.1,0.7,0,1.1,0,1.1s-0.4-0.3-1-0.9c-1.5-1.3-4.2-3.8-5.7-5.3C667.9,1049.5,666.5,1047.9,663,1045.7z M648,1052.7
		c-5.1-1.3-4-0.8-4.3-1.9c-0.3-1.1,2.7-2.1,2.7-2.1c1.3-0.3,9.4,3.2,12.6,5.4s2.7,4.8,1.1,3.8C658.5,1056.7,653.1,1054,648,1052.7z
		 M635.7,1059.4c0.8-1.3,3.2,0,7,0c2.2,0,4.8,1.4,6.6,2.6c1.2,0.8,2,1.5,2,1.5c1.9,1.1-1.1,0.8-3.8,0.3c-1.2-0.2-2.1-0.7-3-1.1
		c-1.1-0.6-2.1-1.1-3.5-1.3c-2.4-0.3-2.4,0.3-4.6,0.8C634.3,1062.6,634.9,1060.7,635.7,1059.4z M629.2,1036.1c0,0,0,0-1.7-9
		c-1.7-9,0-16.7,1-23.3c1-6.7,12.7-26.3,16-30.3c3.3-4,6.7-4,15-3.3c8.3,0.7,14-0.3,18-1.3s5.7,2,5.7,2s-10,4.3-12,8
		c-2,3.7-5.3,3-9,3.3c-3.7,0.3-17.3,14.7-20,19.3c-2.7,4.7-1,8-0.7,13.7c0.3,5.7-4.3,0.7-4.3,0.7c-1.7,1.3-0.3,7.7,3.3,15
		c3.7,7.3,2.7,5.3,2.3,10c-0.3,4.7-3.7-0.7-5.3-6.3c-1.7-5.7-2-0.3-2,4c0,4.3,2.7,6,1.3,9C635.5,1050.4,629.2,1036.1,629.2,1036.1z
		 M607.3,996.3c2.1-9.6,6.4-10.6,4.8-3.7c-1.6,6.9-1.6,15.4-0.5,17.5c1.1,2.1,1.6-3.7,2.1-8.5c0.5-4.8,4.8-5.8,2.7,2.1
		c-2.1,8-2.7,8.5-1.6,15.4c1.1,6.9,3.7,14.4,3.7,10.1c0-4.3-2.1-19.7,0-14.4c2.1,5.3,3.2,8.5,3.7,16.5c0.5,8,0.5,12.8,4.3,15.9
		c3.7,3.2,8.5,6.4,2.7,8.5c0,0-1.6,1-3.6,1.9c-2.4,1.1-5.5,2.1-7.5,1.2c-3.7-1.6-8.4-15.2-10.6-23.2c0,0,0-0.1,0-0.1
		C605.2,1027.6,605.2,1005.8,607.3,996.3z M595.9,1045.7c-3-7.7-1.7-13-5-13.3c-3.3-0.3-2.7,1.3-2.3,4c0.3,2.7-0.3,6-2,1.3
		c-1.7-4.7-3-9.7-3.7-7.3c-0.7,2.3,4,13.3,0.3,8.7c-3.7-4.7-4-4-4.3-12s4-23.3,4.7-30c0.7-6.7,0-11.3-2.3-12c0,0-5-2,0.7-3.3
		c5.7-1.3,21.7-8.3,22.7-6.7c0,0,3-1.3,3,0.7s-0.3,4-3,8.3c-2.7,4.3-3.7,8.3-4,13.7c-0.3,5.3,1.3,11,0.3,14.7c-1,3.7-1.3,8-3.7,8
		c-2.3,0-4-1.7-3.3,2.7c0.7,4.3,4,19.7,7,22.7s7,8.3,3,6C599.9,1049.4,598.9,1053.4,595.9,1045.7z M578.3,1052.2
		c-7.1-10.5-13-21-12.3-17.8c0.7,3.2,1.1,3.9-1.1,1.6c-2.3-2.3-5.5-6.6-4.3-6.6c0,0,3.4,0,0.7-3.4c-2.7-3.4-3.9-8.7-3.9-13.5
		c0-4.8,0.9-3.9,2.7-2.1c1.8,1.8-1.8-2.5,0.2-6.2c2.1-3.7,2.5-5,3.2,0.9c0.7,5.9,1.1,19.9,3.9,23.7c2.7,3.9,2.3,2.1,1.6-1.6
		c-0.7-3.7,0.9-11.9,1.6-6.2c0.7,5.7,2.7,16,5,19.4c2.3,3.4,12.8,16.2,16.7,18.3c3.9,2.1,6.2,4.1,3.9,3.9c-2.3-0.2-3.4,0.9-5.5-0.7
		C588.6,1060.4,585.4,1062.7,578.3,1052.2z M581.7,1066.2c-1.7-0.1-1.3,0.1-4.4,0c-3.1-0.1-3.1-0.4-6.1,0.4c-3,0.8-0.8-1-0.3-1.6
		c0.5-0.5,3.5-0.5,6.5-0.4c3,0.1,7.2,0.8,7.9,0.8l0.4-0.3C586.7,1065.2,583.4,1066.3,581.7,1066.2z M570.8,1077.9
		c2.3,0.4,7.4,1.6,7.4,1.6c0.8,0.3-2.8,1.3-5.4,0.6s-2.7-0.6-4.9,0.1c-2.2,0.8-1.2-0.9-1.3-1.6
		C566.4,1078,568.5,1077.5,570.8,1077.9z M574.6,1071.3c2.2,0.5,7.4,1.9,8.4,2.2c1.2,0.4-2.5,1.3-5.2,0.6c-2.7-0.6-1.9-0.4-4.7-0.6
		c-2.7-0.3-1.9-0.3-4.4,0c-2.5,0.3-0.5-1.6,0-2.2C569.3,1070.6,572.4,1070.7,574.6,1071.3z M566.7,1059.9c0-1,3-1.2,6.9-1.7
		c3.9-0.5,4.7-0.8,4.7-0.8c0.9-0.1,0.3,1.2-1.9,1.7c-2.2,0.5-2.7,0.4-4.8,1.2c-1.4,0.5-1.9,0.6-2.5,0.9c-0.3,0.1-0.5,0.3-0.9,0.6
		c-1,0.7-1.3-0.3-1.4-1.3C566.7,1060.3,566.7,1060.1,566.7,1059.9z M560.8,1055.1c0.9-0.9,2.7-1.3,5.6-1.4c2.8-0.1,6.2-0.3,6.6-0.3
		h0.5c0.5,0-5,1.9-8,2.5c-3,0.5-0.9,0.3-2.5,0.9c-1.4,0.6-0.4,1.4,0,2.5c0.1,0.1,0.1,0.3,0.1,0.5c0.3,1.3-1.2-0.1-2.2-0.6
		c-0.3-0.1-0.5-0.4-0.6-0.7C560,1057.4,560.2,1055.8,560.8,1055.1z M557.4,1050.5c4-3,9.9-0.1,8.6,0c-5.6,0.5-5.1,0.8-8,2.4
		c-2.9,1.6-0.3,1.9-1.9,1.9S555.1,1052.3,557.4,1050.5z M551.3,1046.6c0.8-0.3,1.8-0.6,2.9-0.9c3.8-0.8,7.2,0,7.2,0
		c1.1-0.3-1.3,1.3-4.6,1.6c-3.2,0.3-1.9,0.3-4.6,1.9c-2.7,1.6-1.1,1.6-1.6,3c-0.3,0.6-0.7,0.5-1.2,0c-0.5-0.6-1-1.6-1.2-2.4
		C548.1,1048.6,549.3,1047.4,551.3,1046.6z M544.2,1043.3c0.8-1.3,2.7-2.4,6.9-2.7c0,0,0.1,0,0.1,0c4.3-0.3,7.2,0.8,7.2,0.8
		s-3.5,1.1-6.7,1.1c-0.1,0-0.1,0-0.2,0c-3,0-3.1,1.1-5.7,3.8c-1,1-1.3,1.5-1.4,1.7c0.1,0.1-0.1,0.2,0,0c-0.1,0-0.2-0.1-0.5-0.1
		C542.6,1047.9,543.4,1044.6,544.2,1043.3z M542.3,1035.9c0.2-0.1,0.4-0.2,0.6-0.3c4-2.1,7.2-2.1,11.5-1.1c4.3,1.1,5.7,1.9,6.4,2.7
		c0.8,0.8-4.8,0-7.8,0.3c-2.9,0.3-3.5-0.5-7-0.5c-0.2,0-0.4,0-0.6,0c-2.8,0.1-2.1,1.2-2.9,3.7c-0.8,2.7-2.1,3-2.1,3
		C538.2,1042.3,538.8,1038.1,542.3,1035.9z M537.2,1011.7c-4,0.3-3.3,0-7.7,1c-4.3,1-11-1-7.3-1.7c3.7-0.7,12-8.7,14-5.3l0.7,1.3
		C537.2,1008.4,541.2,1011.4,537.2,1011.7z M530.5,1024.7c-7-1.3-15.7-1.7-12.7-3.7s4.3,0,8.7-1c4.3-1,5-2.7,6-1.7
		c0,0,2.3,2.3,2.3,4C534.9,1024.1,537.5,1026.1,530.5,1024.7z M527.2,1040.4c-5.3-1.7-5-2.3-10.3-6.3s-7.3-7-13-8.7
		c-5.7-1.7-10-3.7-14.7-4.7c-4.7-1-13-5.3-13.3-6.7c0,0,2.3,0.7,12,3c9.7,2.3,13.3,0.3,19.7,4.7c6.3,4.3,13.3,9.3,16,9.3
		c2.7,0,7.3,0.7,7.3,3.3C530.9,1034.4,532.5,1042.1,527.2,1040.4z"/>
	<path d="M515.6,992.8c0,0,3.4,0,2,2.4s-5.4,1-5.4,1S508.7,991.3,515.6,992.8z"/>
	<path d="M707.6,1011c0.1,0.2,0.1,0.3,0.1,0.3S707.6,1011.2,707.6,1011z"/>
	<path d="M592.5,1024.7c-0.8-0.7-1.5-2.7-1.6-5c0.1,0.2,0.2,0.5,0.3,0.7C592.4,1023.1,593.4,1025.5,592.5,1024.7z"/>
	<g>
		<path class="st24" d="M737.9,1019.1c2.9,0,2.4,1.5,1.9-3.9c-0.5-5.4-1.9-12.2-1-14.6c1-2.4,1,11.2,3.9,12.2c2.9,1-1-7.3-0.5-9.8
			c0.5-2.4,1.5,4.9,2.4,9.8c1,4.9,2.9,8.8,4.4,8.3c0,0,1.5,5.4,6.3,6.8c1.9,0.6,3.9,1.3,5.4,2c2.4,1.1,3.9,2.1,2.4,2.4
			c-2.4,0.5-9.3,0-12.7,2.9c-0.3,0.2-0.5,0.5-0.8,0.6c-2.6,2-2.7,0.4-3.1-3.6c-0.5-4.4-3.9-1.9-8.3-8.8S734.9,1019.1,737.9,1019.1z"
			/>
		<path class="st24" d="M707.6,1011c-0.4-1.2-2-6.1-2.8-9.5c-1-3.9-1.5,8.3-2.4,10.7c-1,2.4-3.4-7.8-1-14.1c2.4-6.3,5.4-18,7.3-22.9
			s2,2.4,6.8,1.9c4.9-0.5,5.4,2,5.4,2c2,0.5-6.8,7.8-10.7,18.5C706.8,1006.6,707.3,1010.1,707.6,1011z"/>
		<path class="st24" d="M639.4,989.8c1.7-2.6,3.7-6.2,5.9-9.4c2.2-3.3,4.6-6.1,6.8-7.1c0,0,0,0,0,0c4.4-1.9,14.1,0.5,14.1,0.5
			c-0.9,3.1-14.4,12.4-16.4,11.1c-0.2-0.1-0.3-0.4-0.2-0.9c0.8-3.5-3.4,2.7-7.4,9.5c-0.7,1.2-1.4,2.5-2.1,3.7
			c-0.2,0.5-0.5,0.9-0.7,1.4c-3.6,6.9-3.9,8.7-5.3,14.2c-0.3,1.1-0.6,2.4-1,3.9c-0.1,0.5-0.3,1-0.4,1.5c-1,4.3-0.6,7.3-0.3,9.5
			c0.3,1.7,0.5,3,0.1,4.1c-0.7,1.9-1.4-0.9-1.7-6.6c-0.1-2.4-0.2-5.2-0.2-8.5c0-1,0.1-1.9,0.1-2.9
			C631.5,1003.7,636.3,994.7,639.4,989.8z"/>
		<path class="st24" d="M592.6,1013.7c-1.2,1.6-1.7,3.5-1.7,5.3c0,0.2,0,0.5,0,0.7c-0.7-1.6-1.4-3.3-1.7-4.6
			c-0.7-2.5-1.7,2.2-1.8,7.4c0,1.8,0.1,3.7,0.3,5.3c0.7,4.7-1,0.5-1.7-4.3c-0.3-1.7-0.4-3.5-0.3-5c0.5-5.9-0.5-9.8,2-13.7
			c2.4-3.9,1.9-9.8,1.5-15.6c-0.3-4.1-1.6-5.5-1.2-6.4c0.2-0.4,0.7-0.6,1.7-0.9c3.4-1,10.2-2.9,10.2-2.9c0.4-0.1,0.6,0.1,0.7,0.5
			c0.4,1.9-2.9,9.2-4.6,16.1c-1,4.4-1,6.8-0.4,9.1c0.5,2,1.4,3.8,2.3,6.5c1.2,3.7-0.1,2.1-2,1.4c-0.8-0.3-1.8-0.4-2.7,0.3
			C593,1013.2,592.8,1013.4,592.6,1013.7z"/>
		<path class="st24" d="M769.1,999.6c-1,2.4-2.4,3.4-3.4-2.4c-1-5.9,2.4-4.9,7.8-5.4s10.7-1,10.7-1c2-0.5,2,18,3.9,22.4
			c2,4.4-6.8-8.3-7.3-13.2s-3.4,0-2.4,3.4c1,3.4-4.9-1.5-3.9-5.4C775.4,994.2,770.1,997.1,769.1,999.6z"/>
		<path class="st24" d="M809.5,1003c2.4,2.9,1.5-2.9,2-3.9c0.5-1,7.3,5.4,6.8,7.3c0,0-6.8,5.4-8.8,3.4
			C807.6,1007.9,807.1,1000.1,809.5,1003z"/>
		<path class="st24" d="M669.6,1022.5c-1-4.9,4.9-13.7,3.4-10.2c-1.5,3.4,0.5,14.6,0.5,11.2c0-3.4,3.9,2.9,1.9,4.9
			c-1,1-8.3,6.3-9.8,4.4c-1.5-2-0.5-27.3,0-22.4C666.2,1015.2,670.6,1027.4,669.6,1022.5z"/>
		<path class="st24" d="M821.5,972c2.6-2.6,8.2-4.8,8.2-4.8c1.7,0.6,0.6,7.1,0.9,9.4c0.3,2.3-2-2-3.1-0.3c-1.1,1.7,2.3,3.7,2.6,6
			c0.3,2.3-6.5-4.6-9.1-5.4C818.4,976,819,974.6,821.5,972z"/>
		<path class="st24" d="M858.2,971.2c1.7,1.4,8,3.1,5.7,0c-2.3-3.1-3.7-10-1.4-8c2.3,2,9.1,2,8,4.8c0,0-6.5,8.5-8.5,8
			C859.9,975.5,856.5,969.8,858.2,971.2z"/>
		<path class="st24" d="M869.3,939.6c-1.7,1.4-1.1,3.1-2.8,0.6c-1.7-2.6,10.4-9.7,11.7-10c2.8-0.6,0.6,5.4-1.1,5.1
			c-1.7-0.3-2.6,0.3-0.9,4c1.7,3.7,0.6,4.8-2,3.1C871.6,940.8,871,938.2,869.3,939.6z"/>
		<path class="st24" d="M900.6,931.1c1.7-0.3,5.4-2.3,2.8-4.8c-2.6-2.6-0.9-4.3,1.4-2.3c2.3,2,2.3-0.6,1.7-3.7c-0.6-3.1,4,2,3.1,4.3
			c0,0-8,8.8-9.4,8.2C898.9,932.2,898.9,931.4,900.6,931.1z"/>
		<path class="st24" d="M920.8,898.9c-1.4,0-2.3,2.6-3.1,2.6c-0.9,0-1.1,1.1-0.6,2.8c0.6,1.7-4-0.3-4.6-2l10.5-8
			C924.2,895.2,922.2,898.9,920.8,898.9z"/>
		<path class="st24" d="M937,900.1c2.8,1.1,4.3-0.9,3.7-3.4c-0.6-2.6,4.3-3.4,4.6-0.6c0,0-6.5,7.7-7.7,6.8
			C936.4,902.1,934.2,898.9,937,900.1z"/>
		<path class="st24" d="M611,1024.4c1.6,4.3,3.1,4.3,4.3,10.6c0.4,2.4,0.5,3.2,0.6,3.3c0.1,0.1,0.2-1.3,1-1.9
			c0.2-0.1,0.3-0.2,0.5-0.3c2.1-0.5,3.2,1.6,3.2,7.4c0,1.1,0.3,2,0.8,2.8c0.3,0.5,0.6,0.9,1,1.4c2.6,2.9,6.7,4.4,4,5.9
			c0,0-1.1,1-2.5,1.5c-1.1,0.4-2.4,0.5-3.4-0.4c-2.1-2.1-6.9-9-7.4-14.4c0-0.2,0-0.4-0.1-0.6C612.4,1034.1,609.5,1020.3,611,1024.4z
			"/>
	</g>
</g>
<rect id="_x3C_Slice_x3E_" x="-221" y="848" class="st25" width="15" height="3"/>
</svg>
