<?xml version="1.0" encoding="utf-8"?>
<!-- Generator: Adobe Illustrator 24.3.0, SVG Export Plug-In . SVG Version: 6.00 Build 0)  -->
<svg version="1.1" id="Layer_1" xmlns="http://www.w3.org/2000/svg" xmlns:xlink="http://www.w3.org/1999/xlink" x="0px" y="0px"
	 viewBox="0 0 1600 1200" style="enable-background:new 0 0 1600 1200;" xml:space="preserve">
<style type="text/css">
	.st0{fill:#E8E8E8;}
	.st1{fill:#FFFFFF;stroke:#161616;stroke-width:3.5;}
	.st2{fill:#161616;}
	.st3{fill:#F28705;}
	.st4{fill:#EC615B;}
	.st5{opacity:0.21;fill:#6D6C6C;enable-background:new    ;}
	.st6{opacity:0.25;fill:#6D6C6C;enable-background:new    ;}
	.st7{opacity:0.14;fill:#6D6C6C;enable-background:new    ;}
	.st8{opacity:0.18;fill:#6D6C6C;enable-background:new    ;}
	.st9{fill:#D6D6D6;}
	.st10{opacity:0.2;fill:#6D6C6C;enable-background:new    ;}
	.st11{opacity:0.19;fill:#6D6C6C;enable-background:new    ;}
	.st12{opacity:0.15;fill:#6D6C6C;enable-background:new    ;}
	.st13{opacity:0.22;fill:#6D6C6C;enable-background:new    ;}
	.st14{fill:#FFFFFF;stroke:#161616;stroke-width:2;}
	.st15{fill:#FFFFFF;}
	.st16{opacity:0.11;fill:#6D6C6C;enable-background:new    ;}
	.st17{opacity:0.17;fill:#6D6C6C;enable-background:new    ;}
	.st18{fill:#012C7F;}
	.st19{fill:#4D8BFF;}
	.st20{opacity:0.24;fill:#6D6C6C;enable-background:new    ;}
	.st21{opacity:0.45;fill:#371B9B;enable-background:new    ;}
	.st22{opacity:0.43;fill:#371B9B;enable-background:new    ;}
	.st23{fill:#2168A6;}
	.st24{fill:#F20505;}
	.st25{fill:none;}
</style>
<path id="Shape" class="st0" d="M155.4,1025.2c49.2,2.2,98.4,3.3,147.6,3.2c1.9,0,1.9-3,0-3c-49.2,0.1-98.4-1-147.6-3.2
	C153.5,1022.1,153.5,1025.1,155.4,1025.2z M306,950.8c7.7,28.9,14.9,58,21.5,87.2c0.4,1.9,3.3,1.1,2.9-0.8
	c-6.7-29.2-13.8-58.3-21.5-87.2C308.4,948.2,305.5,949,306,950.8z M440,953c-2.8,27.5-5.6,55.1-8.3,82.6c-0.2,1.9,2.8,1.9,3,0
	c2.8-27.5,5.6-55.1,8.3-82.6C443.1,951.1,440.1,951.1,440,953L440,953z"/>
<path id="Shape_1_" class="st0" d="M328.3,1040.7c17.5,3.1,35.2,4.5,53,4c17-0.5,35.6-1.8,51.8-7.2c1.8-0.6,1-3.5-0.8-2.9
	c-16.1,5.3-34.2,6.6-51,7.1c-17.5,0.5-35-0.9-52.2-3.9C327.2,1037.4,326.4,1040.3,328.3,1040.7L328.3,1040.7z M307.2,951.8
	c20.7,5.8,43.2,5.9,64.6,6c23,0.2,46-1.1,68.8-3.7c1.9-0.2,1.9-3.2,0-3c-22.2,2.6-44.5,3.8-66.8,3.7c-21.7-0.1-44.7-0.1-65.8-5.9
	C306.1,948.4,305.3,951.3,307.2,951.8L307.2,951.8z"/>
<path id="Path" class="st0" d="M298.6,941.5c0.2,1.9,0.4,3.9,0.6,5.8c0.1,1.2,0.1,2.7,0.6,3.8c1.2,2.6,5.2,1.7,7.5,1.7
	c1.9,0,1.9-3,0-3h-3.4c-1.5,0-1.5-0.3-1.6-1.8c-0.2-2.2-0.4-4.3-0.6-6.5C301.4,939.6,298.4,939.5,298.6,941.5z"/>
<path id="Shape_2_" class="st0" d="M300.6,943.1c25,2.9,50.1,4.3,75.3,4.5c12.4,0.1,24.8-0.1,37.3-0.5c6.2-0.2,12.4-0.5,18.6-0.8
	c2.9-0.1,6.9-1.1,9.8-0.5c3.5,0.6,3.3,3.6,3.7,6.7c0.3-0.6,0.7-1.2,1-1.8h-3.9c-1.9-0.4-2.7,2.5-0.8,2.9c2,0.4,3.5,0.4,5.4,0
	c0.9-0.2,1.2-1.1,1-1.8c-0.5-3.5-0.1-7.9-4.3-8.8c-2.5-0.6-5.6,0.1-8.2,0.2c-3.3,0.2-6.5,0.3-9.8,0.5c-14,0.6-28.1,1-42.2,1
	c-27.8,0-55.5-1.3-83.1-4.6C298.7,939.9,298.7,942.9,300.6,943.1L300.6,943.1z M322.3,1015.8c8,10.5,17.4,19.6,28,27.4
	c1.6,1.1,3.1-1.5,1.5-2.6c-10.2-7.5-19.3-16.3-27-26.4C323.7,1012.7,321.1,1014.2,322.3,1015.8L322.3,1015.8z M315.6,985.3
	c15.6,22.5,34.8,42.2,57,58.3c1.6,1.1,3.1-1.5,1.5-2.6c-21.7-15.8-40.6-35.2-55.9-57.2C317.1,982.2,314.5,983.7,315.6,985.3z
	 M309.5,958.5c27,32,57,61.9,92.8,84.1c1.6,1,3.2-1.6,1.5-2.6c-35.6-22-65.4-51.7-92.2-83.6C310.4,954.9,308.3,957.1,309.5,958.5z
	 M338.2,956.8c25.7,29.9,54.2,58.3,86,81.7c1.6,1.1,3.1-1.5,1.5-2.6c-31.6-23.2-59.9-51.6-85.4-81.2
	C339,953.2,336.9,955.3,338.2,956.8L338.2,956.8z M371,958.9c17.4,21.3,37.4,40.3,59.6,56.6c1.6,1.1,3.1-1.5,1.5-2.6
	c-22-16.1-41.8-35-59-56.1C371.9,955.3,369.8,957.4,371,958.9z M397.8,957.8c11.2,12.6,24,23.4,38.2,32.5c1.6,1,3.1-1.6,1.5-2.6
	c-14-8.9-26.6-19.7-37.6-32C398.6,954.2,396.5,956.3,397.8,957.8L397.8,957.8z"/>
<path id="Path_1_" class="st0" d="M259.4,793c6.5,13.7,10.9,28.1,13.4,43.1c0.1,0.7,0.8,1.1,1.4,1.1s3.8-0.1,4,0.9
	c0.1,0.4-1.9,2.7-2.1,3.2c-0.6,1.6-0.6,3.5,0,5.1c0.8,1.9,2.3,3.2,4.1,3.9c0.6,0.3,1.3,0.4,2,0.5c0.6,0.1,1.2,0.1,1.8,0
	c0.8-0.1,0.7,0-0.2,0.4c-1,1.5-2.4,1.7-2.8,3.9c-0.3,2.1,0.7,4.1,1.5,5.9c3.3,7,5.2,14.4,7.9,21.7c9.3,24.8,27.1,45.3,47.2,62.2
	c1.5,1.2,3.6-0.9,2.1-2.1c-20.7-17.4-39.1-38.7-47.8-64.8c-1.1-3.4-2.1-6.8-3.3-10.1c-1-2.9-2.9-5.9-3.8-8.8c-1-1.6-0.9-3.4,0.4-5.2
	l1.2-0.9c0.3-0.5,0.9-0.8,1.2-1.4c0.4-1.1,0.1-2.1-0.7-2.9c-1.3-1.3-3.3-0.6-5-1.1c-6.5-1.9-1.2-6.3-0.7-9.5
	c0.7-4.2-4.5-3.7-7.3-3.9c0.5,0.4,1,0.7,1.4,1.1c-2.5-15.2-7.1-29.9-13.7-43.8C261.2,789.7,258.6,791.2,259.4,793L259.4,793z"/>
<path id="Path_2_" class="st0" d="M260.5,792.3c32.5,8.7,61,30.8,81.7,57c22,27.8,35.7,61.2,43.1,95.7c0.4,1.9,3.3,1.1,2.9-0.8
	c-7.5-35-21.5-68.8-43.8-97c-21-26.5-50-48.9-83-57.7C259.4,788.9,258.6,791.8,260.5,792.3z"/>
<path id="Path_3_" class="st0" d="M272.3,804.7c39.8,38.7,70.5,86.2,89.4,138.5c0.7,1.8,3.6,1,2.9-0.8
	c-19.1-52.7-50-100.7-90.2-139.8C273.1,801.2,270.9,803.3,272.3,804.7L272.3,804.7z"/>
<path id="Shape_3_" class="st0" d="M290,867.6c8.4,0.9,16.6,2.8,24.4,5.9c7.6,3,15.9,6.8,20.7,13.7c1.1,1.6,3.7,0.1,2.6-1.5
	c-4.8-6.9-12.3-10.8-19.9-14c-8.9-3.8-18.2-6.1-27.9-7.1C288.1,864.4,288.1,867.4,290,867.6L290,867.6z M304.9,812.8
	c-0.1,11.5,1.8,22.8,5.5,33.7c0.6,1.8,3.5,1,2.9-0.8c-3.6-10.6-5.4-21.6-5.4-32.9C307.9,810.9,304.9,810.9,304.9,812.8L304.9,812.8z
	 M359.8,867.2c4.9-18.3,21.2-29.2,35.1-40.4c14.8-11.9,29.1-24.6,42.7-37.8c-0.8-0.5-1.7-1-2.5-1.5c-4.5,12.1-5.4,24.8-5.2,37.6
	c0.2,12.8,3.1,27.5-1,39.9c0.5-0.4,1-0.7,1.4-1.1c-3.2,0.2-6.4,0.5-9.6,0.7c-1,0.1-2,1.3-1.3,2.3c2.3,3.1,5,4.1,4.9,8.7
	c0,3.2-0.8,6.9-1.9,9.9c-1.1,3.1-4,5.2-5,8.1c-0.8,2.6,1.2,4.8,1.2,7.4c0.1,4.3-3,7.9-5.2,11.3c-2.1,3.2-4,6.5-5.7,9.9
	c-3.4,6.7-6.1,13.6-8.1,20.8c-0.5,1.9,2.4,2.7,2.9,0.8c2.5-8.9,6.1-17.5,10.8-25.5c3.2-5.4,9.2-11.7,8.5-18.5
	c-0.3-2.7-1.7-3.5-0.5-6.6c0.1-0.1,1.9-2.5,2-2.7c1.9-3.1,2.8-6.6,3.4-10.1c0.4-2.6,1.2-5.8,0.8-8.4c-0.6-3.7-3.4-4-5.5-6.8
	c-0.4,0.8-0.9,1.5-1.3,2.3c3.2-0.2,6.4-0.5,9.6-0.7c0.7-0.1,1.2-0.4,1.4-1.1c3.8-11.6,1.5-25.1,1.1-37.1c-0.4-13.7,0.1-27.5,5-40.5
	c0.6-1.5-1.5-2.4-2.5-1.5c-14.5,14.1-29.7,27.6-45.6,40.2c-13.6,10.8-28.3,21.8-33,39.4C356.4,868.3,359.3,869.1,359.8,867.2
	L359.8,867.2z"/>
<path id="Path_4_" class="st0" d="M426.5,802c-9.8,17.1-19.8,34-29.2,51.3c-8.8,16-16.6,32.6-20.3,50.5c-0.4,1.9,2.5,2.7,2.9,0.8
	c3.8-18.3,11.9-35.1,20.9-51.4c9.2-16.7,18.9-33.1,28.3-49.7C430,801.9,427.4,800.3,426.5,802L426.5,802z"/>
<path id="Shape_4_" class="st0" d="M397,829.8c1.3,5.7,1.9,11.4,1.7,17.2c-0.1,1.9,2.9,1.9,3,0c0.2-6.1-0.4-12-1.8-18
	C399.4,827.1,396.6,827.9,397,829.8z M413.3,810.7c1.1,4.3,1.3,8.5,0.8,12.8c-0.2,1.9,2.8,1.9,3,0c0.6-4.6,0.3-9.1-0.9-13.6
	C415.7,808.1,412.8,808.9,413.3,810.7L413.3,810.7z M414,830.6c5.9-3.5,12-6.6,18.3-9.2c1.8-0.7,1-3.6-0.8-2.9
	c-6.6,2.7-12.9,5.9-19.1,9.5C410.8,829,412.3,831.6,414,830.6z M388.2,880.8c3.8-3.2,7.6-6.3,11.5-9.3c4.1-3.2,8.6-7.5,13.6-9.5
	c1.8-0.7,1-3.6-0.8-2.9c-4.5,1.7-8.2,5-12,8c-4.9,3.8-9.7,7.6-14.4,11.6C384.6,879.9,386.7,882,388.2,880.8L388.2,880.8z
	 M272.4,824.7c7,0.7,14,1.4,21,2c1.9,0.2,1.9-2.8,0-3c-7-0.7-14-1.4-21-2C270.5,821.5,270.5,824.5,272.4,824.7z M455.9,1024.2h481.7
	c1.9,0,1.9-3,0-3H455.9C453.9,1021.2,453.9,1024.2,455.9,1024.2z M879.7,779.2V823c0,1.9,3,1.9,3,0v-43.8
	C882.7,777.3,879.7,777.3,879.7,779.2z M810.7,829.7h145.5c1.9,0,1.9-3,0-3H810.7C808.8,826.7,808.7,829.7,810.7,829.7z"/>
<path id="Shape_5_" class="st0" d="M843.3,884.5v37.9c0,1.9,3,1.9,3,0v-37.9C846.3,882.5,843.3,882.5,843.3,884.5z M918.3,883.7
	v33.4c0,1.9,3,1.9,3,0v-33.4C921.3,881.8,918.3,881.8,918.3,883.7z M870.8,925.3h111.3c1.9,0,1.9-3,0-3H870.8
	C868.9,922.3,868.9,925.3,870.8,925.3z M786.9,1107.2h245.7c1.9,0,1.9-3,0-3H786.9C785,1104.2,785,1107.2,786.9,1107.2z
	 M1125.6,1081.3h309.1c1.9,0,1.9-3,0-3h-309.1C1123.7,1078.3,1123.7,1081.3,1125.6,1081.3z M128.7,1132.5H376c1.9,0,1.9-3,0-3H128.7
	C126.8,1129.5,126.8,1132.5,128.7,1132.5z M294.9,1162.5h201.9c1.9,0,1.9-3,0-3H294.9C292.9,1159.5,292.9,1162.5,294.9,1162.5z
	 M1318,307.5v-83.6c0-1.9-3-1.9-3,0v83.6C1315,309.4,1318,309.4,1318,307.5z"/>
<path id="Path_5_" class="st0" d="M1317.5,223.3h108.3c1.9,0,1.9-3,0-3h-108.3C1315.6,220.3,1315.6,223.3,1317.5,223.3z"/>
<path id="Path_6_" class="st0" d="M1424.3,222c-0.2,28.3-0.4,56.6-0.7,84.9c0,1.9,3,1.9,3,0c0.2-28.3,0.4-56.6,0.7-84.9
	C1427.3,220.1,1424.3,220.1,1424.3,222z"/>
<path id="Shape_6_" class="st0" d="M1318,309h106.8c1.9,0,1.9-3,0-3H1318C1316.1,306,1316.1,309,1318,309z M1320.9,229.7v70.4
	c0,1.9,3,1.9,3,0v-70.4C1323.9,227.8,1320.9,227.8,1320.9,229.7z"/>
<path id="Path_7_" class="st0" d="M1323.1,231.2h94.7c1.9,0,1.9-3,0-3h-94.7C1321.1,228.2,1321.1,231.2,1323.1,231.2z"/>
<path id="Path_8_" class="st0" d="M1416.2,230.4l-0.3,69.1c0,1.9,3,1.9,3,0l0.3-69.1C1419.2,228.5,1416.2,228.5,1416.2,230.4z"/>
<path id="Shape_7_" class="st0" d="M1323.7,302h93.3c1.9,0,1.9-3,0-3h-93.3C1321.8,299,1321.8,302,1323.7,302z M1323.1,281.3
	c11.5-4,23.6-0.4,34.8,2.9c11.4,3.3,22.6,7.3,33.5,11.9c1.8,0.7,2.6-2.2,0.8-2.9c-12.1-5.1-24.5-9.4-37.1-12.9
	c-10.7-2.9-22-5.7-32.8-1.9C1320.5,279,1321.3,281.9,1323.1,281.3z"/>
<path id="Shape_8_" class="st0" d="M1361.1,284.7c18.9-1.1,36.6-8.7,55.3-10.8c1.9-0.2,1.9-3.2,0-3c-18.7,2.1-36.4,9.6-55.3,10.8
	C1359.1,281.9,1359.1,284.9,1361.1,284.7z M1396.9,248.1c-4.2-2.4-0.4-10.3,4.1-8.4c2.4,1,2.9,3.9,1.6,6c-1.4,2.3-4.3,2.7-6.7,2
	c-1.9-0.5-2.7,2.4-0.8,2.9c4,1.1,8.5-0.1,10.5-4c1.8-3.5,0.4-8.1-3.4-9.7c-7.8-3.3-14.2,9.7-6.8,13.8
	C1397,251.6,1398.6,249,1396.9,248.1L1396.9,248.1z M1366.3,221.3c0.1-1.7,0.2-3.4,0.7-5c0.4-1.3,1.4-4.4,2.9-5
	c2.7-1,3.7,8.5,3.9,10.3c0.2,1.9,3.2,1.9,3,0c-0.3-3.5-1.1-14.5-6.7-13.7c-2.4,0.3-4.1,3-5,5c-1.2,2.6-1.6,5.5-1.7,8.3
	C1363.3,223.2,1366.3,223.2,1366.3,221.3L1366.3,221.3z M1383.1,687.8v36.1c0,1.9,3,1.9,3,0v-36.1
	C1386.1,685.9,1383.1,685.9,1383.1,687.8z"/>
<path id="Path_9_" class="st0" d="M1346.8,645.3h81.7c1.9,0,1.9-3,0-3h-81.7C1344.9,642.3,1344.9,645.3,1346.8,645.3z"/>
<path id="Shape_9_" class="st0" d="M1358.3,646.2v17c0,1.9,3,1.9,3,0v-17C1361.3,644.3,1358.3,644.3,1358.3,646.2z M1402,647.1v20.2
	c0,1.9,3,1.9,3,0v-20.2C1405,645.1,1402,645.1,1402,647.1z"/>
<path id="Path_10_" class="st0" d="M1380.8,671.2h56.7c1.9,0,1.9-3,0-3h-56.7C1378.9,668.2,1378.9,671.2,1380.8,671.2z"/>
<path id="Path_12_" class="st1" d="M968.3,726.7c-250.7,18.1-501.4,36.1-752,54.2c-6.8-181.8-13.6-363.6-20.3-545.4l755.4-10.2
	C957,392.4,962.6,559.5,968.3,726.7z"/>
<path id="Shape_14_" class="st2" d="M409,335h145.9c1.9,0,1.9-3,0-3H409C407.1,332,407.1,335,409,335z M463.6,347.3h150.3
	c1.9,0,1.9-3,0-3H463.6C461.6,344.3,461.6,347.3,463.6,347.3z M226.4,640.7c1.8,41.8,3.6,83.7,5.4,125.5c0.1,1.9,3.1,1.9,3,0
	c-1.8-41.8-3.6-83.7-5.4-125.5C229.3,638.8,226.3,638.8,226.4,640.7z M446.7,616.3h13c1.9,0,1.9-3,0-3h-13
	C444.8,613.3,444.8,616.3,446.7,616.3z M471,616.3h33.2c1.9,0,1.9-3,0-3H471C469.1,613.3,469.1,616.3,471,616.3z M529.3,614.7H569
	c1.9,0,1.9-3,0-3h-39.7C527.4,611.7,527.4,614.7,529.3,614.7z M464.6,637.3h48.6c1.9,0,1.9-3,0-3h-48.6
	C462.6,634.3,462.6,637.3,464.6,637.3z M488,626h56.7c1.9,0,1.9-3,0-3H488C486.1,623,486.1,626,488,626z M588.4,732.9h95.5
	c1.9,0,1.9-3,0-3h-95.5C586.5,729.9,586.5,732.9,588.4,732.9z M666.9,741h50.2c1.9,0,1.9-3,0-3h-50.2C665,738,665,741,666.9,741z
	 M710.6,728.8H760c1.9,0,1.9-3,0-3h-49.4C708.7,725.8,708.7,728.8,710.6,728.8z M794.8,457.7h91.5c1.9,0,1.9-3,0-3h-91.5
	C792.9,454.7,792.9,457.7,794.8,457.7z M766.5,462.5h29.1c1.9,0,1.9-3,0-3h-29.1C764.5,459.5,764.5,462.5,766.5,462.5z M772.1,470.6
	H870c1.9,0,1.9-3,0-3h-97.9C770.2,467.6,770.2,470.6,772.1,470.6z M892.8,463.3h18.6c1.9,0,1.9-3,0-3h-18.6
	C890.8,460.3,890.8,463.3,892.8,463.3z M868.5,585.5H896c1.9,0,1.9-3,0-3h-27.5C866.5,582.5,866.5,585.5,868.5,585.5z M850.7,593.6
	h29.9c1.9,0,1.9-3,0-3h-29.9C848.7,590.6,848.7,593.6,850.7,593.6z M865.2,601.7h59.1c1.9,0,1.9-3,0-3h-59.1
	C863.3,598.7,863.3,601.7,865.2,601.7z M902.5,592h17.8c1.9,0,1.9-3,0-3h-17.8C900.5,589,900.5,592,902.5,592z M490.6,467.3h41.9
	c1.9,0,1.9-3,0-3h-41.9C488.7,464.3,488.7,467.3,490.6,467.3z M521.1,475.9H583c1.9,0,1.9-3,0-3h-61.9
	C519.2,472.9,519.1,475.9,521.1,475.9z M575.4,464.4h35.2c1.9,0,1.9-3,0-3h-35.2C573.5,461.4,573.5,464.4,575.4,464.4z M217.5,304.8
	l6.6,227.8c0.6,21.6,1.2,43.1,1.9,64.7c0.1,1.9,3.1,1.9,3,0l-6.6-227.8c-0.6-21.6-1.2-43.1-1.9-64.7
	C220.5,302.9,217.5,302.9,217.5,304.8z M944.4,552.9l4.5,150.5c0.1,1.9,3.1,1.9,3,0l-4.5-150.5C947.4,551,944.4,551,944.4,552.9
	L944.4,552.9z"/>
<path id="Shape_15_" class="st3" d="M737.3,529.9c0.6,6.1,1.2,12.3,1.7,18.4c5.8-1.5,11.5-3.1,17.3-4.6c-0.8-6.1-1.5-12.3-2.3-18.4
	C748.4,526.8,742.9,528.4,737.3,529.9z M733.8,576.6c6-0.8,11.9-1.5,17.9-2.3c0.8,7.3,1.5,14.6,2.3,21.9c-5.4,0.2-10.8,0.4-16.1,0.6
	C736.5,590,735.2,583.3,733.8,576.6L733.8,576.6z M755.7,620.9c1.9,6.3,3.8,12.7,5.8,19c5.4-2.5,10.8-5,16.1-7.5
	c-1.7-5.6-3.5-11.1-5.2-16.7C766.9,617.5,761.3,619.2,755.7,620.9L755.7,620.9z"/>
<path id="Path_13_" class="st3" d="M360.4,680.5c1.3,19.4,2.6,38.8,3.9,58.1c34-2.2,68-4.3,102-6.5c0.6-17.4,1.3-34.9,1.9-52.3
	C432.3,680.1,396.3,680.3,360.4,680.5L360.4,680.5z"/>
<ellipse id="Oval" class="st3" cx="783.1" cy="279.9" rx="7.1" ry="5.9"/>
<ellipse id="Oval_1_" class="st4" cx="300.6" cy="326.1" rx="5.9" ry="3.9"/>
<ellipse id="Oval_2_" class="st4" cx="394.5" cy="437.7" rx="4.6" ry="5.4"/>
<path id="Path_14_" class="st5" d="M352.3,308.4c1.8-0.3,5.3,16.4,13.9,46.7c11.3,39.9,22.5,72.1,30.6,94.1
	c-12.3,7.6-39.8,22.1-77.3,22.6c-26.5,0.3-47.4-6.5-59.8-11.7c24.3,2.7,43.9,2,57.6,0.7c21.7-2,17.9-4.3,34.3-5.1
	c6.8-0.3,15.7-0.3,24.8-5.8c3.3-2,5.7-4.2,7.3-5.8c-6.4-13.2-14.6-32.6-21.2-56.9C352,347.7,349.7,308.9,352.3,308.4L352.3,308.4z"
	/>
<path id="Path_15_" class="st6" d="M446,416.9c1.6,12.7,4.5,26.9,9.3,42.1c13.7,43.2,36.8,74,54.2,93c-10.4,7.7-23.3,15.7-38.8,22.4
	c-47,20.3-90.9,17.3-114.4,13.7l-2.7-15.9c10,0.3,20.6,0.1,31.7-0.5c39.6-2.5,73.6-11.4,100.7-21.3c-8.6-14.6-14.8-27.2-19.1-36.7
	c-10.4-22.7-18.1-39.8-20.8-62.9C444.4,436.7,445.1,424.8,446,416.9L446,416.9z"/>
<path id="Path_16_" class="st7" d="M763.9,483.1c1,22.8,3.4,41.7,5.5,55.3c4.9,31.2,8.5,52.8,21.3,77.1c8,15.1,17,26.2,23.5,33.4
	c-11.3,9.7-26.5,20.7-46,29.5c-49,22.3-95,17.8-116.5,14.2c-1.1-4.9-2.2-9.8-3.3-14.8c2.7,0.2,6.9,0.4,12,0.5c17,0.4,52.4,1,93-12.6
	c11.4-3.8,27.4-10.2,45.4-20.8c-7.1-9.5-14.1-20.8-20.2-33.9C754.5,559.3,759.3,509.1,763.9,483.1L763.9,483.1z"/>
<path id="Path_17_" class="st8" d="M840.5,258.8c2,9.3,4.9,23.5,7.8,41.2c5.4,34.2,5,46.6,11.3,66.8c3.3,10.5,9.2,25.4,20.3,42.4
	c-9.3,7.6-20.9,15.5-35.2,22.1c-46.8,21.7-91.6,15.6-112.2,11.3c0.2-4,0.4-8,0.6-11.9c2.6,0.7,6.5,1.6,11.3,2.4
	c6.3,1,29.6,4.4,73.4-6.6c12.1-3,28.4-7.8,47.1-15.5c-3.6-6.4-8.9-16.4-13.7-29.2c-14-37.1-13.9-69.3-13.7-85.9
	C837.6,286.8,838.2,274.1,840.5,258.8L840.5,258.8z"/>
<path id="Path_18_" class="st2" d="M242.7,302.7c-9.9,52.4,0.1,105.4,10.1,157c0.4,1.9,3.3,1.1,2.9-0.8
	c-9.9-51-19.8-103.5-10.1-155.4C245.9,301.7,243,300.8,242.7,302.7z"/>
<path id="Shape_16_" class="st2" d="M245.5,302.3c14.3,9.6,31.6,11.3,48.5,10.1c19.3-1.4,38.4-5.5,57.5-8.7c1.9-0.3,1.1-3.2-0.8-2.9
	c-18.3,3-36.6,6.9-55.1,8.4c-16.9,1.4-34.2,0.1-48.6-9.6C245.4,298.6,243.9,301.2,245.5,302.3L245.5,302.3z M349.5,305.8
	c2.8,47.8,10,96.6,34.2,138.6c1,1.7,3.6,0.2,2.6-1.5c-23.9-41.6-31-89.9-33.8-137.1C352.4,303.9,349.4,303.9,349.5,305.8z"/>
<path id="Shape_17_" class="st2" d="M255.3,460.5c22.7,6.6,47.1,2.6,70.2,0.7c20.5-1.7,42.5-2.5,60.1-14.5c1.6-1.1,0.1-3.7-1.5-2.6
	c-17.7,12.1-39.9,12.5-60.5,14.2c-22.2,1.8-45.6,5.5-67.5-0.8C254.2,457.1,253.4,460,255.3,460.5L255.3,460.5z M293.7,326.7
	c-2-0.9,0.2-2.8,1.4-3.1c1.5-0.4,4.4-0.6,5.1,1.1c0.5,1.3-0.3,3-1.5,3.5c-1.9,0.9-4-0.2-5.3-1.5c-1.4-1.4-3.5,0.7-2.1,2.1
	c2.5,2.5,6.6,3.8,9.7,1.5c2.5-1.8,3.4-5.8,1.3-8.2c-2.4-2.7-7.5-2.4-10.2-0.4c-2.4,1.8-2.9,6.1,0.2,7.5
	C294,330.1,295.5,327.5,293.7,326.7L293.7,326.7z"/>
<path id="Shape_18_" class="st2" d="M333.8,460.9c-7.2,36.5,0.5,73.4,8.3,109.2c0.4,1.9,3.3,1.1,2.9-0.8
	c-7.7-35.2-15.3-71.6-8.3-107.6C337.1,459.8,334.2,459,333.8,460.9L333.8,460.9z M375.1,422.6c23.1-4.4,46.5-6,69.9-5.1l-1.5-1.5
	c-4.7,48.2,15.9,94.1,40.9,134c1,1.6,3.6,0.1,2.6-1.5c-24.7-39.5-45.2-84.8-40.5-132.5c0.1-0.8-0.8-1.5-1.5-1.5
	c-23.7-0.9-47.4,0.8-70.7,5.2C372.4,420.1,373.2,423,375.1,422.6L375.1,422.6z"/>
<path id="Shape_19_" class="st2" d="M343.7,572.2c48.6,5.7,97.9-1.6,142.9-20.8c1.8-0.8,0.2-3.3-1.5-2.6
	c-44.4,19-93.4,26-141.4,20.4C341.8,569,341.8,572,343.7,572.2L343.7,572.2z M393.9,434.9c0-0.1,0.3-0.6,0.3-0.8
	c0.1-0.4,0.4-0.8,0.7-1.1c0.6-0.5,1.3-0.9,2.1-1c1.5-0.2,2.9,0.6,3.3,2.1c0.3,1.2-0.2,2.8-1.6,3c-1.3,0.2-2.5-0.7-2.7-2
	c-0.3-1.9-3.2-1.1-2.9,0.8c0.5,3.5,5,5.2,7.9,3.5c3.2-1.9,3-6.8,0.3-9.1c-3-2.5-8-1.2-9.7,2.2c-0.8,1.7-0.8,4,1.1,5
	c1.5,0.8,3.7,0.1,4.1-1.8C397.1,433.8,394.2,433,393.9,434.9L393.9,434.9z M252.6,357.1c26.6,3.7,53-1.8,78.5-9.1
	c1.9-0.5,1.1-3.4-0.8-2.9c-25,7.1-50.9,12.7-76.9,9.1C251.5,353.9,250.7,356.8,252.6,357.1L252.6,357.1z M257.6,376.7
	c13.8,1.5,27.6,0.1,40.9-4.1c1.8-0.6,1.1-3.5-0.8-2.9c-13,4.1-26.5,5.4-40.1,4C255.7,373.5,255.7,376.5,257.6,376.7L257.6,376.7z
	 M257.6,400.9c26.4,3.1,53,1.2,78.6-5.5c1.9-0.5,1.1-3.4-0.8-2.9c-25.4,6.7-51.7,8.5-77.8,5.4C255.7,397.6,255.7,400.6,257.6,400.9z
	 M356.4,554.4c26.5,1.2,53-2,78.4-9.6c1.8-0.5,1.1-3.4-0.8-2.9c-25.2,7.5-51.3,10.7-77.6,9.5C354.4,551.3,354.4,554.3,356.4,554.4z
	 M361.5,531.5c11.8-0.4,23.6-1.3,35.4-2.6c1.9-0.2,1.9-3.2,0-3c-11.8,1.3-23.5,2.2-35.4,2.6C359.6,528.6,359.6,531.6,361.5,531.5z
	 M371.1,490.3c7.8,1,15.9-1,23.6-2.1c8.5-1.3,16.9-2.5,25.4-3.8c1.9-0.3,1.1-3.2-0.8-2.9c-7.8,1.2-15.7,2.4-23.5,3.5
	c-8.1,1.2-16.5,3.4-24.7,2.3C369.2,487,369.2,490,371.1,490.3z M724.5,266.1c-10.9,53.5-12,108.5-3.3,162.4c0.3,1.9,3.2,1.1,2.9-0.8
	c-8.6-53.3-7.4-107.9,3.3-160.8C727.8,265,724.9,264.2,724.5,266.1z"/>
<path id="Path_19_" class="st2" d="M727.9,266.8c36.3-8.3,73.8-10,110.8-5c1.9,0.3,2.7-2.6,0.8-2.9c-37.5-5.1-75.5-3.4-112.4,5
	C725.3,264.4,726.1,267.3,727.9,266.8L727.9,266.8z"/>
<path id="Path_20_" class="st2" d="M837.8,259.1c-1.1,51.5-0.4,105.9,25.7,152c1,1.7,3.5,0.2,2.6-1.5
	c-25.8-45.6-26.4-99.5-25.3-150.5C840.9,257.2,837.9,257.2,837.8,259.1L837.8,259.1z"/>
<path id="Shape_20_" class="st2" d="M723.5,430.1c11.2,3.4,23.2,3.6,34.8,3.7c12.5,0.1,25-0.7,37.5-2.4c23.9-3.2,47.2-9.7,69.5-19.1
	c1.8-0.7,0.2-3.3-1.5-2.6c-22.3,9.4-45.8,15.8-69.8,18.9c-11.2,1.4-22.5,2.2-33.8,2.1c-11.9,0-24.4-0.1-35.8-3.6
	C722.4,426.7,721.7,429.6,723.5,430.1L723.5,430.1z M784.7,270c-3.4,1.2-4.9,5.1-3.7,8.4c1.4,3.7,5.7,4.6,8.9,2.4
	c3.1-2.2,4.1-6.6,1.1-9.4c-2.6-2.4-7.1-2.5-9.5,0.1c-1.3,1.4,0.8,3.5,2.1,2.1c3-3.2,8.9,1.3,4.8,4.5c-1.6,1.2-3.9,1.2-4.6-0.9
	c-0.5-1.6,0-3.8,1.7-4.4C787.3,272.2,786.5,269.3,784.7,270L784.7,270z M726,312.6c27.3,0.7,54.5,0.2,81.7-1.6c1.9-0.1,1.9-3.1,0-3
	c-27.2,1.8-54.5,2.4-81.7,1.6C724,309.6,724,312.6,726,312.6z M728.7,327.8c10.2,0.4,20.4,0.8,30.5,1.2c1.9,0.1,1.9-2.9,0-3
	c-10.2-0.4-20.4-0.8-30.5-1.2C726.7,324.7,726.7,327.7,728.7,327.8z M725.9,349c25.7,1.4,51.7,2.6,77-3c1.9-0.4,1.1-3.3-0.8-2.9
	c-25.1,5.5-50.8,4.3-76.2,2.9C724,345.9,724,348.9,725.9,349z M353.1,674.1c-2.3,20-3.1,40.1-2.4,60.2c0.1,1.9,3.1,1.9,3,0
	c-0.7-20.1,0.1-40.2,2.4-60.2C356.3,672.2,353.3,672.2,353.1,674.1z"/>
<path id="Path_21_" class="st2" d="M354.1,675.3c35.6,0,71.3-0.5,106.9-1.6c1.9-0.1,1.9-3.1,0-3c-35.6,1.1-71.3,1.6-106.9,1.6
	C352.2,672.3,352.2,675.3,354.1,675.3z"/>
<path id="Path_22_" class="st2" d="M460.7,672.3l0.9,52.1c0,1.9,3,1.9,3,0l-0.9-52.1C463.7,670.4,460.6,670.4,460.7,672.3z"/>
<path id="Shape_21_" class="st2" d="M350.4,732.1c0.2,6.5,11.5,3.6,15.2,3.4c10.6-0.7,21.2-1.4,31.7-2.2c21.5-1.5,43-2.9,64.5-4.4
	c1.9-0.1,1.9-3.1,0-3c-18.3,1.2-36.5,2.5-54.8,3.7l-26.1,1.8c-2.6,0.2-27.5,2.6-27.6,0.7C353.4,730.2,350.4,730.2,350.4,732.1
	L350.4,732.1z M362.2,688.8c24-1.1,48-0.2,71.8,2.8c1.9,0.2,1.9-2.8,0-3c-23.8-3-47.8-3.9-71.8-2.8
	C360.2,685.9,360.2,688.9,362.2,688.8z M363.1,704c13.4-1,26.9-2.1,40.3-3.1c1.9-0.1,1.9-3.1,0-3c-13.4,1-26.9,2.1-40.3,3.1
	C361.2,701.1,361.2,704.1,363.1,704z M367.6,719.3c19.3-2.5,40.3-7.6,59.7-4.1c1.9,0.3,2.7-2.5,0.8-2.9c-19.8-3.6-40.8,1.4-60.5,4
	C365.8,716.6,365.7,719.6,367.6,719.3z M627.7,503.9c-15.9,56.6-13.9,117.2,5.6,172.7c0.6,1.8,3.5,1,2.9-0.8
	c-19.3-55-21.3-115-5.6-171.1C631.1,502.8,628.2,502,627.7,503.9L627.7,503.9z"/>
<path id="Path_23_" class="st2" d="M629.7,504.9c44.5-0.2,88.8-6,131.9-17.3c1.9-0.5,1.1-3.4-0.8-2.9c-42.8,11.2-86.8,17-131.1,17.2
	C627.7,501.9,627.7,504.9,629.7,504.9z"/>
<path id="Path_24_" class="st2" d="M760.8,485.8c-1.8,27.8-0.6,55.8,4.4,83.3c2.5,13.9,5.5,27.8,11,40.8c5.5,12.9,13.1,24.6,22,35.3
	c1.2,1.5,3.4-0.6,2.1-2.1c-9.1-10.9-16.8-23-22.2-36.2c-5.1-12.6-7.9-26.1-10.2-39.4c-4.8-26.9-5.9-54.4-4.2-81.7
	C763.9,483.9,760.9,483.9,760.8,485.8L760.8,485.8z"/>
<path id="Shape_22_" class="st2" d="M633.7,678.2c56.6,4,115.7-2.4,165.3-31.6c1.7-1,0.2-3.6-1.5-2.6
	c-49.3,29-107.8,35.1-163.8,31.2C631.8,675,631.8,678,633.7,678.2z M693.9,513.9c-1.7-2.9,1.7-6.5,4.6-4.2c3.1,2.5-0.2,6.5-3.5,5.2
	c-1.8-0.7-2.6,2.2-0.8,2.9c2.7,1.1,6-0.1,7.6-2.5c1.8-2.7,1-6.1-1.5-8c-5.4-4.3-12.2,2.4-9,8.1C692.3,517.1,694.9,515.6,693.9,513.9
	L693.9,513.9z M630.7,548.4c29.9-0.5,59.8-2.6,89.6-6.2c1.9-0.2,1.9-3.2,0-3c-29.7,3.7-59.6,5.7-89.6,6.2
	C628.8,545.5,628.8,548.5,630.7,548.4z M731,528.3c0.9,4.6,1.8,9.3,2.7,13.9c0.4,1.9,3.3,1.1,2.9-0.8c-0.9-4.6-1.8-9.3-2.7-13.9
	C733.6,525.6,730.7,526.4,731,528.3z"/>
<path id="Path_25_" class="st2" d="M733,527.9c5.5-0.8,11-1.6,16.6-2.5c1.9-0.3,1.1-3.2-0.8-2.9c-5.5,0.8-11,1.6-16.6,2.5
	C730.3,525.3,731.1,528.2,733,527.9z"/>
<path id="Path_26_" class="st2" d="M748.7,524.5c0.8,4.3,1.5,8.6,2.3,12.8c0.3,1.9,3.2,1.1,2.9-0.8c-0.8-4.3-1.5-8.6-2.3-12.8
	C751.3,521.9,748.4,522.7,748.7,524.5z"/>
<path id="Shape_23_" class="st2" d="M736.2,544.5c5.9-1.2,11.5-2.8,17.1-5c1.8-0.7,1-3.6-0.8-2.9c-5.6,2.1-11.3,3.8-17.1,5
	C733.5,542,734.3,544.9,736.2,544.5z M736.7,531.3c1.1,2.5,2.6,4.5,4.8,6.2c0.8,0.6,2.3,0.6,2.5-0.7c0.8-5.4,2.7-10.2,5.9-14.7
	c1.1-1.6-1.5-3.1-2.6-1.5c-3.3,4.6-5.4,9.8-6.2,15.4c0.8-0.2,1.7-0.4,2.5-0.7c-1.9-1.5-3.3-3.3-4.3-5.6
	C738.5,528,735.9,529.5,736.7,531.3L736.7,531.3z M737.8,574.2c-1.6,7.2-0.9,14.2,2,20.9c0.8,1.8,3.3,0.2,2.6-1.5
	c-2.6-5.9-3.1-12.3-1.7-18.6C741.1,573.1,738.2,572.3,737.8,574.2z"/>
<path id="Path_27_" class="st2" d="M739.8,575.2c6-1,12-1.9,18-2.9l-1.8-1.8c-1,6.4-0.3,12.5,2.2,18.5c0.7,1.8,3.6,1,2.9-0.8
	c-2.3-5.4-3.1-11.1-2.2-16.9c0.2-1.2-0.6-2-1.8-1.8c-6,0.9-12,1.9-18,2.9C737.1,572.6,737.9,575.5,739.8,575.2L739.8,575.2z"/>
<path id="Shape_24_" class="st2" d="M741.1,595.2c6.6-0.2,12.9-1.5,19.1-3.7c1.8-0.7,1-3.6-0.8-2.9c-5.9,2.2-12,3.4-18.3,3.6
	C739.2,592.2,739.2,595.2,741.1,595.2L741.1,595.2z M742,581.3c0.9,2.6,2.4,4.4,4.8,5.8c1.1,0.6,2.1-0.2,2.3-1.3
	c0.6-5.3,2-10.4,4.2-15.3c0.8-1.7-1.8-3.3-2.6-1.5c-2.4,5.4-3.9,11-4.6,16.8c0.8-0.4,1.5-0.9,2.3-1.3c-1.7-1-2.7-2.2-3.4-4.1
	C744.3,578.7,741.4,579.5,742,581.3L742,581.3z M744,620.6c0.7,6.7,2.5,13,5.5,19c0.8,1.7,3.4,0.2,2.6-1.5c-2.7-5.5-4.4-11.4-5-17.5
	C746.8,618.7,743.8,618.7,744,620.6z"/>
<path id="Path_28_" class="st2" d="M745.4,620.3c7.7,0.7,14.9-0.7,21.8-4.1c-0.7-0.3-1.5-0.6-2.2-0.9c1.3,6.1,4,11.4,8.2,16.1
	c1.3,1.4,3.4-0.7,2.1-2.1c-3.8-4.3-6.2-9.1-7.4-14.7c-0.2-1-1.4-1.3-2.2-0.9c-6.4,3.1-13.2,4.3-20.3,3.7
	C743.5,617.2,743.5,620.2,745.4,620.3z"/>
<path id="Shape_25_" class="st2" d="M752.2,640.7c7.8-2.9,15.5-6,23-9.4c1.8-0.8,0.2-3.4-1.5-2.6c-7.3,3.3-14.8,6.3-22.3,9.1
	C749.6,638.5,750.4,641.4,752.2,640.7z M750.6,625.6c2.4,2.1,7.9,9.3,10.7,4c1.3-2.4,1-5.7,1.8-8.4c1.2-3.8,3.2-7.3,5.8-10.3
	c1.2-1.5-0.9-3.6-2.1-2.1c-2.8,3.3-5,6.9-6.3,11.1c-0.6,1.9-1.1,3.9-1.4,5.9c-0.4,2.5-1.1,1.9-3,0.7c-1.2-0.8-2.3-2-3.4-3
	C751.3,622.2,749.2,624.3,750.6,625.6L750.6,625.6z M633.4,597.3c28-0.3,55.9-2.6,83.5-7c1.9-0.3,1.1-3.2-0.8-2.9
	c-27.4,4.3-55,6.6-82.7,6.8C631.5,594.3,631.5,597.3,633.4,597.3z M630.2,556.7c18.1,0.5,36.1-0.1,54.1-1.6c1.9-0.2,1.9-3.2,0-3
	c-18,1.5-36.1,2-54.1,1.6C628.3,553.6,628.3,556.6,630.2,556.7z M634.5,603.2c19,0.9,38,0.2,56.8-2.2c1.9-0.2,1.9-3.2,0-3
	c-18.9,2.3-37.9,3.1-56.8,2.2C632.6,600.1,632.6,603.1,634.5,603.2z M697.7,599.6c5.4,0.1,10.7-0.6,15.9-2.3c1.8-0.6,1-3.5-0.8-2.9
	c-4.9,1.6-9.9,2.3-15.1,2.2C695.8,596.6,695.8,599.6,697.7,599.6L697.7,599.6z M644.7,640.8c22.8-1.4,45.5-3.5,68.1-6.6
	c1.9-0.3,1.9-3.3,0-3c-22.6,3-45.3,5.2-68.1,6.6C642.7,637.9,642.7,640.9,644.7,640.8z M647.3,647.8h22.5c1.9,0,1.9-3,0-3h-22.5
	C645.4,644.8,645.4,647.8,647.3,647.8z M653.8,654.5c11.7-0.7,23.4-1.8,35.1-3.2c9.4-1.2,19.5-1.7,27.6-7.2c1.6-1.1,0.1-3.7-1.5-2.6
	c-8.5,5.8-19.9,6.1-29.8,7.2c-10.4,1.2-20.9,2.1-31.3,2.8C651.9,651.6,651.8,654.6,653.8,654.5L653.8,654.5z M768,573.7
	c18.2-0.9,36.3-3.3,54.2-7.1c-0.6-0.3-1.2-0.7-1.8-1c8.4,25,20.8,48.3,36.7,69.4c1.1,1.5,3.8,0,2.6-1.5
	c-15.7-20.8-28-43.9-36.4-68.6c-0.3-0.8-1-1.2-1.8-1c-17.6,3.8-35.4,6.1-53.4,7C766,570.8,766,573.8,768,573.7L768,573.7z"/>
<path id="Shape_26_" class="st2" d="M771.1,658.1c2.7,3.8,4.9,7.8,6.8,12.1c0.2,0.6,1.1,0.9,1.7,0.7c14.7-4.9,29.2-10.3,43.4-16.4
	c7.2-3.1,14.3-6.3,21.4-9.7c3.4-1.6,6.8-3.3,10.1-5c2-1,4.3-1.6,5-3.8c0.2-0.6-0.1-1.4-0.7-1.7c-0.9-0.5-1.4-0.5-2.3,0
	c-0.6,0.3-0.9,1.1-0.7,1.7c0,0.1,0.1,0.2,0.1,0.3c0.5,1.9,3.4,1.1,2.9-0.8c0-0.1-0.1-0.2-0.1-0.3c-0.2,0.6-0.5,1.1-0.7,1.7h-0.7
	c-0.2-0.6-0.5-1.1-0.7-1.7c-0.6,1.8-6.9,3.7-8.6,4.6c-2.8,1.4-5.6,2.7-8.5,4.1c-6.7,3.2-13.5,6.2-20.4,9.1
	c-13.2,5.6-26.7,10.6-40.3,15.1c0.6,0.2,1.1,0.5,1.7,0.7c-1.8-4.3-4.1-8.3-6.8-12.1C772.6,655,770,656.5,771.1,658.1L771.1,658.1z
	 M788.5,581.5c-0.2-1.3,2.2-2.5,3.1-1.6c1.2,1.2-0.8,3.4-2.2,2.9c-1.8-0.7-2.6,2.2-0.8,2.9c4.3,1.6,8.5-4.6,5.2-7.9
	c-1.5-1.5-3.8-1.4-5.6-0.5c-1.9,1-2.9,2.9-2.5,5C785.9,584.2,788.8,583.3,788.5,581.5z M345.4,501.5c11.1,0.2,22.3-0.3,33.3-1.8
	c11.5-1.6,22.9-4.9,34.6-4.4c1.9,0.1,1.9-2.9,0-3c-10.7-0.4-21.1,2.3-31.6,3.9c-12,1.9-24.2,2.6-36.4,2.3
	C343.5,498.5,343.5,501.5,345.4,501.5L345.4,501.5z M347,468.4c17,1.3,34-0.2,50.5-4.5c1.9-0.5,1.1-3.4-0.8-2.9
	c-16.3,4.2-32.9,5.7-49.7,4.4C345.1,465.3,345.1,468.3,347,468.4z M731.8,384.2c-1.7,11-3.1,22.9,3.8,32.5c1.1,1.6,3.7,0.1,2.6-1.5
	c-6.4-8.9-5-20-3.5-30.2C735,383.1,732.1,382.3,731.8,384.2z"/>
<path id="Path_29_" class="st2" d="M732.7,384.1c23.8,0.9,47.6-1.4,70.8-6.9c-0.6-0.3-1.2-0.7-1.8-1c2.1,10.3,6.1,19.9,11.7,28.7
	c1,1.6,3.6,0.1,2.6-1.5c-5.5-8.6-9.3-18-11.4-28c-0.2-0.8-1.1-1.2-1.8-1c-22.9,5.4-46.4,7.7-70,6.8C730.8,381,730.8,384,732.7,384.1
	L732.7,384.1z"/>
<path id="Shape_27_" class="st2" d="M738.1,416.6c25.8-0.8,51.3-4.6,76.1-11.4c1.9-0.5,1.1-3.4-0.8-2.9
	c-24.6,6.8-49.8,10.6-75.3,11.3C736.1,413.7,736.1,416.7,738.1,416.6L738.1,416.6z M1090.7,1115.1v33.8c-80,31.7-96.3,43-95.1,47.1
	c0.3,1,2.4,4,44.4-0.9c41.6-4.9,75.3-12,98.7-17.8c-4.1-23.1-8.3-46.2-12.4-69.3C1114.4,1110.4,1102.5,1112.8,1090.7,1115.1
	L1090.7,1115.1z"/>
<path id="Path_30_" class="st9" d="M1126.6,636.8c-2.3,4.3-3.1,7.8-3.3,8.6c-14.3,60.8-33,96.7-45.2,167.2
	c-23.3,135.8-3.2,290.1-1.3,304.6c6.4,2.8,18.7,7,34.4,6.4c13.8-0.6,24.5-4.7,30.6-7.6c-2.3-44.3,0-99,15.3-159.3
	c18.7-73.9,42.4-98.4,63.7-184.8c15.8-64,34.1-138.5,2.5-160.6C1199.1,594.1,1142.4,606.7,1126.6,636.8L1126.6,636.8z"/>
<path id="Path_31_" class="st10" d="M1181.9,668.7c-16,73-30.9,150.8-43.5,233.1c-11.9,77.4-20.8,151.5-27.4,221.9
	c10.1-2.1,20.1-4.2,30.2-6.3c-1.3-31.1,0.1-57.6,2.1-77.9c2.4-25.2,8.5-83.9,33-142.5c3.2-7.5,7.3-16.6,14-33.7
	c11.3-28.3,19.5-52.5,23.2-63.9c17.4-54.4,26.1-117.5,28.8-138.3C1222.1,663.5,1202,666.1,1181.9,668.7L1181.9,668.7z"/>
<path id="Path_32_" class="st11" d="M1214.9,712.8c-39.2,51.1-57.5,97.4-66.7,128.5c-8.4,28.3-12.1,53.3-16.9,85.7
	c-6.8,46-9.4,84.8-10.5,112.4c6.6-1.6,13.1-3.3,19.7-4.9c-1.1-38.7,1.6-71.8,4.9-97.6c4-30.6,8.6-66.1,24.6-108.8
	c5.8-15.5,8.6-19.9,21.8-53.4C1202,748.5,1209.8,727,1214.9,712.8L1214.9,712.8z"/>
<path id="Path_33_" class="st2" d="M1303.6,1098.7c5.6,13.9,11.3,27.8,16.9,41.8c-47,29.9-69.2,47.3-66.7,52.4
	c3.1,6.3,43.7-6.2,121.8-37.3c-8.3-27-16.6-53.9-24.9-80.9L1303.6,1098.7z"/>
<path id="Path_34_" class="st9" d="M1268.1,638c24.5,22.4,23.7,53.8,26.8,105.8c0,0,7.6,127.9,33.1,230.7
	c6.4,25.7,18,65.6,39.5,113.4c-3.6,4.6-13.4,15.8-30.6,21.7c-17.6,6-32.6,2.8-38.2,1.3c-30.6-52.2-52.3-96.7-66.3-127.5
	c-64.9-142.2-70.1-217.1-70.1-256.2c0-40.2,0.7-88.4,30.6-104.5C1215.4,610.6,1248.4,620,1268.1,638z"/>
<path id="Path_35_" class="st12" d="M1198.7,653.3c11.1,42.7,23.1,86.1,35.9,130.1c33.4,114.2,69.7,222.1,107.8,323.3
	c3.7-1.9,8.2-4.5,12.8-8c4.7-3.6,8.4-7.2,11.2-10.4c-5.2-12.1-12.4-29.6-20-51.1c-11.5-32.9-30.2-93.4-39.9-174
	c-9.3-77.4-14-116.1-13.6-140.5c0.3-20.1,2.1-61-23.9-83c-5.4-4.5-10.7-7.2-14.4-8.8C1235.9,638.4,1217.3,645.9,1198.7,653.3
	L1198.7,653.3z"/>
<path id="Path_36_" class="st13" d="M1274.2,687.1c-4.6,46.5-6.1,108.8,5.1,180.8c11.3,72.4,31.8,131.5,50.3,174.5
	c5.7-4.7,11.4-9.4,17.1-14.2c-6.8-16.1-15.7-38.5-24.6-65.9c-17.1-52.7-24.5-93.8-30.9-130.7
	C1284.7,793.8,1277.9,744.9,1274.2,687.1L1274.2,687.1z"/>
<path id="Path_37_" class="st14" d="M825.9,272.7c-4,2-9.5,5.5-13.8,11.5c-2.3,3.1-5.1,7.2-5.5,13c-0.1,2.3-0.4,7.3,2.8,10.6
	c0.9,1,3.3,2.9,15.1,2.5c10.5-0.4,15.8-0.6,18.5-3.4c5.2-5.4,3.3-15.6,0-21.7C837.8,275.5,827.6,273.1,825.9,272.7z"/>
<path id="Path_38_" class="st14" d="M886.3,297.8c14.1,16.1,36.7,25.7,78.2,42.8c52.3,21.6,78.5,32.4,109.5,36.2
	c33.5,4.1,51.4-0.2,57.6,10.7c8.1,14.1-10.9,40.5-30.5,62.6c-14.6-3.2-29.7-7.2-45.3-12.4c-85.5-28.3-147.3-78.1-187.9-119.5
	c-5.1,1.1-13.8,2.2-23.7-0.8c-8.5-2.5-20.5-8.9-19.8-14c0.9-6.2,22.6-7.3,23.9-7.4c-6.6-2.7-16.1-7.3-26.4-14.8
	c-3-2.2-20.2-14.9-18.1-18.9c1.8-3.5,17.4,1.3,32.1,5.8c13.4,4.1,22.7,7,32.9,14C878.6,288.7,884.3,295.5,886.3,297.8z"/>
<path id="Path_39_" class="st15" d="M817.1,273.8c2.4,2.7,2.9,6.3,5,9.1c1.8,2.5,4.4,4.3,7.1,5.8c8.1,4.5,16.7,8.2,25,12.3
	c1.4,0.7,3.2-1.2,1.8-2.4c-4.3-3.7-8.9-7-13.7-10c-1.6-1-3.2,1.6-1.5,2.6c4.6,2.9,9,6,13.1,9.5l1.8-2.4c-7.9-3.8-15.8-7.5-23.6-11.6
	c-3.7-1.9-7-4.1-8.9-7.9c-1.3-2.6-2-5.1-4-7.3C817.9,270.3,815.8,272.4,817.1,273.8L817.1,273.8z"/>
<path id="Path_40_" class="st15" d="M824.9,284.3c4.6,2,9,4.6,13,7.7c1.5,1.2,3.6-0.9,2.1-2.1c-4.2-3.3-8.7-6-13.6-8.2
	C824.6,280.9,823.1,283.5,824.9,284.3z"/>
<path id="Path_41_" class="st15" d="M813.1,272c3.8,6.1,8.8,11.1,14.7,15.1c1.6,1.1,3.1-1.5,1.5-2.6c-5.5-3.7-10.1-8.4-13.6-14.1
	C814.7,268.9,812.1,270.4,813.1,272z"/>
<path id="Path_42_" class="st2" d="M817.6,280.2c2,2.7,4.2,5.2,6.7,7.4c1.8,1.6,9.7,7.3,5.6,10.2c-0.8,0.5,0,1.8,0.8,1.3
	c2.8-1.9,1.7-5.3,0-7.6c-1.3-1.7-3.1-3-4.8-4.5c-2.6-2.3-4.9-4.8-7-7.5C818.3,278.6,817,279.4,817.6,280.2L817.6,280.2z"/>
<path id="Shape_28_" class="st2" d="M815.5,290.6c3,4.1,8.7,9.9,14.3,8.2c0.9-0.3,0.5-1.7-0.4-1.4c-4.8,1.5-10.1-4-12.6-7.5
	C816.2,289.1,814.9,289.8,815.5,290.6L815.5,290.6z M811.1,297.6c3.3,4.5,8.1,7.1,13.7,7.4c1,0.1,1-1.4,0-1.5
	c-5-0.3-9.4-2.7-12.4-6.7C811.8,296,810.5,296.8,811.1,297.6L811.1,297.6z M807.9,306.6c4.7,4.9,12.5,5,17.2,0
	c0.7-0.7-0.4-1.8-1.1-1.1c-4.1,4.4-10.9,4.3-15,0C808.3,304.8,807.2,305.9,807.9,306.6z M808.9,271.8c11.1,7.3,19.1,19.6,33,22
	c0.9,0.2,1.4-1.3,0.4-1.4c-13.7-2.3-21.7-14.6-32.6-21.8C808.8,269.9,808.1,271.2,808.9,271.8L808.9,271.8z"/>
<path id="Path_43_" class="st10" d="M807.7,304.5c-3.6-4.9-0.6-15.4,8.1-25.3c9.8,5.7,19.5,11.5,29.3,17.2c-1.8,0-17.6,0.2-18.7,5.1
	c-0.2,0.8,0,2,1.5,3.7c5,2.4,13.4,5.6,24.2,5.9c5.6,0.1,10.5-0.6,14.3-1.5c20.4,20.6,56.3,51.7,109.1,74.3
	c46.4,19.8,88,25.5,115.5,27.1c-0.9,11.8-1.8,23.5-2.7,35.3c-45.3-12-106.7-34.8-167.7-80.6c-20.8-15.6-38.6-31.7-53.8-47.2
	c-14,2.3-22.7-0.1-28.2-2.9c-4.7-2.4-7.7-5.4-13.9-5.9c-4.1-0.3-7.6,0.7-12.1-1.5C812.1,308,809.2,306.5,807.7,304.5L807.7,304.5z"
	/>
<path id="Path_44_" class="st7" d="M936.5,375.1c14,7.5,30.2,15.1,48.7,21.6c40.3,14.3,76.8,18.8,104.7,19.8
	c-0.4,10.2-0.7,20.5-1.1,30.7c-29-6.8-65.4-18.7-104-40.3C966.3,396.6,950.3,385.7,936.5,375.1L936.5,375.1z"/>
<path id="Path_45_" class="st14" d="M1094.6,403.6c-5.7,12.9-6,23.6-6.5,42.8c-0.4,14.5,0.6,30.1,8.4,71.1
	c9.5,49.6,14,57.6,15.5,83.9c1.2,20.6-0.4,37.5-1.9,48.7c12.6,6.9,33.7,16.3,61.3,18.4c48.8,3.7,84.9-17.8,97.3-26
	c1.5-31.4,3-62.9,4.6-94.3c-5.5-26.8-12-47.8-16.7-61.6c-14.8-43.5-28.6-64.1-19.8-85.9c4.9-12.1,14.6-19.5,21.3-23.6
	c-4.7-3.6-54-40.1-107.8-21.2C1144.7,357.8,1109.3,370.3,1094.6,403.6L1094.6,403.6z"/>
<path id="Path_46_" class="st11" d="M1150.1,355.8c15,24,23.4,45.2,28.2,60c0,0,23.5,71.4,6.3,167.2c-3.7,20.4-10.3,49.4-23.3,82.6
	c5,1.1,11,2,17.8,2.3c0,0,10.5,0.5,22.3-1c14.4-1.9,39.1-9.6,68.2-24.4l1.5-100.4c-7.4-28.3-14.9-51-20.5-66.9
	c-13.5-37.9-23-55.7-15.2-74.5c5.1-12.3,15.5-19.9,23.6-24.3c-10.6-7-30.2-17.9-57-22.1C1179.9,350.9,1161.7,353.3,1150.1,355.8
	L1150.1,355.8z"/>
<path id="Path_47_" class="st16" d="M1163.8,353.5c16.1,19.8,34.9,48.7,46.5,86.8c32.9,108.8-21.2,204.2-33.7,225.1
	c10.5-0.1,22.8-1,36.2-3.6c23.9-4.6,43-12.8,56.7-20.1c0.5-31.2,1-62.4,1.5-93.5c-8.5-28.9-16.5-56.3-27.4-93.5
	c-7.4-25.5-13.2-46.4-2.3-63.1c5.3-8.1,12.7-12.6,18.3-15.2C1227.7,368.7,1195.7,361.1,1163.8,353.5z"/>
<path id="Path_48_" class="st14" d="M1156.4,557.8c-0.3-21.4-0.5-42.7-0.8-64.1c51.3-2.6,102.6-5.2,154-7.8
	c1.8,19.8,3.6,39.6,5.5,59.4C1262.2,549.5,1209.3,553.6,1156.4,557.8z"/>
<path id="Path_49_" class="st14" d="M1140.8,550.8v-23.4c65.9-4.9,131.8-9.9,197.7-14.8c0.5,9.6,1,19.3,1.6,28.9
	C1273.7,544.5,1207.2,547.7,1140.8,550.8z"/>
<path id="Path_50_" class="st14" d="M1146.3,515.6c0.8,11.5,1.6,22.9,2.3,34.4c61-4.9,121.9-9.9,182.9-14.8
	c0.5-10.4,1-20.8,1.6-31.3C1270.8,507.8,1208.5,511.7,1146.3,515.6L1146.3,515.6z"/>
<path id="Path_51_" class="st14" d="M1131.4,541.4c1.8,45.6,3.6,91.2,5.5,136.8c68-7.6,136-15.1,204-22.7l6.3-134.4
	C1275.2,527.9,1203.3,534.6,1131.4,541.4L1131.4,541.4z"/>
<path id="Shape_29_" class="st2" d="M1143,559.2c30.9-4.1,61.8-7,92.9-8.8c1.4-0.1,1.4-2.3,0-2.3c-31.1,1.8-62.1,4.7-92.9,8.8
	C1141.6,557.1,1141.6,559.4,1143,559.2z M1177.5,565.3c23.7-3,47.4-6.1,71.2-9.1c1.4-0.2,1.4-2.4,0-2.3c-23.7,3-47.4,6.1-71.2,9.1
	C1176.1,563.3,1176.1,565.5,1177.5,565.3z M1291.4,629.3c-0.4,6.3-0.4,12.7,0.2,19c0.1,1.4,2.4,1.4,2.3,0c-0.6-6.3-0.7-12.7-0.2-19
	C1293.8,627.9,1291.5,627.9,1291.4,629.3z"/>
<path id="Path_52_" class="st2" d="M1292.4,629.5c12.4,0.3,24.7-0.4,37-2l-1.1-1.1c-0.2,5.8,0,11.5,0.4,17.2c0.1,1.4,2.4,1.4,2.3,0
	c-0.5-5.7-0.6-11.5-0.4-17.2c0-0.6-0.5-1.2-1.1-1.1c-12.3,1.6-24.6,2.2-37,2C1290.9,627.2,1290.9,629.4,1292.4,629.5L1292.4,629.5z"
	/>
<path id="Shape_30_" class="st2" d="M1293.3,650.1c12.3,0.2,24.4-1.1,36.4-3.8c1.4-0.3,0.8-2.5-0.6-2.2c-11.8,2.6-23.7,3.9-35.8,3.7
	C1291.9,647.8,1291.9,650,1293.3,650.1L1293.3,650.1z M1298,636.5c7.6,0.5,15.1,0.1,22.7-1.1c1.4-0.2,0.8-2.4-0.6-2.2
	c-7.3,1.2-14.7,1.5-22.1,1C1296.6,634.1,1296.6,636.4,1298,636.5L1298,636.5z M1302.8,642.8c7.9-0.2,15.5-1.7,23-4.4
	c1.3-0.5,0.8-2.7-0.6-2.2c-7.2,2.7-14.7,4.1-22.4,4.4C1301.4,640.5,1301.3,642.8,1302.8,642.8z"/>
<path id="Path_53_" class="st10" d="M1163.7,673c1.8-42.2,3.6-84.4,5.3-126.7c58.4-4.7,116.9-9.3,175.3-14c-1.3,40-2.7,80-4,120
	C1281.4,659.2,1222.6,666.1,1163.7,673z"/>
<path id="Path_54_" class="st10" d="M1322.3,505c0.3,11.6-0.3,25.4-3.3,40.7c-7.4,37.6-25.2,64.7-37.3,80
	c8.2,10.9,16.4,21.8,24.7,32.7l-75.3,8.7c4-45.8,8-91.6,12-137.3c-1.3-6-2.7-12-4-18C1266.8,509.4,1294.6,507.2,1322.3,505
	L1322.3,505z"/>
<path id="Path_55_" class="st14" d="M1252.7,374.4c20.9-2.8,45.8,45.2,55.7,79.7c11.4,39.7,6.4,74,2.3,92.1c-8,35.5-24.6,60.5-35,74
	c1.6,5.3,5.3,19.7-0.8,35.5c-9,23.1-33.4,34.2-35.3,32.1c-0.6-0.7,0.6-3.6,10.1-14.5c-2,2.1-16.4,16.4-32.6,13
	c-2.8-0.6-6.3-1.3-8.3-4.1c-4.7-6.8,3.1-22.2,19.7-39.3c-18.1,4.5-22.9,3.3-23.8,1.3c-2.3-4.8,16.2-18.4,22.9-23.4
	c9.9-7.3,18.8-12.3,24.9-15.4c17.1-35.5,16.2-63.2,14.7-76.2c-2.2-19.2-9.4-40.1-10.8-44.1c-4-11.5-5.9-14.1-13.9-34.8
	c-12.9-33.2-12.9-38.9-12.4-43.3C1231.9,393.8,1240.8,376,1252.7,374.4L1252.7,374.4z"/>
<path id="Shape_31_" class="st2" d="M1209.2,679.4c11.1-6.3,20.8-14.4,28.9-24.2c1.2-1.5-0.9-3.6-2.1-2.1
	c-7.9,9.6-17.4,17.6-28.3,23.8C1206,677.7,1207.5,680.3,1209.2,679.4L1209.2,679.4z M1219,686.1c11-5.7,20.4-13.6,28-23.4
	c1.2-1.5-1.4-3-2.6-1.5c-7.2,9.4-16.4,16.9-26.9,22.3C1215.8,684.4,1217.3,687,1219,686.1z"/>
<path id="Path_56_" class="st17" d="M1244.3,379.2c-19.9,17.3,61.3,93.2,47.4,179.4c-9.5,59.1-48.9,97.7-48.9,97.7
	c-11,11-31.7,24.5-29.2,29.2c1.8,3.4,14.3,0.3,18.8-1.1c8.5-2.6,14.4-7,17.7-9.9c-5,5.6-10.7,12.5-9.5,13.9
	c1.7,1.8,15.9-5.6,24.8-16c15.4-18,13.2-43,11.7-53.2c3.6-4.7,8.3-11.3,13.1-19.7c4.4-7.5,17.1-30.9,22.6-62.7
	c9.7-56.3-10.2-100.7-18.2-118.1c-7.2-15.5-19.4-41.2-37.9-42.3C1254.3,376.1,1248.2,375.8,1244.3,379.2L1244.3,379.2z"/>
<path id="Path_57_" class="st13" d="M1311.7,535.2c-5.4,15.7-11.8,32.2-19.4,49.5c-5.4,12.3-10.9,23.8-16.5,34.7
	c-2.8,9-8.1,22.5-18.6,36.4c-11,14.6-23.1,23.5-31.2,28.6c2.3,0.1,5.1-0.1,8.2-0.9c7.8-1.8,13-6.1,15.6-8.7c-3,3.8-6.1,7.5-9.1,11.3
	c2.4-0.4,6.2-1.1,10.4-3c22-9.9,26.6-36.8,26.9-38.6c0.8-4.9,1.3-13.3-1.7-23.7c7.2-8.5,16.3-21.2,23.6-38.3
	C1308,563.7,1310.7,546.8,1311.7,535.2z"/>
<path id="Path_58_" class="st18" d="M1071.6,308.6c-16.1,18.4-5,44.1-3.5,47.6c5.6,13,20.1,31.5,38.5,30c13.4-1.2,21.9-12.5,24-15.5
	c14.8-21.3,9.9-62-15.1-72.5C1101.7,292.4,1082.7,295.8,1071.6,308.6z"/>
<path id="Path_59_" class="st14" d="M1112.2,325c0.7,7.9,9,9.6,14.6,22.6c4,9.4,4,18.6,3.3,25.2c6.5,0.6,18.5,0.9,32.1-4.3
	c10.7-4.1,18.2-10,22.7-14.1c-2.1-4.7-5.2-11.6-8.9-19.8c-16-34.9-18.6-37.9-22.5-39.4C1137.9,289.3,1110.9,310.3,1112.2,325
	L1112.2,325z"/>
<path id="Path_60_" class="st14" d="M1054.6,221.7c-3.4,4.8-5.5,10.7-5.8,36c-0.2,21.6,1,41.3,3,58.8l13.5-7.8
	c2,4.9,5.4,11.6,11.2,18.1c11.5,12.9,25.5,17.3,31.7,18.9c6.5-1.6,22.7-6.6,35-21.9c8.1-10.2,10.7-20.3,11.3-22.6
	c3.7-15.1,0.1-27.6-1.8-32.8c2.4-1.1,6.1-3.2,8.9-7c5.9-8,7.5-22.3,0.2-27.1c-5.4-3.6-15-1.5-22.2,5.9c-1.6-3.7-4.1-8.8-8.1-14.1
	c-1-1.3-8.5-11.1-17.7-16.2C1096.1,199.7,1066.8,204.5,1054.6,221.7L1054.6,221.7z"/>
<path id="Path_61_" class="st19" d="M1047.3,253.1c-4-0.7-11.4-2.8-14.9-8.9c-6-10.3,2.8-26,5-29.9c1.8-3.3,6.6-11.2,27-25.5
	c15.5-10.9,23.3-16.3,31.7-18.9c29.8-8.9,57.1,6.5,62.2,9.4c10.7,6.1,17.5,12.7,22.9,17.9c8.3,8,17.6,17.2,28,27.8
	c26.7,34.6,36.1,66.2,39.9,85.1c4.3,21.4,8.7,43.2-4.1,56c-12.8,12.8-36.2,10.2-50.5,4.1c-19.9-8.5-28.4-26.5-35-40.4
	c-11.2-23.8-11.9-46.6-10.8-61.4c10-2.9,15.1-12.3,12.8-19.4c-1.8-5.6-8.5-11.2-15.4-9.2c-5.3,1.5-9.1,7-8.8,13.4
	c-4.8-0.1-17.6-1.2-29.8-10.4c-8.9-6.7-13.4-14.7-15.5-19.1c-5.5,0.7-16.5,2.7-27.6,10.7C1055.1,240.8,1049.9,248.5,1047.3,253.1
	L1047.3,253.1z"/>
<path id="Path_62_" class="st20" d="M1113.5,272.2c12,14.5,15.8,29.8,15.8,29.8c3.9,17.2-1.7,31.8-4.2,37.7
	c6.3-4.8,12.7-9.6,19-14.4c4.4,14.6,8.7,29.1,13.1,43.7c3.3-0.3,10.1-1.5,16.9-6.3c5.2-3.7,8.3-8,10-10.7
	c-8.1-7.5-23.6-24.1-30.7-50.2c-3.4-12.6-3.9-23.8-3.5-32.2c9.1-3.7,13.8-12.6,11.9-20c-1.4-5.4-6.9-11.9-14-10.9
	c-5.9,0.9-10.8,6.7-10.7,13.8c-4.5,0-15.1-0.5-26.2-7.2c-11.5-6.9-17-16.5-19.1-20.6c0.5,19.2,6.4,30.3,11.7,36.9
	C1107,266.1,1108.6,266.3,1113.5,272.2L1113.5,272.2z"/>
<path id="Shape_32_" class="st2" d="M1067,268c-1.1,4-1,8.1,0.5,12c0.5,1.4,2.4,1.5,2.9,0c1.2-3.6,1.2-7.4,0.1-11
	c-0.6-1.8-3.5-1.1-2.9,0.8c1,3.2,0.9,6.3-0.1,9.5h2.9c-1.3-3.4-1.5-6.9-0.5-10.4C1070.4,266.9,1067.6,266.1,1067,268z M1063.4,261.8
	c2.6-1.6,5.8-1.3,8,0.8c1.4,1.3,3.5-0.8,2.1-2.1c-3.1-3-7.9-3.6-11.6-1.3C1060.3,260.2,1061.8,262.8,1063.4,261.8z M1074.2,287.2
	c1.9,0,1.9-3,0-3C1072.2,284.2,1072.2,287.2,1074.2,287.2z M1080.8,278.5v0.3c0,0.8,0.7,1.5,1.5,1.5s1.5-0.7,1.5-1.5v-0.3
	c0-0.8-0.7-1.5-1.5-1.5S1080.8,277.6,1080.8,278.5z M1081.1,286c1.9,0,1.9-3,0-3S1079.2,286,1081.1,286z M1039.9,272.6
	c-1.2,4-1.1,8.1,0.3,12c0.5,1.4,2.4,1.4,2.9,0c1.2-3.6,1.3-7.4,0.3-11c-0.5-1.9-3.4-1.1-2.9,0.8c0.9,3.2,0.8,6.3-0.3,9.4h2.9
	c-1.2-3.4-1.4-6.9-0.3-10.4C1043.3,271.5,1040.4,270.7,1039.9,272.6z M1038.2,265.1c2.1-1.1,5-0.6,6.4,1.4c1.1,1.5,3.7,0,2.6-1.5
	c-2.5-3.3-6.8-4.4-10.5-2.5C1035,263.4,1036.5,266,1038.2,265.1z M1071.9,319.5c7.7-1.4,14.4-5.5,19.4-11.6c0.9-1.1-0.7-2.7-1.6-1.6
	c-4.7,5.8-11,9.6-18.4,11C1069.9,317.6,1070.5,319.8,1071.9,319.5z"/>
<path id="Path_63_" class="st2" d="M1087.5,306.5c1.8,0.6,3.3,1.5,4.6,2.8c1,1,2.6-0.6,1.6-1.6c-1.6-1.6-3.5-2.7-5.6-3.4
	C1086.7,303.9,1086.1,306.1,1087.5,306.5z"/>
<path id="Path_64_" class="st21" d="M1149.8,175.7c12.7,17.6,29,42.5,44.5,74.3c16.4,33.6,28.4,58.9,19.1,68.9
	c-12.3,13.3-54.8-7.8-61.6-11.3c1.4,9.1,4.9,23.6,15.2,38.1c5.2,7.3,14.3,20.2,31.1,26.2c10.1,3.6,19.1,3.4,22.6,3.1
	c4.7-0.3,10.1-0.7,16-3.9c0,0,7.7-4.1,12.9-12.5c7.9-12.8,3.7-30.1-1.9-51.8c-6.7-26-15.7-43.3-24.5-60.4c-2.2-4.2-4.8-9.1-9-14.8
	c-4.2-5.8-7.3-8.9-20.3-21.4c-19.3-18.7-22.3-21.4-28.1-25.3C1159.4,180.5,1153.7,177.6,1149.8,175.7z"/>
<path id="Path_65_" class="st22" d="M1125.7,345.8c0.8,2.3,2.6,8.8,0,16c-3.9,10.7-14.7,14.3-16.4,14.8c-12.3,4-27.8-2.3-38.2-16
	c1.4,3.6,4.5,10,10.9,15.6c3.2,2.8,11.9,10.3,24.2,9.4c2.1-0.2,15.6-1.2,21.8-12.9C1132.5,364.4,1131.5,354,1125.7,345.8
	L1125.7,345.8z"/>
<g>
	<path class="st23" d="M317.7,1071.6c8.8-1.3,15.5-6.7,27.9-5.2s26.3,6.7,29.2,3.4c2.9-3.3,0.9-7.3-11.4-5.2
		c-5.1,0.8-9.2,0.3-6.3-1.8c2.9-2.1,11.1-10,20.3-12.2c9.2-2.1,39-14.3,42.5-19.2c0.6-0.8,1.2-1.8,1.8-2.9c1.2,0.4,2.4,0.9,3.6,1.3
		c6.4,3.8,13.3,7.1,17.1,9.7c0,0-2,6.3-3.7,12s2,7.7,0.7,13c-0.3,1.3-0.6,2.3-0.9,3.2c-2.9,1.4-7.1,3.2-11.2,1.6
		c-6.1-2.5-19.5-10.2-22.9-8s-3.4,6.1,2.6,7.2c1.1,0.2,2,0.4,2.8,0.6c-1.3-0.2-2.5-0.3-3.4-0.3c-6.3,0-11.6,0.3-12.3,4.7
		c-1,6.3,5.7,8,12.3,6.3c6.7-1.7,23-6,30.7-6s17.9,0.6,24.7,2.7c10.4,3.2,16.3,1.2,16.7-2.8c0.3-4-8.7-5.8-14-4.5s-12.7,3-13.7,1
		s-0.7-8.3,4.3-12.3c4.1-3.3,8.1-14,6.6-19.4c12,0.8,28.2,1,45.5-0.4c-0.2,1.3-0.2,2.7-0.1,4.2c0.1,1,18.7,12,25.3,17
		c2,1.5,3.6,2.9,4.2,4.1c-1.4,0.9-3.9,1.7-8.1,1.1c-7.9-1.2-22.6-6.8-25.9-4c-2.1,1.8-1.9,4.6-0.1,6.3c-4.8,1.1-9.6,3-7.1,7
		c3.3,5.3,10,2.8,15.3,0.5s24.7-6,33-6s26.6,3.9,30.3,4c6.7,0.1,8.1-11.3-2.9-9.4c-6.9,1.2-16.8,2.4-22.1,0.7
		c-5.3-1.7-17.3-15-21-20s4.7-9,13.3-7.7c8.7,1.3,47.7-3.7,54.7-7.7c2.3-1.3,4.7-4.6,6.2-8.4c5.9-1.2,10.4-2.3,14.2-3.5
		c1.4-0.5,3-0.9,4.7-1.3c0,2.2,1.8,4.8,8.6,6.5c13,3.3,36.3,26.7,37,32.3c0.7,5.7,3.1,6.4-4.6,6.6c-6.5,0.2-20.3-0.2-19.4,6.5
		c0.6,4.7,4.5,5,12.8,3s13.2-5.6,20.3-5.8c7.2-0.2,42,3.4,46.2,5.7c7,3.9,10.5-10.1,1.7-11.3c-1.7-0.2-4.5-0.1-7.8,0.1
		c2.4-1.5,3.8-3.4,3.1-5.6c-1.5-5-5.3-4.2-10.3-1.9c-9.6,4.6-25.8,6.5-34.6,5.3c-1.5-1.2-2.4-2.8-2.8-5.2
		c-0.8-5.8-11.1-32.1-23.4-42.6c4.3-1.4,8.2-3,11.3-5c10.7-7.1,40-14.8,59.9-28.6c34.4-23.9,62-60.4,71.1-71.1
		c9.2-10.7,42.4-40.9,47.8-44.3c10.7-6.7,23-7.9,35.6-1.6c17.3,8.7,15.8,31.6,7.1,39.2c0,0-6.1,7.3-15.2,7.2
		c-6.1,0-15.7,0.3-21.3-11.4c-2.9-6-2.7-16.4,6.5-22.8c6-4.2,16.2-2.8,20.6,3.9c3.3,5.2,0.2,19-9.3,15.9c-8.4-2.8,2.1-10.3,1.4-11.8
		c-1.1-2.4-6.9-1.9-9.1,1.6c-5.4,8.5-2.2,17,7.7,18.3c10.8,1.5,16.8-8.2,16.8-8.2c10.7-20.9-5.5-31.3-20.4-31
		c-15.4,0.3-26.2,11.8-29.5,25.9c-4.4,18.9,10,36.1,31.9,39.7c21.9,3.6,43.4-8.6,47.5-31.5s-10.2-42.3-22.9-51.4
		c-12.7-9.2-33-8.5-44.7-3.4s-43.9,24.5-60.6,37c-29,21.6-77.4,58.9-91,67.4c-11,6.9-28.8,15.7-28.8,15.7s-8.6,3.1-17.4,2.8
		c0.1-0.1,0.2-0.1,0.2-0.1s-4-3.7-6-5s1.7-3,1.7-3s-5-0.3-8.3,0.3c-3.3,0.7-4-1-4-2.7s3.3-4,2.7-4.3c-0.7-0.3-9-0.7-11,0
		s-4.3,1-4-0.7s2.7-6,2.7-6c-3-2-16,0.7-20,0.3c-4-0.3,5.3-7.7,1-8s-15.7,0.3-17,0s3-6.7,3-6.7c-1.7-1.3-13,3.3-17.3,3.3
		s5.7-5,1.7-6.3s-16.3,4-19.7,4.7c-3.3,0.7,3.7-8.7,3.7-8.7s-3-1-7.3,0s-14.7,8.7-18.3,9c-3.7,0.3,4.7-8.7,4.7-8.7s-0.3-1.3-6.3,0.7
		s-16.3,13.7-17.7,11.7s4-12.7,4-12.7c-4,1.7-18.7,13.3-21,15.7c-2.3,2.3-4.7,2.3-5.3-0.7c-0.7-3,2.3-10.3,2.3-10.3
		c-5.7,1.3-19.3,17.3-19.3,17.3c-2-2.3,1.3-9.7,1.3-9.7c-4.3,1-11,11-15,16.3s-9.7,6-9.7,6c-2.6,1-4.3,2.9-5.5,4.4
		c-0.6,0-1.2,0-1.7-0.1c-4.6-1,1-6.6,3.1-12.7c2-6.1,1-11.7-7.1-8.7c-8.1,3.1-14.3,4.6-22.4,6.1c-8.1,1.5-11.7,1.5-18.8,7.1
		s-16.8,3.6-20.4,8.1c-3.6,4.6-5.6,11.7-12.7,14.8s-15.8,8.1-16.8,11.7c-1,3.6,10.7,16.3,10.7,16.3c14.8,7.1,36.7,17.8,47.4,20.9
		c0.9,0.3,1.9,0.6,3,0.9c-2.1,4.4-8.5,4.9-14.1,8.4c-5.7,3.6-28.5,21.6-34.2,25.5c-1.6,1.1-3.9,2.3-6.4,3.4c0-0.1-0.2-0.2-0.6-0.2
		c0,0-9.7,1.9-17.2,1c-14.7-1.8-18.2-9.4-24.5-4.8c-5.1,3.7,0,5.3,4.1,6.8c1.5,0.6,2.5,1,3.2,1.3c-5.8-0.1-10.9,0.2-11.6,1.8
		C300,1068.1,300.5,1074.2,317.7,1071.6z M835.3,882.5c-1.3,0.7-3.4,0.7-4.1,0c-0.7-0.7,0.7-3.8,1.5-3.6
		C833.3,879,836.6,881.8,835.3,882.5z M857.3,882.9c0.7,0.3,0.8,1.6-0.2,2.4C856.2,886.2,857.3,882.9,857.3,882.9z M855.3,893.7
		c-1.1-0.5-1-2.9-0.2-2.8C855.7,891,856.5,894.2,855.3,893.7z M856.5,880.3c-1.1-0.3,0.7-2.4,1.3-1.6
		C858.8,879.8,857.6,880.7,856.5,880.3z M861.5,893.5c-1.1-0.7,0.2-2.3,0.8-1.6C862.4,891.9,862.7,894.2,861.5,893.5z M876,871.9
		c-1.5-0.8-1.6-1-1-2c0.7-1,1.1-2.3,2.3-1.1c0.6,0.6,2.8,2.3,1.3,2.4C877.2,871.4,877.5,872.7,876,871.9z M874.7,880.3
		c-0.7-0.5-1.8-3.7,0-2.8l0.5,0.7C875.6,878.7,875.4,880.8,874.7,880.3z M874.6,891.3c0.3,0.5-1.1,1.8-2.6,2.1s-1.1-2.4-0.5-3.1
		C872.1,889.6,874.2,890.7,874.6,891.3z M865.9,865.8c0.3-1,2.3,1.6,2.3,1.6C867.7,867.6,865.6,866.8,865.9,865.8z M852.6,861.6
		c0.2-0.7,5.1-1,5.1-1c1.1,0.5,0.2,4.2-0.8,3.7s-1.1-1-1.6,0.2C854.7,865.7,852.4,862.2,852.6,861.6z M842,870.9
		c1.3,0.5,4.1-1.5,4.1-0.2c0,0-1.5,4.4-2.4,3.6C842.6,873.5,840.7,870.4,842,870.9z M845.1,899.9c-0.7,1.1-4.6,0-4.7-1.3
		c-0.2-1.3,1-1-0.5-2.8s1-1.6,2.8-0.5C844.4,896.5,845.5,899.2,845.1,899.9z M860.7,921.9c-0.4,0.3-6.8-0.5-7-2.1s1.8-7,2.6-5.5
		s0.7,3.7,1.8,2.4C859.3,915.4,861.9,921.1,860.7,921.9z M875.2,909c-1.5-0.7-0.2,1.8-1,2.6s-5.1-5.7-3.7-5.9c1.3-0.2,5.4-2.8,6-2.4
		C878.2,904.3,876.7,909.7,875.2,909z M896.7,866c-1.3,0.2-4.4-0.2-3.4-1.8s-2.4,0.3-1.3-2.3s3.4-5.7,4.9-4.6c0,0,2.1,2,2.6,4.4
		C900,864.2,898,865.8,896.7,866z M890.1,909.2c0.2-1.8,0.7-2.4,3.4-2.9c0.8-0.2,3.3,1.1,2.6,3.6c-0.7,2.4-1.5,2.1-4.6,2.8
		C888.4,913.3,889.9,911,890.1,909.2z M890.7,882.5c0.8-1.3,5.1,1.3,5.1,1.3s-2.4,3.9-5.1,2.3C888.1,884.4,889.9,883.8,890.7,882.5z
		 M871.3,854.1c1.3-1.1,2.3-6,3.4-5.4c1.1,0.7-1.1,4.1,0.2,3.3s1.8-1.1,2,0.2c0,0,1.1,4.7-0.3,4.6
		C875.1,856.5,870,855.2,871.3,854.1z M859.3,838.3c1.5-1,6.7,0.8,6.7,0.8c1,0.5-1.8,4.9-3.3,3.4s-0.8,0.5-1.5,2s-1.6-0.3-2.4-2.1
		C858,840.6,857.8,839.3,859.3,838.3z M834.5,850.4c0.7-2,2.9-2.9,4.1-0.7c1.1,2.3,2,2.3,1.5,0.5s0-6.4,1-4.1c1,2.3,1.6,5.2,2.3,3.6
		c0.7-1.6,1-1.6,1.6-0.7c0.7,1,3.9,1.8,3.6,2.8c-0.4,1.1-7.8,4.4-9.6,4.4C837.1,856.2,833.8,852.3,834.5,850.4z M822.9,855.9
		c0.2,1.3,1.5,2.9,0,2.6c-1.5-0.3-3.7-3.3-5.4-4.2c-1.6-1,2.9-2.6,4.6-2.9c1.6-0.3,5.5-2.9,5.5-2.9c1-0.3,0.8,2.8,1.5,4.2
		c0.7,1.5-1.1,1-2.9,0.2c-1.8-0.8-0.5,1,1.3,2.9c1.8,2-0.8,2.9-2.3,1C823.7,854.8,822.8,854.6,822.9,855.9z M807,878.7
		c1.3-0.5-0.8-1-0.3-4.1s0.5-4.6,2.8-2.6s3.8,1.3,2.6-1.5c-1.3-2.8-2.3-9.2,1-6.1c3.3,3.1,3.3,6.4,5.1,3.1c1.8-3.3,4.6-1.8,5.9-0.3
		c0,0-17.4,16.6-18.7,15.4C804.2,881.2,805.8,879.2,807,878.7z M784.2,883c-1,2.3-4.9-0.5-4.9-2s20.1-14.8,20.1-14.8
		c1-0.8-0.1,5.6,0.4,11.2c0.5,5.6-1.8,2-4.4-0.8s-3.6-0.3-2.3,4.9c1.3,5.1-2.6,1.3-5.1-0.3C785.5,879.7,785.3,880.7,784.2,883z
		 M772.7,904c3.8,0.8-1-5.4-2.6-8.5c-1.5-3.1,4.4-0.5,6.9,1c2.6,1.5-1.3-3.6-0.5-6.7c0.8-3.1,9.2,7.9,9.2,7.9
		c-1.8,4.9-12.8,13.8-14.1,15.4c-1.3,1.5-1-1-3.3-6.1C766.1,902,768.9,903.2,772.7,904z M747.9,920.7c-4-2.3-2-1.3-3,2.3
		c-1,3.7-4.7-2-6.7-4s-2.3,0.7-3-2.3s21-18.3,21-18.3c-3,1.7-0.3,7.7,3,13s0,5.3-3,2.3s-5.7-0.7-3.7,3.7
		C754.5,921.7,751.9,923,747.9,920.7z M729.5,948.7c0-3.3-6.7-11.7-3-9.7s8.7,10.3,7.7,5.7c-1-4.7-3.7-6-4.3-9.3
		c-0.7-3.3-3-8.3,2-3.3s7.3,8,8.3,6s7.3,2.3,6.7,4.3c0,0-15.7,16-17.3,14.3C727.9,955,729.5,952,729.5,948.7z M432.9,947.7
		c2.3-3.3-4.3-3-7-3.3s-6.7,6.3-13.3,9c-6.7,2.7-13.3,5-18.3,5.7s-8.3,1-14.3,1.7s-3.7,3-8,6.7s-11,6-11,6c3.7-1.3,10-8,12.7-11
		s4.7-4.3,12-6s9-2,14.7-3.3s11-2.3,18-8s10.7-3,15.7-2.3C438.9,943.3,432.9,947.7,432.9,947.7z M390.2,963.7c1.7,0,6.7,0.7,6.7,5.7
		s0.3,10.7-7.3,12c-7.7,1.3-12.3-2.3-12.3-6.3S384.2,963.7,390.2,963.7z M419.7,968.7c-1.6,0-1.6,0.5-4.3-2.1s-3.7-9-1.1-8
		c0,0,3.2,2.1,5.3,4.8C421.8,966.1,421.3,968.7,419.7,968.7z M425.6,952.8l2.7,6.9c0,0-0.5,4.3-2.1,3.2s-2.1-5.3-4.3-5.3
		C419.7,957.6,422.4,951.2,425.6,952.8z M414.9,973c-0.5,2.1-3.2,2.1-6.9,0s-1.1-4.3,0.5-5.3C410.1,966.6,414.9,973,414.9,973z
		 M434.9,964.3c-3.3,2-9,4.7-11,12.3c-2,7.7,2.7,21,1,21.7s-2.3,2.3-4-3.3c-1.7-5.7-0.3-14-2-12s-1.7,9.7-2,5.3
		c-0.3-4.3-1-9,2.3-12.7s15.3-15,14.3-13.7C433.5,962,438.2,962.3,434.9,964.3z M443.6,970.3c-3.2,0-3.7-2.7-1.6-3.7
		c2.1-1.1,7.4-2.7,7.4-2.7C451.6,964.5,446.8,970.3,443.6,970.3z M448.9,980.4c-2.7,0-10.1-0.5-5.8-2.7c0,0,1.6-3.7,4.3-2.1
		C450,977.2,451.6,980.4,448.9,980.4z M624.6,957.8c0,0-12.1-4.8-23.5-9.3c-2.6-1-5.1-2-7.4-2.9c-5-2-9.2-3.6-11.1-4.3
		c-7-2.5-16.5-1-35-3.5s-21-0.5-31.5,0.5s-16,2-31,6.5c-2.9,0.9-5.7,1.7-8.2,2.3c-3.7,1-7,1.8-9.7,2.4c-5.1,1.2-8.1,1.7-8.1,1.7
		c9.5-2,33-11,33-11c1.8-0.7,3.6-1.4,5.4-2c14.8-5,29.5-5.9,42.7-5.3c14.4,0.7,27.2,3.2,36.9,4.2c0.2,0,0.4,0,0.6,0.1
		c13.1,1.3,29.7,10.1,39.3,15.7C621.6,955.8,624.6,957.8,624.6,957.8z M489.3,954.9c-2.7-1.1-1.6-2.1,1.6-3.7c3.2-1.6,7.5,0,9.6,0.5
		s-1.6,4.3-5.3,3.7S492,956,489.3,954.9z M497.3,962.9c0,0,3.2,6.9,0.5,6.9S491.5,960.8,497.3,962.9z M540.5,975
		c2.7,5,0.7,16,3,11.7s3.7-17.3,4.3-13.7c0.7,3.7,0.3,9.3,1.3,5s9.7-14,10-12c0.2,1.5,0.3,0.7-3,7s-6.3,13-6.3,16.7
		s-1.3,8.7,1.3,4.7c2.7-4,7.7-8,5.7-4s-5.3,11.3-4.7,13.3c0.7,2,3.3,1-3.3,2.7c-6.7,1.7-19,8.3-20.7,5.7c-1.7-2.7-3.3-11.7,0.7-8.7
		s8.3,11.3,6.7,0.7C533.9,993.3,537.9,970,540.5,975z M536.1,969.3c-4.3,0-2.7-6.4,0-4.8C537.8,965.5,540.4,969.3,536.1,969.3z
		 M555.8,950.7c1.6-1.1,6.9,0.5,10.6,0.5c2.1,0-3.2,5.3-9,4.3C551.5,954.4,554.2,951.7,555.8,950.7z M584.9,981c1,9,5,18.3,1.7,15
		c-3.3-3.3-7.3-7.7-7.7-5.3c-0.3,2.3,0.3,4.3-4,1s-1.4,2.2-4.4,2.2s-5.2,0.2-0.9-14.8s4.1-31.9,7.4-31.6c2.7,0.3,2.8-1.5,9.8,0.8
		s9.7-0.3,11,4.3c1.3,4.7,0.4,5.7-4.9,9.4C587.6,965.7,583.9,972,584.9,981z M596.7,966.1c-1.1-4.3,4.8,0.5,4.8,0.5
		C602.6,967.7,597.8,970.3,596.7,966.1z M599.9,978.8c0,0,1.1,5.3-1.6,4.8C595.7,983.1,597.2,976.7,599.9,978.8z M624.9,971.9
		c-2.1-2.1,3.7-8,5.8-3.7C631.7,970.2,627,974,624.9,971.9z M700.5,960c-4,2-5.7-3.7-8.7-5.7s-4-0.7-5-3.3c-1-2.7,17.9-13.7,18-12.7
		c0.7,7.5,3.7,8.3,8,14s-1.3,3.7-4.7,0c-3.3-3.7-3.3-0.7-2,3s7,7,5,8.3C709.2,965,704.5,958,700.5,960z M679.5,971.3
		c2.3,0.7-1-3,0.7-5.7s6.7,4.7,11,9.7s9.8,3,9,3.7c-6,5-19.3,11.3-22,11s0.7-7.3,0.7-12s-2.3-3.7-3.7-8.3
		C673.9,965,677.2,970.7,679.5,971.3z M647.2,986c-1.7-5-4.3-10.7-4.3-6.7s3.7,14.7-1.3,9s-9-17.7-6-20.3c3-2.7,4.3-4.3,8-4.3
		s16.3-0.8,16.3-0.8s4.1-2.5,3.7,0.1c-0.3,2.7-3.3,5.3-3,11s3.3,10.7,4.3,13.3c1,2.7,2,4.3,1,5s-2,4.7-5.7,0.7s-9-10.7-9-8
		C651.2,987.7,648.9,991,647.2,986z M603.5,990c4.3-0.7,5-1.7,4-8s-1.3-14-1.3-19.7s3.7,3.7,6.7,7s0.3-4,1-8s2.1,1.8,3.7,2.3
		c1,0.3,4,21.3,6.7,27.7c2.7,6.3,9,7,18.7,9.7c7.4,2,5.1,3.6,1.2,5.1c-1.2,0.5-2.6,0.9-3.9,1.4c-5.3,2-10,1.1-15,3.1
		c-1.1,0.5-2.2,0.8-3.2,1.2c-3.5,1.1-6.4,1.4-8.4,0.2c-2.7-1.7-7.7-11-12.7-15.7C595.9,991.7,599.2,990.7,603.5,990z M580.2,1002.4
		c-6.5-0.3-14.8,1.1-11.9-0.6c0,0,2.6-1.7,7.2-2.1c1.6-0.1,3.4-0.1,5.5,0.3c0.2,0,0.5,0.1,0.7,0.1c8.2,1.7,17.9,6.3,18.2,14.5
		c0,0,0.9,2.8-1,5.9c-0.3,0.5-0.6,1-1,1.5c0,0,0.2-0.5,0.4-1.3c0.4-2.1,0.5-6.3-3.8-11.2C589.3,1003.7,586.7,1002.7,580.2,1002.4z
		 M589.7,1022.4c0-0.9,0-1.9-0.2-3c-0.7-5-8.5-10.5-13.3-12.4c-1.4-0.4-2.4-0.7-2.4-0.7c0.6,0,1.4,0.3,2.4,0.7c3.2,1,9,3.1,12.1,6.5
		c2.3,2.4,3.6,5.6,4,8.4s-0.2,5.1-1.7,5.5C588.1,1028.1,589.6,1026.4,589.7,1022.4z M565.5,1010.9c-2.7-1.3-5.1-1.6-6.7-2.9
		c-1.6-1.3,2.1-1.8,2.9-1.6c1.1,0.3,8.3,4,11,7c2.7,2.9,3.2,4,5.9,8.3c0.7,1,1.2,2,1.7,2.7c1.4,2.5,1.9,3.8,1.3,4.2
		c-0.4,0.3-2.2-1.4-4.1-3.6c-1.9-2.2-4-4.8-5-6.6C570.3,1015,568.2,1012.3,565.5,1010.9z M551.3,1015.2c-3.8-2.4-4.6-1.6-5.4-3.2
		c-0.8-1.6,4-1.5,4.8-1.3c1.3,0.3,11,8.3,13.9,11c2,1.8,2.5,4.2,2.6,5.6c0.1,0.7,0,1.1,0,1.1s-0.5-0.3-1.2-0.9
		c-1.4-1.1-3.7-3-5.3-4.7C558.6,1020,555.1,1017.6,551.3,1015.2z M536,1020.3c-3.5-2.1-6.4-2.1-6.2-2.9c0.3-0.8,4.8-0.8,4.8-0.8
		c2.1-0.3,10.5,5.9,12.9,9.4c1.5,2.2,2,4.2,2.1,5.4c0.1,0.7,0,1.1,0,1.1s-0.4-0.3-1-0.9c-1.5-1.3-4.2-3.8-5.7-5.3
		C540.9,1024.1,539.5,1022.5,536,1020.3z M521,1027.3c-5.1-1.3-4-0.8-4.3-1.9s2.7-2.1,2.7-2.1c1.3-0.3,9.4,3.2,12.6,5.4
		s2.7,4.8,1.1,3.8C531.5,1031.3,526.1,1028.6,521,1027.3z M508.7,1034c0.8-1.3,3.2,0,7,0c2.2,0,4.8,1.4,6.6,2.6c1.2,0.8,2,1.5,2,1.5
		c1.9,1.1-1.1,0.8-3.8,0.3c-1.2-0.2-2.1-0.7-3-1.1c-1.1-0.6-2.1-1.1-3.5-1.3c-2.4-0.3-2.4,0.3-4.6,0.8
		C507.3,1037.2,507.9,1035.3,508.7,1034z M502.2,1010.7c0,0,0,0-1.7-9s0-16.7,1-23.3c1-6.7,12.7-26.3,16-30.3s6.7-4,15-3.3
		s14-0.3,18-1.3s5.7,2,5.7,2s-10,4.3-12,8s-5.3,3-9,3.3s-17.3,14.7-20,19.3c-2.7,4.7-1,8-0.7,13.7s-4.3,0.7-4.3,0.7
		c-1.7,1.3-0.3,7.7,3.3,15c3.7,7.3,2.7,5.3,2.3,10c-0.3,4.7-3.7-0.7-5.3-6.3c-1.7-5.7-2-0.3-2,4s2.7,6,1.3,9
		C508.5,1025,502.2,1010.7,502.2,1010.7z M480.3,970.9c2.1-9.6,6.4-10.6,4.8-3.7c-1.6,6.9-1.6,15.4-0.5,17.5s1.6-3.7,2.1-8.5
		s4.8-5.8,2.7,2.1c-2.1,8-2.7,8.5-1.6,15.4c1.1,6.9,3.7,14.4,3.7,10.1s-2.1-19.7,0-14.4s3.2,8.5,3.7,16.5s0.5,12.8,4.3,15.9
		c3.7,3.2,8.5,6.4,2.7,8.5c0,0-1.6,1-3.6,1.9c-2.4,1.1-5.5,2.1-7.5,1.2c-3.7-1.6-8.4-15.2-10.6-23.2v-0.1
		C478.2,1002.2,478.2,980.4,480.3,970.9z M468.9,1020.3c-3-7.7-1.7-13-5-13.3s-2.7,1.3-2.3,4c0.3,2.7-0.3,6-2,1.3s-3-9.7-3.7-7.3
		c-0.7,2.3,4,13.3,0.3,8.7c-3.7-4.7-4-4-4.3-12s4-23.3,4.7-30s0-11.3-2.3-12c0,0-5-2,0.7-3.3s21.7-8.3,22.7-6.7c0,0,3-1.3,3,0.7
		s-0.3,4-3,8.3s-3.7,8.3-4,13.7c-0.3,5.3,1.3,11,0.3,14.7s-1.3,8-3.7,8c-2.3,0-4-1.7-3.3,2.7c0.7,4.3,4,19.7,7,22.7s7,8.3,3,6
		C472.9,1024,471.9,1028,468.9,1020.3z M451.3,1026.8c-7.1-10.5-13-21-12.3-17.8s1.1,3.9-1.1,1.6c-2.3-2.3-5.5-6.6-4.3-6.6
		c0,0,3.4,0,0.7-3.4s-3.9-8.7-3.9-13.5s0.9-3.9,2.7-2.1c1.8,1.8-1.8-2.5,0.2-6.2c2.1-3.7,2.5-5,3.2,0.9s1.1,19.9,3.9,23.7
		c2.7,3.9,2.3,2.1,1.6-1.6c-0.7-3.7,0.9-11.9,1.6-6.2c0.7,5.7,2.7,16,5,19.4c2.3,3.4,12.8,16.2,16.7,18.3c3.9,2.1,6.2,4.1,3.9,3.9
		s-3.4,0.9-5.5-0.7C461.6,1035,458.4,1037.3,451.3,1026.8z M454.7,1040.8c-1.7-0.1-1.3,0.1-4.4,0c-3.1-0.1-3.1-0.4-6.1,0.4
		s-0.8-1-0.3-1.6c0.5-0.5,3.5-0.5,6.5-0.4s7.2,0.8,7.9,0.8l0.4-0.3C459.7,1039.8,456.4,1040.9,454.7,1040.8z M443.8,1052.5
		c2.3,0.4,7.4,1.6,7.4,1.6c0.8,0.3-2.8,1.3-5.4,0.6s-2.7-0.6-4.9,0.1c-2.2,0.8-1.2-0.9-1.3-1.6
		C439.4,1052.6,441.5,1052.1,443.8,1052.5z M447.6,1045.9c2.2,0.5,7.4,1.9,8.4,2.2c1.2,0.4-2.5,1.3-5.2,0.6
		c-2.7-0.6-1.9-0.4-4.7-0.6c-2.7-0.3-1.9-0.3-4.4,0s-0.5-1.6,0-2.2C442.3,1045.2,445.4,1045.3,447.6,1045.9z M439.7,1034.5
		c0-1,3-1.2,6.9-1.7s4.7-0.8,4.7-0.8c0.9-0.1,0.3,1.2-1.9,1.7s-2.7,0.4-4.8,1.2c-1.4,0.5-1.9,0.6-2.5,0.9c-0.3,0.1-0.5,0.3-0.9,0.6
		c-1,0.7-1.3-0.3-1.4-1.3C439.7,1034.9,439.7,1034.7,439.7,1034.5z M433.8,1029.7c0.9-0.9,2.7-1.3,5.6-1.4c2.8-0.1,6.2-0.3,6.6-0.3
		h0.5c0.5,0-5,1.9-8,2.5c-3,0.5-0.9,0.3-2.5,0.9c-1.4,0.6-0.4,1.4,0,2.5c0.1,0.1,0.1,0.3,0.1,0.5c0.3,1.3-1.2-0.1-2.2-0.6
		c-0.3-0.1-0.5-0.4-0.6-0.7C433,1032,433.2,1030.4,433.8,1029.7z M430.4,1025.1c4-3,9.9-0.1,8.6,0c-5.6,0.5-5.1,0.8-8,2.4
		s-0.3,1.9-1.9,1.9S428.1,1026.9,430.4,1025.1z M424.3,1021.2c0.8-0.3,1.8-0.6,2.9-0.9c3.8-0.8,7.2,0,7.2,0c1.1-0.3-1.3,1.3-4.6,1.6
		c-3.2,0.3-1.9,0.3-4.6,1.9c-2.7,1.6-1.1,1.6-1.6,3c-0.3,0.6-0.7,0.5-1.2,0c-0.5-0.6-1-1.6-1.2-2.4
		C421.1,1023.2,422.3,1022,424.3,1021.2z M417.2,1017.9c0.8-1.3,2.7-2.4,6.9-2.7h0.1c4.3-0.3,7.2,0.8,7.2,0.8s-3.5,1.1-6.7,1.1
		c-0.1,0-0.1,0-0.2,0c-3,0-3.1,1.1-5.7,3.8c-1,1-1.3,1.5-1.4,1.7c0.1,0.1-0.1,0.2,0,0c-0.1,0-0.2-0.1-0.5-0.1
		C415.6,1022.5,416.4,1019.2,417.2,1017.9z M415.3,1010.5c0.2-0.1,0.4-0.2,0.6-0.3c4-2.1,7.2-2.1,11.5-1.1c4.3,1.1,5.7,1.9,6.4,2.7
		c0.8,0.8-4.8,0-7.8,0.3c-2.9,0.3-3.5-0.5-7-0.5c-0.2,0-0.4,0-0.6,0c-2.8,0.1-2.1,1.2-2.9,3.7c-0.8,2.7-2.1,3-2.1,3
		C411.2,1016.9,411.8,1012.7,415.3,1010.5z M410.2,986.3c-4,0.3-3.3,0-7.7,1c-4.3,1-11-1-7.3-1.7s12-8.7,14-5.3l0.7,1.3
		C410.2,983,414.2,986,410.2,986.3z M403.5,999.3c-7-1.3-15.7-1.7-12.7-3.7s4.3,0,8.7-1c4.3-1,5-2.7,6-1.7c0,0,2.3,2.3,2.3,4
		C407.9,998.7,410.5,1000.7,403.5,999.3z M400.2,1015c-5.3-1.7-5-2.3-10.3-6.3s-7.3-7-13-8.7c-5.7-1.7-10-3.7-14.7-4.7
		s-13-5.3-13.3-6.7c0,0,2.3,0.7,12,3s13.3,0.3,19.7,4.7c6.3,4.3,13.3,9.3,16,9.3s7.3,0.7,7.3,3.3
		C403.9,1009,405.5,1016.7,400.2,1015z"/>
	<path d="M388.6,967.4c0,0,3.4,0,2,2.4s-5.4,1-5.4,1S381.7,965.9,388.6,967.4z"/>
	<path d="M580.6,985.6c0.1,0.2,0.1,0.3,0.1,0.3S580.6,985.8,580.6,985.6z"/>
	<path d="M465.5,999.3c-0.8-0.7-1.5-2.7-1.6-5c0.1,0.2,0.2,0.5,0.3,0.7C465.4,997.7,466.4,1000.1,465.5,999.3z"/>
	<g>
		<path class="st24" d="M610.9,993.7c2.9,0,2.4,1.5,1.9-3.9s-1.9-12.2-1-14.6c1-2.4,1,11.2,3.9,12.2s-1-7.3-0.5-9.8
			c0.5-2.4,1.5,4.9,2.4,9.8c1,4.9,2.9,8.8,4.4,8.3c0,0,1.5,5.4,6.3,6.8c1.9,0.6,3.9,1.3,5.4,2c2.4,1.1,3.9,2.1,2.4,2.4
			c-2.4,0.5-9.3,0-12.7,2.9c-0.3,0.2-0.5,0.5-0.8,0.6c-2.6,2-2.7,0.4-3.1-3.6c-0.5-4.4-3.9-1.9-8.3-8.8S607.9,993.7,610.9,993.7z"/>
		<path class="st24" d="M580.6,985.6c-0.4-1.2-2-6.1-2.8-9.5c-1-3.9-1.5,8.3-2.4,10.7c-1,2.4-3.4-7.8-1-14.1s5.4-18,7.3-22.9
			s2,2.4,6.8,1.9c4.9-0.5,5.4,2,5.4,2c2,0.5-6.8,7.8-10.7,18.5C579.8,981.2,580.3,984.7,580.6,985.6z"/>
		<path class="st24" d="M512.4,964.4c1.7-2.6,3.7-6.2,5.9-9.4c2.2-3.3,4.6-6.1,6.8-7.1l0,0c4.4-1.9,14.1,0.5,14.1,0.5
			c-0.9,3.1-14.4,12.4-16.4,11.1c-0.2-0.1-0.3-0.4-0.2-0.9c0.8-3.5-3.4,2.7-7.4,9.5c-0.7,1.2-1.4,2.5-2.1,3.7
			c-0.2,0.5-0.5,0.9-0.7,1.4c-3.6,6.9-3.9,8.7-5.3,14.2c-0.3,1.1-0.6,2.4-1,3.9c-0.1,0.5-0.3,1-0.4,1.5c-1,4.3-0.6,7.3-0.3,9.5
			c0.3,1.7,0.5,3,0.1,4.1c-0.7,1.9-1.4-0.9-1.7-6.6c-0.1-2.4-0.2-5.2-0.2-8.5c0-1,0.1-1.9,0.1-2.9
			C504.5,978.3,509.3,969.3,512.4,964.4z"/>
		<path class="st24" d="M465.6,988.3c-1.2,1.6-1.7,3.5-1.7,5.3c0,0.2,0,0.5,0,0.7c-0.7-1.6-1.4-3.3-1.7-4.6
			c-0.7-2.5-1.7,2.2-1.8,7.4c0,1.8,0.1,3.7,0.3,5.3c0.7,4.7-1,0.5-1.7-4.3c-0.3-1.7-0.4-3.5-0.3-5c0.5-5.9-0.5-9.8,2-13.7
			c2.4-3.9,1.9-9.8,1.5-15.6c-0.3-4.1-1.6-5.5-1.2-6.4c0.2-0.4,0.7-0.6,1.7-0.9c3.4-1,10.2-2.9,10.2-2.9c0.4-0.1,0.6,0.1,0.7,0.5
			c0.4,1.9-2.9,9.2-4.6,16.1c-1,4.4-1,6.8-0.4,9.1c0.5,2,1.4,3.8,2.3,6.5c1.2,3.7-0.1,2.1-2,1.4c-0.8-0.3-1.8-0.4-2.7,0.3
			C466,987.8,465.8,988,465.6,988.3z"/>
		<path class="st24" d="M642.1,974.2c-1,2.4-2.4,3.4-3.4-2.4c-1-5.9,2.4-4.9,7.8-5.4s10.7-1,10.7-1c2-0.5,2,18,3.9,22.4
			c2,4.4-6.8-8.3-7.3-13.2s-3.4,0-2.4,3.4s-4.9-1.5-3.9-5.4C648.4,968.8,643.1,971.7,642.1,974.2z"/>
		<path class="st24" d="M682.5,977.6c2.4,2.9,1.5-2.9,2-3.9s7.3,5.4,6.8,7.3c0,0-6.8,5.4-8.8,3.4
			C680.6,982.5,680.1,974.7,682.5,977.6z"/>
		<path class="st24" d="M542.6,997.1c-1-4.9,4.9-13.7,3.4-10.2c-1.5,3.4,0.5,14.6,0.5,11.2s3.9,2.9,1.9,4.9c-1,1-8.3,6.3-9.8,4.4
			c-1.5-2-0.5-27.3,0-22.4C539.2,989.8,543.6,1002,542.6,997.1z"/>
		<path class="st24" d="M694.5,946.6c2.6-2.6,8.2-4.8,8.2-4.8c1.7,0.6,0.6,7.1,0.9,9.4c0.3,2.3-2-2-3.1-0.3s2.3,3.7,2.6,6
			s-6.5-4.6-9.1-5.4C691.4,950.6,692,949.2,694.5,946.6z"/>
		<path class="st24" d="M731.2,945.8c1.7,1.4,8,3.1,5.7,0s-3.7-10-1.4-8s9.1,2,8,4.8c0,0-6.5,8.5-8.5,8
			C732.9,950.1,729.5,944.4,731.2,945.8z"/>
		<path class="st24" d="M742.3,914.2c-1.7,1.4-1.1,3.1-2.8,0.6c-1.7-2.6,10.4-9.7,11.7-10c2.8-0.6,0.6,5.4-1.1,5.1
			c-1.7-0.3-2.6,0.3-0.9,4c1.7,3.7,0.6,4.8-2,3.1C744.6,915.4,744,912.8,742.3,914.2z"/>
		<path class="st24" d="M773.6,905.7c1.7-0.3,5.4-2.3,2.8-4.8c-2.6-2.6-0.9-4.3,1.4-2.3c2.3,2,2.3-0.6,1.7-3.7c-0.6-3.1,4,2,3.1,4.3
			c0,0-8,8.8-9.4,8.2C771.9,906.8,771.9,906,773.6,905.7z"/>
		<path class="st24" d="M793.8,873.5c-1.4,0-2.3,2.6-3.1,2.6c-0.9,0-1.1,1.1-0.6,2.8c0.6,1.7-4-0.3-4.6-2l10.5-8
			C797.2,869.8,795.2,873.5,793.8,873.5z"/>
		<path class="st24" d="M810,874.7c2.8,1.1,4.3-0.9,3.7-3.4c-0.6-2.6,4.3-3.4,4.6-0.6c0,0-6.5,7.7-7.7,6.8
			C809.4,876.7,807.2,873.5,810,874.7z"/>
		<path class="st24" d="M484,999c1.6,4.3,3.1,4.3,4.3,10.6c0.4,2.4,0.5,3.2,0.6,3.3c0.1,0.1,0.2-1.3,1-1.9c0.2-0.1,0.3-0.2,0.5-0.3
			c2.1-0.5,3.2,1.6,3.2,7.4c0,1.1,0.3,2,0.8,2.8c0.3,0.5,0.6,0.9,1,1.4c2.6,2.9,6.7,4.4,4,5.9c0,0-1.1,1-2.5,1.5
			c-1.1,0.4-2.4,0.5-3.4-0.4c-2.1-2.1-6.9-9-7.4-14.4c0-0.2,0-0.4-0.1-0.6C485.4,1008.7,482.5,994.9,484,999z"/>
	</g>
</g>
<rect id="_x3C_Slice_x3E_" x="-221" y="848" class="st25" width="15" height="3"/>
</svg>
